<?xml version="1.0" encoding="utf-8"?>
<!-- Generator: Adobe Illustrator 18.1.0, SVG Export Plug-In . SVG Version: 6.00 Build 0)  -->
<svg version="1.1" id="Layer_1" xmlns="http://www.w3.org/2000/svg" xmlns:xlink="http://www.w3.org/1999/xlink" x="0px" y="0px"
	 viewBox="0 0 100 100" enable-background="new 0 0 100 100" xml:space="preserve">
<g id="Layer_1_copy" xmlns:rdf="http://www.w3.org/1999/02/22-rdf-syntax-ns#" xmlns:svg="http://www.w3.org/2000/svg" xmlns:inkscape="http://www.inkscape.org/namespaces/inkscape" xmlns:sodipodi="http://sodipodi.sourceforge.net/DTD/sodipodi-0.dtd" xmlns:dc="http://purl.org/dc/elements/1.1/" xmlns:cc="http://creativecommons.org/ns#" sodipodi:docname="logo.svg" inkscape:version="0.91 r13258 custom">
	<path id="path63_1_" inkscape:connector-curvature="0" fill="#33CC00" d="M50,57.2c-3.3,0-8.3-0.3-8.3-0.3c-0.5,0-0.7-0.4-0.4-0.8
		c0,0,3.1-4.3,5.4-6.9c1.1-1.4,2.7-3.1,2.7-3.1c0.3-0.4,0.9-0.4,1.3,0c0,0,1.6,1.8,2.7,3.1c2.3,2.7,5.4,6.9,5.4,6.9
		c0.3,0.4,0.2,0.8-0.4,0.8C58.3,56.9,53.3,57.2,50,57.2z"/>
	<path id="path65_1_" inkscape:connector-curvature="0" fill="#666666" d="M98.9,53.3c0-4.7-11.6-8.9-28.3-10.8
		c-1-0.1-1.5,0.7-1.5,1.4c0,0.6,0.3,1.3,1.1,1.4c0.2,0,0.3,0.1,0.4,0.1c13.5,1.4,22.6,4.2,22.6,7.3s-8.6,5.8-21.5,7.3
		c-3.4-5.5-7.5-11.4-12.2-17.3c-2.2-2.8-4.4-5.5-6.7-8c11.4-12.7,21.5-20.3,24.4-18.1c2.3,1.8-0.3,9.2-6.1,19
		c-0.2,0.3-0.3,1.3,0.4,1.7c0.7,0.4,1.6,0.2,1.9-0.4c0.1-0.1,0.2-0.3,0.3-0.3c7.1-12.4,10-22.1,6.5-24.7c-4.2-3.2-16.4,5-29.7,19.3
		l0,0c-0.2,0.2-0.3,0.4-0.5,0.6c-0.2-0.2-0.3-0.4-0.5-0.6l0,0C36.1,16.8,23.9,8.5,19.8,11.7c-3.4,2.6-0.5,12.4,6.5,24.7
		c0.1,0.1,0.2,0.3,0.3,0.3c0.4,0.7,1.3,0.8,1.9,0.4c0.7-0.5,0.6-1.4,0.4-1.7c-5.8-9.7-8.3-17.2-6.1-19c2.9-2.2,13,5.5,24.4,18.1
		c-2.2,2.5-4.5,5.2-6.7,8c-4.7,5.9-8.8,11.9-12.2,17.3c-12.9-1.4-21.6-4.2-21.5-7.3c0-3.1,9.2-5.9,22.6-7.3c0.2,0,0.3-0.1,0.4-0.1
		c0.7-0.1,1.1-0.8,1.1-1.4c0-0.7-0.5-1.4-1.5-1.4C12.8,44.4,1.1,48.5,1.1,53.3c0,4.5,10.1,8.4,25.1,10.4c-7,12.3-9.8,21.9-6.4,24.6
		c3.6,2.9,13.6-3.2,25.1-14.6c0.3-0.3,0.6-1.3-0.1-1.9c-0.4-0.4-1.3-0.5-1.8-0.1c-0.3,0.2-0.4,0.3-0.6,0.5
		C33.5,81.1,26.2,86,23.8,84.1c-2.4-1.8,0.5-9.7,6.7-19.9c5.8,0.6,12.2,1,19,1l0,0c0.1,0,0.2,0,0.3,0c0.1,0,0.2,0,0.3,0
		c0,0,0,0,0.1,0c0,0,0,0,0.1,0c0.1,0,0.2,0,0.3,0c0.1,0,0.2,0,0.3,0l0,0c6.7,0,13.1-0.4,19-1c6.2,10.3,9.1,18.1,6.7,19.9
		c-2.4,1.9-9.7-3.1-18.6-11.9c-0.2-0.2-0.3-0.3-0.6-0.5c-0.5-0.4-1.4-0.3-1.8,0.1c-0.7,0.7-0.4,1.6-0.1,1.9
		C66.7,85,76.6,91.2,80.3,88.3c3.4-2.6,0.6-12.3-6.4-24.6C88.8,61.7,98.9,57.8,98.9,53.3L98.9,53.3z M50.1,61.2c-0.1,0-0.1,0-0.2,0
		s-0.1,0-0.2,0c-6,0-11.8-0.3-16.9-0.7c3.1-4.7,6.8-10,10.9-15.3c1.9-2.4,3.7-4.7,5.6-6.8l0,0c0.2-0.3,0.3-0.4,0.5-0.7
		c0.2,0.2,0.3,0.4,0.5,0.7l0,0c1.9,2.2,3.7,4.4,5.6,6.8c4.2,5.3,7.9,10.4,10.9,15.3C61.9,60.8,56.1,61.1,50.1,61.2z"/>
</g>
</svg>
