<?xml version="1.0" encoding="utf-8"?>
<!-- Generator: Adobe Illustrator 18.1.0, SVG Export Plug-In . SVG Version: 6.00 Build 0)  -->
<svg version="1.1" xmlns="http://www.w3.org/2000/svg" xmlns:xlink="http://www.w3.org/1999/xlink" x="0px" y="0px"
	 viewBox="30.8 -30.8 118 118" enable-background="new 30.8 -30.8 118 118" xml:space="preserve">
<g id="Layer_1" xmlns:rdf="http://www.w3.org/1999/02/22-rdf-syntax-ns#" xmlns:svg="http://www.w3.org/2000/svg" xmlns:inkscape="http://www.inkscape.org/namespaces/inkscape" xmlns:sodipodi="http://sodipodi.sourceforge.net/DTD/sodipodi-0.dtd" xmlns:dc="http://purl.org/dc/elements/1.1/" xmlns:cc="http://creativecommons.org/ns#" sodipodi:docname="logo.svg" inkscape:version="0.91 r13258 custom">
	<path id="path65" inkscape:connector-curvature="0" fill="#00B9E4" d="M147.5,31.9c0-5.6-13.7-10.5-33.4-12.7
		c-1.2-0.1-1.8,0.8-1.8,1.6c0,0.7,0.4,1.5,1.3,1.6c0.2,0,0.3,0.1,0.5,0.1c15.9,1.7,26.7,4.9,26.7,8.6c0,3.7-10.2,6.9-25.4,8.6
		c-4-6.5-8.8-13.4-14.4-20.4c-2.6-3.3-5.2-6.5-7.9-9.4c13.5-15,25.4-24,28.8-21.4c2.7,2.1-0.4,10.8-7.2,22.4c-0.2,0.4-0.4,1.5,0.5,2
		c0.8,0.5,1.9,0.2,2.3-0.5c0.1-0.1,0.2-0.3,0.3-0.4c8.4-14.6,11.8-26.1,7.7-29.2c-4.9-3.8-19.3,5.9-35,22.8v0
		c-0.2,0.2-0.4,0.5-0.6,0.7c-0.2-0.2-0.4-0.5-0.6-0.7v0C73.5-11.2,59.1-21,54.2-17.2c-4,3.1-0.6,14.6,7.7,29.2
		c0.1,0.1,0.2,0.3,0.3,0.4c0.5,0.8,1.5,1,2.3,0.5c0.8-0.6,0.7-1.7,0.5-2c-6.8-11.5-9.8-20.3-7.2-22.4C61.2-14.1,73.1-5,86.6,9.9
		c-2.6,3-5.3,6.1-7.9,9.4c-5.5,7-10.4,14-14.4,20.4c-15.2-1.7-25.5-4.9-25.4-8.6c0-3.7,10.8-7,26.7-8.6c0.2,0,0.3-0.1,0.5-0.1
		c0.8-0.1,1.3-1,1.3-1.6c0-0.8-0.6-1.7-1.8-1.6c-19.7,2.2-33.4,7-33.4,12.7c0,5.3,11.9,9.9,29.6,12.3c-8.3,14.5-11.6,25.9-7.6,29
		c4.3,3.4,16.1-3.8,29.6-17.2c0.4-0.4,0.7-1.5-0.1-2.3c-0.5-0.5-1.5-0.6-2.1-0.1c-0.3,0.2-0.5,0.4-0.7,0.6
		c-10.5,10.5-19.1,16.3-22,14.1c-2.8-2.1,0.6-11.4,7.9-23.5c6.9,0.7,14.4,1.2,22.4,1.2l0,0c0.1,0,0.2,0,0.3,0c0.1,0,0.2,0,0.3,0
		c0,0,0,0,0.1,0c0,0,0,0,0.1,0c0.1,0,0.2,0,0.3,0c0.1,0,0.2,0,0.3,0l0,0c7.9,0,15.5-0.5,22.4-1.2c7.3,12.1,10.7,21.3,7.9,23.5
		c-2.8,2.2-11.4-3.6-22-14.1c-0.2-0.2-0.4-0.4-0.7-0.6c-0.6-0.5-1.6-0.4-2.1,0.1c-0.8,0.8-0.5,1.9-0.1,2.3
		c13.5,13.3,25.2,20.6,29.6,17.2c4-3.1,0.7-14.5-7.6-29C135.6,41.8,147.5,37.2,147.5,31.9L147.5,31.9z M90,41.2c-0.1,0-0.1,0-0.2,0
		c-0.1,0-0.1,0-0.2,0c-7.1,0-13.9-0.3-20-0.8c3.7-5.6,8-11.8,12.9-18c2.2-2.8,4.4-5.5,6.6-8v0c0.2-0.3,0.4-0.5,0.6-0.8
		c0.2,0.2,0.4,0.5,0.6,0.8v0c2.2,2.6,4.4,5.2,6.6,8c4.9,6.2,9.3,12.3,12.9,18C103.9,40.8,97.1,41.1,90,41.2z"/>
	<path fill="#0089CF" d="M79.8-5.7c0,0.6-0.3,1.7-0.3,1.7S78-4.3,76.8-3.2s-0.1,2.8-0.1,2.8c-0.8,0.4-1.8,0.7-2.8,0.7
		c-3.3,0-6-2.7-6-6s2.7-6,6-6C77.1-11.7,79.8-9,79.8-5.7z"/>
	<path fill="#0089CF" d="M72.9,67.4c-0.4-0.1-1.2-0.5-1.2-0.5s0.5-1.1-0.1-2.2c-0.6-1.1-2-0.5-2-0.5c-0.2-0.7-0.2-1.4-0.1-2.1
		c0.5-2.4,2.9-4,5.3-3.5c2.4,0.5,4,2.9,3.5,5.3C77.7,66.4,75.3,68,72.9,67.4z"/>
	<path fill="#0089CF" d="M125.4,46.1c-1.6-1-2.1-2.6-2.1-2.6s1.6-0.7,1.1-2.9c-0.5-2.2-2.4-1.7-2.4-1.7c0.2-1.2,0.6-2.9,1.4-4
		c2.5-3.6,7.5-4.6,11.2-2c3.7,2.5,4.6,7.5,2.1,11.1S129.1,48.4,125.4,46.1z"/>
	<polygon fill="#0089CF" points="59.5,48.4 64.2,49 66.8,44.8 61.8,44.2 	"/>
	<polygon fill="#0089CF" points="64.4,39.8 65.3,38.2 70.5,38.9 69.6,40.3 	"/>
	<polygon fill="#0089CF" points="89.8,13.6 93,9.9 95.6,12.9 92.6,16.7 	"/>
	<polygon fill="#0089CF" points="86.6,9.9 89.8,6.3 88.5,4.9 85.3,8.6 	"/>
	<polygon fill="#0089CF" points="112.8,44.8 115.3,48.9 120.1,48.4 117.9,44.2 	"/>
	<polygon fill="#0089CF" points="110,40.3 115.3,39.8 114.2,38.3 109.1,38.9 	"/>
</g>
<g id="Layer_1_copy" xmlns:rdf="http://www.w3.org/1999/02/22-rdf-syntax-ns#" xmlns:svg="http://www.w3.org/2000/svg" xmlns:inkscape="http://www.inkscape.org/namespaces/inkscape" xmlns:sodipodi="http://sodipodi.sourceforge.net/DTD/sodipodi-0.dtd" xmlns:dc="http://purl.org/dc/elements/1.1/" xmlns:cc="http://creativecommons.org/ns#" sodipodi:docname="logo.svg" inkscape:version="0.91 r13258 custom" display="none">
	<path id="path63_1_" inkscape:connector-curvature="0" display="inline" fill="#33CC00" d="M89.8,36.5c-3.9,0-9.8-0.3-9.8-0.3
		c-0.6,0-0.8-0.5-0.5-1c0,0,3.7-5.1,6.4-8.2c1.3-1.6,3.2-3.6,3.2-3.6c0.4-0.5,1.1-0.5,1.5,0c0,0,1.9,2.1,3.2,3.6
		c2.7,3.2,6.4,8.2,6.4,8.2c0.4,0.5,0.2,0.9-0.5,1C99.7,36.1,93.7,36.5,89.8,36.5z"/>
	<path id="path65_1_" inkscape:connector-curvature="0" display="inline" d="M147.5,31.9c0-5.6-13.7-10.5-33.4-12.7
		c-1.2-0.1-1.8,0.8-1.8,1.6c0,0.7,0.4,1.5,1.3,1.6c0.2,0,0.3,0.1,0.5,0.1c15.9,1.7,26.7,4.9,26.7,8.6c0,3.7-10.2,6.9-25.4,8.6
		c-4-6.5-8.8-13.4-14.4-20.4c-2.6-3.3-5.2-6.5-7.9-9.4c13.5-15,25.4-24,28.8-21.4c2.7,2.1-0.4,10.8-7.2,22.4c-0.2,0.4-0.4,1.5,0.5,2
		c0.8,0.5,1.9,0.2,2.3-0.5c0.1-0.1,0.2-0.3,0.3-0.4c8.4-14.6,11.8-26.1,7.7-29.2c-4.9-3.8-19.3,5.9-35,22.8v0
		c-0.2,0.2-0.4,0.5-0.6,0.7c-0.2-0.2-0.4-0.5-0.6-0.7v0C73.5-11.2,59.1-21,54.2-17.2c-4,3.1-0.6,14.6,7.7,29.2
		c0.1,0.1,0.2,0.3,0.3,0.4c0.5,0.8,1.5,1,2.3,0.5c0.8-0.6,0.7-1.7,0.5-2c-6.8-11.5-9.8-20.3-7.2-22.4C61.2-14.1,73.1-5,86.6,9.9
		c-2.6,3-5.3,6.1-7.9,9.4c-5.5,7-10.4,14-14.4,20.4c-15.2-1.7-25.5-4.9-25.4-8.6c0-3.7,10.8-7,26.7-8.6c0.2,0,0.3-0.1,0.5-0.1
		c0.8-0.1,1.3-1,1.3-1.6c0-0.8-0.6-1.7-1.8-1.6c-19.7,2.2-33.4,7-33.4,12.7c0,5.3,11.9,9.9,29.6,12.3c-8.3,14.5-11.6,25.9-7.6,29
		c4.3,3.4,16.1-3.8,29.6-17.2c0.4-0.4,0.7-1.5-0.1-2.3c-0.5-0.5-1.5-0.6-2.1-0.1c-0.3,0.2-0.5,0.4-0.7,0.6
		c-10.5,10.5-19.1,16.3-22,14.1c-2.8-2.1,0.6-11.4,7.9-23.5c6.9,0.7,14.4,1.2,22.4,1.2l0,0c0.1,0,0.2,0,0.3,0c0.1,0,0.2,0,0.3,0
		c0,0,0,0,0.1,0c0,0,0,0,0.1,0c0.1,0,0.2,0,0.3,0c0.1,0,0.2,0,0.3,0l0,0c7.9,0,15.5-0.5,22.4-1.2c7.3,12.1,10.7,21.3,7.9,23.5
		c-2.8,2.2-11.4-3.6-22-14.1c-0.2-0.2-0.4-0.4-0.7-0.6c-0.6-0.5-1.6-0.4-2.1,0.1c-0.8,0.8-0.5,1.9-0.1,2.3
		c13.5,13.3,25.2,20.6,29.6,17.2c4-3.1,0.7-14.5-7.6-29C135.6,41.8,147.5,37.2,147.5,31.9L147.5,31.9z M90,41.2c-0.1,0-0.1,0-0.2,0
		c-0.1,0-0.1,0-0.2,0c-7.1,0-13.9-0.3-20-0.8c3.7-5.6,8-11.8,12.9-18c2.2-2.8,4.4-5.5,6.6-8v0c0.2-0.3,0.4-0.5,0.6-0.8
		c0.2,0.2,0.4,0.5,0.6,0.8v0c2.2,2.6,4.4,5.2,6.6,8c4.9,6.2,9.3,12.3,12.9,18C103.9,40.8,97.1,41.1,90,41.2z"/>
</g>
</svg>
