<?xml version="1.0" standalone="no"?>
<!DOCTYPE svg PUBLIC "-//W3C//DTD SVG 1.1//EN" "http://www.w3.org/Graphics/SVG/1.1/DTD/svg11.dtd" >
<svg xmlns="http://www.w3.org/2000/svg">
<metadata>Generated by IcoMoon</metadata>
<defs>
<font id="icomoon" horiz-adv-x="1024">
<font-face units-per-em="1024" ascent="960" descent="-64" />
<missing-glyph horiz-adv-x="1024" />
<glyph unicode="&#x20;" horiz-adv-x="512" d="" />
<glyph unicode="&#xe600;" glyph-name="role" d="M584.672 259.008c-18.016 22.016-14.592 58.912-14.592 58.912s67.136 66.496 81.76 155.872c39.36 0 63.68 94.976 24.32 128.416 1.664 35.2 50.592 276.224-197.184 276.224s-198.848-241.056-197.216-276.224c-39.328-33.44-15.072-128.416 24.288-128.416 14.624-89.344 81.792-155.872 81.792-155.872s-0.544-62.784-23.36-66.432c-73.664-11.744-348.48-132.96-348.48-265.856l666.72 1.152c0 0-67.264 30.432-102.048 116.096-34.816 85.632 4 156.128 4 156.128zM809.6 382.4c-109.568 0-198.4-88.832-198.4-198.4s88.832-198.368 198.4-198.368 198.4 88.8 198.4 198.368-88.832 198.4-198.4 198.4zM772.416 60l-82.112 106.944 36.384 38.016 45.76-58.112 143.36 117.024 17.856-17.856-161.248-186.016z" />
<glyph unicode="&#xe601;" glyph-name="product" horiz-adv-x="1018" d="M767.034 303.044c10.528 10.098 24.924 12.89 32.086 5.158l214.282-214.568c7.090-7.304 4.584-21.844-5.944-32.372l-113.658-113.158c-10.456-10.456-24.924-12.892-32.228-5.658l-213.924 214.998c-7.376 7.448-4.726 21.7 5.73 32.014l113.658 113.586zM1017.196 458.6c0-277.092-224.38-501.33-501.4-501.33-276.948 0-501.544 224.236-501.544 501.33 0 276.878 224.594 501.4 501.544 501.4 277.092 0 501.4-224.524 501.4-501.4zM515.724 745.072c-158.134 0-286.474-128.198-286.474-286.474 0-158.634 128.34-286.688 286.474-286.688 158.348 0 286.76 128.054 286.76 286.688 0 158.348-128.412 286.474-286.76 286.474zM478.77 297.028c10.814-10.384 10.814-28.004 0-38.96l-315.694-313.69c-10.528-11.172-28.002-11.172-38.746 0l-116.38 116.88c-10.67 10.528-10.67 27.932 0 38.674l315.552 314.19c10.742 10.6 28.288 10.456 38.818-0.286l116.452-116.81zM597.512 530.432c45.048-45.12 44.618-117.956-0.5-163.002-44.832-44.762-118.098-44.476-162.932 0.43-44.904 45.048-44.69 118.026 0.5 163.004 44.904 44.832 117.956 44.69 162.932-0.43z" />
<glyph unicode="&#xe602;" glyph-name="group" d="M594.656 103.84c-15.072 2.368-15.456 43.616-15.456 43.616s44.416 43.648 54.048 102.304c26.112 0 42.176 62.304 16.192 84.32 1.088 23.072 33.472 181.344-130.624 181.344s-131.68-158.272-130.56-181.344c-26.048-22.016-10.016-84.32 16.032-84.32 9.696-58.656 54.176-102.304 54.176-102.304s-0.352-41.248-15.488-43.616c-48.704-7.68-230.688-87.296-230.688-174.528h613.056c0 87.264-182.016 166.848-230.656 174.528h-0.032zM282.592 89.952c35.2 21.664 77.952 41.728 112.928 53.792-12.512 17.92-26.528 42.24-35.328 71.072-12.288 10.112-22.336 24.416-28.768 41.984-6.432 17.664-8.864 37.408-6.88 55.68 1.44 13.088 5.184 25.28 10.912 35.968-3.456 37.216-5.952 110.208 41.856 163.456 18.528 20.608 41.952 35.456 70.048 44.448-5.024 51.712-31.296 112.32-132.896 112.32-164.128 0-131.712-158.208-130.624-181.312-25.984-21.984-9.952-84.352 16.128-84.352 9.664-58.688 54.144-102.272 54.144-102.272s-0.384-41.28-15.456-43.648c-48.736-7.648-230.688-87.232-230.688-174.496h263.104c3.744 2.464 7.584 4.832 11.52 7.328v0zM741.376 88.992c3.936-2.432 7.744-4.896 11.552-7.328h263.072c0 87.296-182.016 166.816-230.688 174.464-15.168 2.432-15.488 43.712-15.488 43.712s44.48 43.552 54.176 102.304c25.984 0 42.112 62.304 16.032 84.288 1.12 23.104 33.536 181.312-130.464 181.312-101.696 0-127.904-60.64-132.928-112.32 28.064-8.992 51.488-23.84 70.048-44.48 47.744-53.28 45.312-126.24 41.792-163.488 5.792-10.688 9.536-22.88 10.944-35.904 1.984-18.272-0.448-38.016-6.912-55.712-6.368-17.6-16.416-31.872-28.672-41.952-8.832-28.864-22.848-53.184-35.36-71.104 34.976-12.064 77.696-32.096 112.896-53.792v0z" />
<glyph unicode="&#xe603;" glyph-name="report" d="M903.424 760.576l-142.88 142.848c-31.104 31.104-92.576 56.576-136.576 56.576h-480c-44 0-80-36-80-80v-864c0-44 36-80 80-80h736c44 0 80 36 80 80v608c0 44-25.472 105.472-56.608 136.576h0.064zM858.176 715.328c3.136-3.136 6.272-6.976 9.248-11.328h-163.424v163.456c4.384-3.040 8.192-6.144 11.328-9.28l142.848-142.848zM896 16c0-8.672-7.328-16-16-16h-736c-8.672 0-16 7.328-16 16v864c0 8.672 7.328 16 16 16h480c4.8 0 10.24-0.608 16-1.696v-254.304h254.304c1.056-5.76 1.696-11.168 1.696-16v-608zM256 557.728h512v-73.152h-512v73.152zM256 411.424h512v-73.12h-512v73.12zM256 265.12h512v-73.12h-512v73.12zM256 704h346.656v-73.152h-346.656v73.152z" />
<glyph unicode="&#xe604;" glyph-name="chart" d="M448 384v448c-247.424 0-448-200.576-448-448s200.576-448 448-448 448 200.576 448 448c0 72.034-17.028 140.084-47.236 200.382l-400.764-200.382zM912.764 712.382c-73.552 146.816-225.374 247.618-400.764 247.618v-448l400.764 200.382z" />
<glyph unicode="&#xe605;" glyph-name="arrow-right" d="M992 448l-480 480v-288h-512v-384h512v-288z" />
<glyph unicode="&#xe606;" glyph-name="custom-1" d="M927.744 207.872l-415.744-239.957-415.744 239.957v480.256l415.744 239.957 415.744-239.957z" />
<glyph unicode="&#xe607;" glyph-name="custom-2" horiz-adv-x="998" d="M115.537 479.832c94.147 80.842 168.589 144.842 370.358 30.653 97.011-54.737 175.158-75.453 240.337-75.453 114.021 0 187.789 63.495 251.621 118.232 22.737 19.537 25.768 54.4 6.568 77.474s-53.221 26.274-75.958 6.737c-94.147-80.842-168.589-144.842-370.358-30.653-266.611 150.737-391.579 43.284-491.958-42.947-22.737-19.537-25.768-54.232-6.568-77.474s53.221-26.274 75.958-6.568v0zM908.463 362.274c-94.147-80.842-168.589-144.842-370.358-30.653-266.611 150.568-391.579 43.284-491.958-42.947-22.737-19.537-25.768-54.4-6.568-77.474 19.2-23.242 53.221-26.274 75.958-6.737 94.147 80.842 168.589 144.842 370.358 30.821 97.011-54.737 175.158-75.453 240.337-75.453 114.021 0 187.789 63.495 251.621 118.232 22.737 19.537 25.768 54.232 6.568 77.474-19.2 23.411-53.221 26.274-75.958 6.737z" />
<glyph unicode="&#xe608;" glyph-name="custom-3" d="M512 960l-448-512 448-512 448 512-448 512z" />
<glyph unicode="&#xe609;" glyph-name="custom-4" d="M1024 562.95l-353.78 51.408-158.22 320.582-158.216-320.582-353.784-51.408 256-249.538-60.432-352.352 316.432 166.358 316.432-166.358-60.434 352.352 256.002 249.538z" />
<glyph unicode="&#xe60a;" glyph-name="custom-5" d="M512 911.18c-255.807 0-463.18-207.373-463.18-463.18s207.373-463.18 463.18-463.18c255.741 0 463.18 207.373 463.18 463.18s-207.439 463.18-463.18 463.18z" />
<glyph unicode="&#xe60b;" glyph-name="custom-6" d="M502.857 521.143c90.286 0 174.629 8.229 253.257 24.686s140.343 40.686 185.6 72.686l-58.971-170.514c-39.314-22.4-92.571-40.229-160-53.486s-140.571-19.657-219.886-19.657-152.686 6.629-219.886 19.657-104.914 28.8-144.914 49.6l-74.057 174.171c45.257-32 107.2-56.229 185.6-72.686s162.971-24.457 253.257-24.457zM502.857 82.286c90.286 0 174.629 8.229 253.257 24.686s140.343 40.686 185.6 72.686v-97.371c0-26.286-19.657-50.743-58.971-73.143s-92.571-40.229-160-53.486-140.571-19.657-219.886-19.657-152.686 6.629-219.886 19.657-120.686 30.857-160 53.486-58.971 46.857-58.971 73.143v97.143c45.257-32 107.2-56.229 185.6-72.686s162.971-24.457 253.257-24.457zM502.857 301.714c90.286 0 174.629 8.229 253.257 24.686s78.629 16.457 123.886 48.457l61.714-73.143c0-26.286-19.657-50.743-58.971-73.143s-92.571-40.229-160-53.486-140.571-19.657-219.886-19.657-152.686 6.629-219.886 19.657-120.686 30.857-160 53.486-58.971 46.857-58.971 73.143l73.143 73.143c45.257-32 34.057-32.229 112.457-48.457s162.971-24.686 253.257-24.686zM502.857 960c79.314 0 152.686-6.629 219.886-19.657s120.686-30.857 160-53.486 58.971-46.857 58.971-73.143v-73.143c0-26.286-19.657-50.743-58.971-73.143s-92.571-40.229-160-53.486-140.571-19.657-219.886-19.657-152.686 6.629-219.886 19.657-120.686 30.857-160 53.486-58.971 46.857-58.971 73.143v73.143c0 26.286 19.657 50.743 58.971 73.143s92.571 40.229 160 53.486 140.571 19.657 219.886 19.657z" />
<glyph unicode="&#xe60c;" glyph-name="custom-7" d="M986.027 158.080c0 0-177.707-16.427-177.707 126.080 0 77.013 93.867 243.84 93.867 323.627 0 21.973-7.467 47.573-25.6 68.907-11.093-27.093-52.907-43.307-113.067-11.307-29.44 15.573-40.107 37.973-36.693 56.747-37.333-1.067-72.107-11.093-113.28-35.627-101.547-59.733-336-340.693-336-507.307 0-161.28 158.72-187.52 158.72-187.52-8.533 30.933-18.133 62.933-13.867 84.267 51.84-59.947 95.573-82.133 137.6-92.373-15.36 32.64-17.707 52.48-19.84 72.533 53.333-39.893 116.267-64.213 186.24-77.44-12.8 23.040-13.227 46.933-16.427 69.973 45.227-27.307 93.44-46.293 148.907-43.733-19.84 20.693-34.133 43.307-46.293 62.507 34.133-8.96 39.893-25.6 145.067-16.427-37.76 19.84-54.4 34.133-68.48 47.573 45.653 3.84 86.827 18.347 96.853 59.52zM757.973 379.947c-15.36-1.707-30.080-3.2-44.16-4.053zM566.613 385.92c-84.267 20.267-127.787 65.067-137.387 112.853l68.907 83.2c23.040-98.133 113.067-148.907 364.16-113.067l-29.227-77.013c-23.893-4.693-46.507-8.32-68.053-11.093zM642.987 375.467c-24.32 1.28-46.507 4.267-66.56 8.32zM708.693 375.68c-22.827-1.28-44.16-1.28-63.787-0.427zM894.72 887.893h97.28l-159.787-186.027c-36.267-6.827-48.64 7.467-48.64 32.427l111.147 153.6zM175.573 160.213c0-35.346-28.654-64-64-64s-64 28.654-64 64c0 35.346 28.654 64 64 64s64-28.654 64-64zM47.573 252.587c0-12.724-10.316-23.040-23.040-23.040s-23.040 10.316-23.040 23.040c0 12.724 10.316 23.040 23.040 23.040s23.040-10.316 23.040-23.040zM182.613 314.88c0-25.567-20.726-46.293-46.293-46.293s-46.293 20.726-46.293 46.293c0 25.567 20.726 46.293 46.293 46.293s46.293-20.726 46.293-46.293z" />
<glyph unicode="&#xe60d;" glyph-name="custom-8" d="M14.897 65.747l497.103 828.505 497.103-828.505z" />
<glyph unicode="&#xe60e;" glyph-name="custom-9" d="M25.943 448h441.87l-441.87 441.87h972.112l-441.87-441.87h441.87l-486.057-486.057z" />
<glyph unicode="&#xe60f;" glyph-name="custom-10" d="M998.057 448h-441.87l441.87-441.87h-972.112l441.87 441.87h-441.87l486.057 486.057z" />
<glyph unicode="&#xe610;" glyph-name="custom-11" d="M497.974 934.057v-441.87l441.87 441.87v-972.112l-441.87 441.87v-441.87l-486.057 486.057z" />
<glyph unicode="&#xe611;" glyph-name="custom-12" d="M512-38.057v441.87l-441.87-441.87v972.112l441.87-441.87v441.87l486.057-486.057z" />
<glyph unicode="&#xe612;" glyph-name="custom-13" d="M364.317 77.995c-145.181 58.482-247.581 200.704-247.581 366.819 0 218.226 177.038 395.264 395.264 395.264 29.355 0 58.027-3.186 85.789-9.33l65.991 88.974c-47.787 15.246-98.759 23.666-151.779 23.666-275.342 0-498.347-223.005-498.347-498.347 0-200.021 117.646-372.509 287.403-451.925l63.261 84.878zM733.411 891.278l-62.805-84.423c139.264-61.213 236.658-200.249 236.658-362.041 0-218.226-177.038-395.264-395.264-395.264-25.031 0-49.607 2.275-73.273 6.827l-66.901-89.885c44.373-12.971 91.477-20.025 140.174-20.025 275.342 0 498.347 223.005 498.347 498.347 0 195.698-112.867 364.999-276.935 446.464zM319.033 12.914l183.865 242.119 84.195-63.715-20.025 232.334-229.149-43.463 83.968-63.943-183.41-241.664zM599.609 577.479l195.47 232.334-77.824 65.536-195.015-232.334-81.010 68.039 7.965-233.245 231.424 31.858-81.010 67.811z" />
<glyph unicode="&#xe613;" glyph-name="custom-14" d="M830.184 766.182c-81.432 81.436-193.918 131.818-318.184 131.818-192.909 0-357.442-121.402-421.433-291.962l105.36-39.51c47.992 127.921 171.392 218.973 316.074 218.973 93.199 0 177.557-37.793 238.628-98.872l-126.128-126.128h337.5v337.5l-131.816-131.818zM512 110.5c-93.2 0-177.562 37.786-238.634 98.866l126.134 126.134h-337.5v-337.5l131.83 131.83c81.427-81.442 193.902-131.83 318.17-131.83 192.911 0 357.444 121.402 421.435 291.962l-105.36 39.51c-47.992-127.921-171.392-218.973-316.076-218.973z" />
<glyph unicode="&#xe614;" glyph-name="custom-15" d="M640 813.412v-135.958c36.206-15.804 69.5-38.408 98.274-67.18 60.442-60.44 93.726-140.8 93.726-226.274s-33.286-165.834-93.726-226.274c-60.44-60.44-140.798-93.726-226.274-93.726s-165.834 33.286-226.274 93.726c-60.44 60.44-93.726 140.8-93.726 226.274s33.286 165.834 93.726 226.274c28.774 28.774 62.068 51.378 98.274 67.182v135.956c-185.048-55.080-320-226.472-320-429.412 0-247.424 200.578-448 448-448 247.424 0 448 200.576 448 448 0 202.94-134.95 374.332-320 429.412zM448 960h128v-512h-128z" />
<glyph unicode="&#xe615;" glyph-name="float" d="M5 481.8c0 74.6 18.2 137.6 54.6 189.2 36.4 51.4 85.2 77.2 146 77.2 127 0 190.6-92.8 190.6-278.2 0-86.8-17.2-156-51.4-207.8-34.4-51.8-82.4-77.6-144.4-77.6-66.6 0-115.8 23.8-147.8 71.6-31.8 47.8-47.6 123-47.6 225.6zM105.8 475.2c0-72.8 7-126.4 21.2-160.8s37.6-51.4 70.6-51.4c35.6 0 60.8 15.4 75.8 46.4s22.4 86.2 22.4 165.4c0 73.8-7.2 124.8-21.4 153-14.6 28-38 42-70.6 42-65.4 0-98-64.8-98-194.6zM433.8 240.8c0 18.6 6.6 34.6 19.6 47.6s29 19.6 47.6 19.6 34.6-6.6 47.6-19.6c13-13 19.6-29 19.6-47.6s-6.6-34.6-19.6-47.8c-13-13.2-29-19.8-47.6-19.8s-34.6 6.6-47.6 19.8c-13 13.2-19.6 29.2-19.6 47.8zM621.6 481.8c0 74.6 18.2 137.6 54.6 189.2 36.4 51.4 85.2 77.2 146 77.2 127 0 190.6-92.8 190.6-278.2 0-86.8-17.2-156-51.4-207.8-34.4-51.8-82.4-77.6-144.4-77.6-66.6 0-115.8 23.8-147.8 71.6-31.6 47.8-47.6 123-47.6 225.6zM722.4 475.2c0-72.8 7-126.4 21.2-160.8s37.6-51.4 70.6-51.4c35.6 0 60.8 15.4 75.8 46.4s22.4 86.2 22.4 165.4c0 73.8-7.2 124.8-21.4 153-14.4 28.2-37.8 42.2-70.4 42.2-65.6-0.2-98.2-65-98.2-194.8z" />
<glyph unicode="&#xe616;" glyph-name="integer" d="M491.4 339v445h-161.2v59.6c21 0 41.4 1.6 61.4 4.8 19.8 3.2 37.8 9.2 53.8 18s29.6 20.8 40.8 36c11 15.2 18.6 34.4 22.8 57.8h57v-621h-74.6zM27.2 424.8c8.2 26.8 20.8 50 38.2 69.6 17.2 19.6 38.6 34.8 64.4 46 25.6 11 54.8 16.6 87.6 16.6 26.8 0 52.2-4 75.8-11.8s44.2-19.2 61.8-34.2c17.6-14.8 31.4-33.4 41.6-55.6s15.4-47.8 15.4-77c0-27.4-4.2-51.6-12.8-72.8-8.4-21-19.8-39.8-33.8-56.4s-30-31.6-48.2-45.2c-18.2-13.4-36.8-26.2-56-38.6-19.2-11.6-38.6-23.2-57.8-34.6s-37-23.6-53-36.4c-16-12.8-29.8-26.8-41.2-41.6s-18.8-32-22.4-51.2h318.8v-65.6h-405.6c3 36.8 9.4 68.2 19.8 94.2 10.2 26 23.2 48.6 39 67.8s33.6 36.2 53.4 50.8c19.8 14.6 40.6 28.4 62.2 41.2 26.2 16.4 49.4 31.4 69.2 45.2s36.4 27.6 49.4 41.6c13.2 14 23 29.2 29.8 45.6s10 35.4 10 57c0 17-3.2 32.2-9.6 46s-15 25.6-25.8 35.4c-10.8 10-23.6 17.6-38.2 22.8s-30 7.8-46.4 7.8c-21.6 0-40.2-4.6-55.6-13.6s-28.2-20.8-38.2-35.4c-10-14.6-17-31-21.4-49.4s-6.2-37-5.6-55.6h-74.4c-1.8 31.4 1.4 60.4 9.6 87.4zM776.2 299.6c3 0 5.8 0 8.8 0h15.8c15.8 0 30.8 2.2 45.2 6.6s26.8 10.8 37.6 19.2c10.8 8.4 19.4 19.2 25.8 32s9.6 27.4 9.6 43.8c0 33.2-10.6 58.2-31.6 74.8s-47.2 25-78.8 25c-19.8 0-37.2-3.6-52.2-11-14.8-7.4-27.2-17-36.8-29.4-9.6-12.2-16.8-26.6-21.4-43s-7-33.6-7-51.6h-74.4c1.2 29.8 6 57 14.4 81.4 8.4 24.6 20.6 45.6 36.4 63 15.8 17.6 35.4 31.2 59.2 41.2 23.6 10 51 14.8 81.8 14.8 26.8 0 51.8-3.4 74.8-10 23-6.8 43-16.8 60-30.2s30.2-30.6 39.8-51.6c9.6-21 14.4-45.8 14.4-74.4 0-28-8.2-52.8-24.6-74.4s-36.8-38-61.4-49v-1.8c38-8.2 66.2-26 84.6-53.4s27.6-59.8 27.6-97.2c0-31-5.6-58.2-17-81.8s-26.8-43.4-46-59.2c-19.2-15.8-42-27.6-67.8-35.4-26-7.8-53.6-11.8-82.8-11.8-31.6 0-60.2 4.4-85.8 13.2-25.8 8.8-47.6 21.8-65.6 39-18.2 17.2-32 38.4-41.6 63.6s-14.2 53.8-13.6 85.8h74.4c1.2-40.2 12.8-73.2 35-98.6s54.6-38.2 97.2-38.2c18 0 35.4 2.8 51.6 8.4 16.4 5.6 30.6 13.4 43 23.6 12.2 10.2 22 22.8 29.4 37.6 7.2 14.8 11 31.6 11 50.4 0 19.2-3.6 36.4-10.6 51.2s-16.4 27.4-28 37.6c-11.6 10.2-25.6 17.8-41.6 22.8s-33.4 7.4-52.2 7.4c-15.8 0-30.6-0.8-44.6-2.6v63c3-0.6 5.6-0.8 8-0.8z" />
<glyph unicode="&#xe617;" glyph-name="string" d="M470.8 113.2c-14-8.2-33.6-12.4-58.4-12.4-21 0-37.8 6-50.2 17.8s-18.6 31.2-18.6 58c-22.4-26.8-48.4-46.2-78-58s-61.8-17.8-96.2-17.8c-22.4 0-43.6 2.6-63.8 7.6-20.2 5.2-37.6 13-52.2 24-14.6 10.8-26.4 25-35 42.6s-13 38.8-13 63.8c0 28 4.8 51 14.4 69 9.6 17.8 22.2 32.4 37.8 43.6s33.6 19.6 53.6 25.4c20.2 5.8 40.8 10.6 61.8 14.4 22.4 4.4 43.6 7.8 63.8 10s37.8 5.4 53.2 9.6c15.4 4.2 27.4 10.2 36.4 18.2s13.4 19.6 13.4 35c0 17.8-3.4 32.2-10 43.2-6.8 10.8-15.4 19.2-25.8 25-10.6 5.8-22.4 9.6-35.4 11.4-13 2-26 2.8-38.8 2.8-34.4 0-63.2-6.6-86.2-19.6s-35.4-37.8-37.4-74.2h-81.4c0.8 30.4 7.2 56.2 18.8 77.4 11.4 21 26.8 38.2 46 51.2s41 22.6 65.6 28.2c24.6 5.8 50.8 8.6 79 8.6 22.4 0 44.6-1.6 66.6-4.8s42-9.8 59.8-19.6c17.8-9.8 32.2-23.8 43.2-41.6 10.8-17.8 16.2-41.2 16.2-69.8v-254.2c0-19.2 1.2-33.2 3.4-42 2.2-9 9.8-13.4 22.6-13.4 7 0 15.4 1.2 25 3.8v-63.2zM338.6 367c-10.2-7.6-23.6-13.2-40.2-16.6-16.6-3.6-34-6.4-52.2-8.6s-36.6-4.8-55-7.6c-18.6-2.8-35.2-7.4-49.8-13.8-14.8-6.4-26.6-15.4-36-27.2-9.2-11.8-13.8-27.8-13.8-48.2 0-13.4 2.8-24.6 8.2-33.8s12.4-16.6 21-22.4 18.6-9.8 30.2-12.4c11.4-2.6 23.6-3.8 36.4-3.8 26.8 0 49.8 3.6 69 11s34.8 16.6 47 27.6c12.2 11.2 21 23.2 26.8 36.2s8.6 25.2 8.6 36.8v82.8zM630.8 795.2v-255.8h2c13.4 27.4 34.4 47.4 63.2 59.8s60.4 18.6 94.8 18.6c38.4 0 71.6-7 100.2-21 28.4-14 52-33 70.8-57s33-51.6 42.6-82.8c9.6-31.2 14.4-64.6 14.4-99.6 0-35.2-4.6-68.4-13.8-99.6-9.2-31.4-23.4-58.6-42.2-82s-42.4-41.6-70.8-55c-28.4-13.4-61.4-20.2-99.2-20.2-12.2 0-25.8 1.2-40.8 3.8s-29.8 6.8-44.6 12.4c-14.6 5.8-28.6 13.6-41.6 23.4s-24.2 22.2-33 36.8h-2v-66.2h-81.4v684h81.4zM923.4 430.8c-6 22-15.4 41.6-27.8 59-12.4 17.2-28.4 31-48 41.2-19.4 10.2-42.4 15.4-68.4 15.4-27.4 0-50.8-5.4-70-16.2s-34.8-25-47-42.6c-12.2-17.6-21-37.6-26.4-59.8-5.4-22.4-8.2-45-8.2-68 0-24.2 2.8-47.8 8.6-70.4s14.8-42.6 27.4-59.8c12.4-17.2 28.6-31.2 48.4-41.6 19.8-10.6 43.8-15.8 71.8-15.8s51.6 5.4 70.4 16.2c18.8 10.8 34 25.2 45.6 43.2 11.4 17.8 19.8 38.4 25 61.4s7.6 46.6 7.6 70.8c0.2 22.4-2.8 45-9 67z" />
<glyph unicode="&#xe618;" glyph-name="symbol" d="M927.744 207.872l-415.744-239.957-415.744 239.957v480.256l415.744 239.957 415.744-239.957z" />
<glyph unicode="&#xe619;" glyph-name="assertion" d="M512 768c-55 0-108-8.6-157.6-25.8-46.8-16-88.4-38.8-123.6-67.4-66.4-53.8-102.8-123-102.8-194.8 0-40.2 11.2-79.4 33.2-116.2 22.8-38 57-72.6 99-100.2 30.4-20 50.8-52 56.2-87.8 1.8-12 3-24 3.4-36.2 7.4 6.2 14.8 12.8 21.8 20 24.2 24.2 56.8 37.4 90.6 37.4 5.4 0 10.8-0.4 16.2-1 21-2.6 42.4-4 63.6-4 55 0 108 8.6 157.6 25.8 46.8 16 88.4 38.8 123.6 67.4 66.4 53.8 102.8 123 102.8 194.8s-36.4 141-102.6 194.8c-35.4 28.6-77 51.4-123.6 67.4-49.8 17.2-102.8 25.8-157.8 25.8v0zM512 896v0c282.8 0 512-186.2 512-416s-229.2-416-512-416c-27.2 0-53.8 1.8-79.8 5-110-110-241.2-129.8-368.2-132.6v27c68.6 33.6 128 94.8 128 164.6 0 9.8-0.8 19.4-2.2 28.6-115.8 76.4-189.8 192.8-189.8 323.4 0 229.8 229.2 416 512 416v0zM579 302.2v-78.2h-134.2v78.2h134.2zM539.2 352.8h-54.4l-30.2 219v154.8h114.8v-154.8l-30.2-219z" />
<glyph unicode="&#xe61a;" glyph-name="attribute" d="M576 960h448v-448h-448v448zM576 384h448v-448h-448v448zM0 384h448v-448h-448v448zM0 960v-448h448v448h-448zM224 555c-100 0-181 81-181 181s81 181 181 181 181-81 181-181-81-181-181-181z" />
<glyph unicode="&#xe61b;" glyph-name="relationship" d="M976 192h-16v208c0 61.756-50.242 112-112 112h-272v128h16c26.4 0 48 21.6 48 48v160c0 26.4-21.6 48-48 48h-160c-26.4 0-48-21.6-48-48v-160c0-26.4 21.6-48 48-48h16v-128h-272c-61.756 0-112-50.244-112-112v-208h-16c-26.4 0-48-21.6-48-48v-160c0-26.4 21.6-48 48-48h160c26.4 0 48 21.6 48 48v160c0 26.4-21.6 48-48 48h-16v192h256v-192h-16c-26.4 0-48-21.6-48-48v-160c0-26.4 21.6-48 48-48h160c26.4 0 48 21.6 48 48v160c0 26.4-21.6 48-48 48h-16v192h256v-192h-16c-26.4 0-48-21.6-48-48v-160c0-26.4 21.6-48 48-48h160c26.4 0 48 21.6 48 48v160c0 26.4-21.6 48-48 48zM192 0h-128v128h128v-128zM576 0h-128v128h128v-128zM448 704v128h128v-128h-128zM960 0h-128v128h128v-128z" />
<glyph unicode="&#xe61c;" glyph-name="method" d="M191.999 471.159l407.29 407.29 407.29-407.29-407.29-407.29-407.29 407.29zM0 832h512l-64-64h-448zM256 580l64 60h-320v-64zM304 320l64-64h-160v64zM96 320h64v-64h-64v64zM0 320h64v-64h-64v64z" />
<glyph unicode="&#xe61d;" glyph-name="state" d="M961 288c0 96.4-99.6 179-270.6 210.6l22.6-121.6-119-1c-4.6 9.6-26 136-26 136s16-6-12-6l-109-263c0 0-104.6 4.8-113 3l-196 105 129 49-23 67.8c-121.2-40.2-181-101.8-181-179.8 0-123.8 201-224 449-224s449 100.2 449 224zM410.6 425.4l103.6 37.6-90-192.2h-67.2l-163 76 105.8 38.4c-41.8 199-191.2 309.4-259.8 231 84 162.8 295.6 34.2 370.6-190.8zM782 768l-6.4 81.6 179.2-110.4-161.6-111.2-5.2 76c-193.4 3.2-118.2-241.2-116-304h-44c-38.4 112.2-70 358 154 368z" />
<glyph unicode="&#xe61e;" glyph-name="array" d="M131.6 224.4l153.4 465h-116.8c-45.8 0-80-6-103-17.8-16-8.4-29.4-24-39.8-47h-15.8l40.4 175h335.8l-189-575.2h-65.2zM448.6 86.8v18.2c32.2 13.8 55.4 31.8 70 53.8s21.8 44.6 21.8 67.6c0 4.8-1 8.4-3 10.8-2 2.2-3.8 3.4-5.8 3.4-1.6 0-4.2-1-7.4-3-8-4.8-18-7-30-7-16.4 0-30.6 6.4-42.6 19.2s-18 27.8-18 44.8c0 18.2 7 34.4 20.8 48.2s30.6 20.8 50.2 20.8c23.8 0 44.2-9.2 61-27.6s25.4-43.8 25.4-75.8c0-39.6-12-74.8-36-105.6-23.8-30.8-59.2-53.4-106.4-67.8zM909 554.4c39.6-29 67.2-56.2 82.4-81.2 15.4-25 23-53.8 23-86.2 0-45.4-17.2-83.8-51.4-115.4-34.2-31.4-80.6-47.2-139.4-47.2-55.6 0-98.8 13.8-129.2 41.2s-45.8 61-45.8 100.6c0 30.2 8.8 56.6 26.4 79.4s46.8 43.4 87.8 62.4c-44.6 34-73.2 62-85.8 83.6s-19 46.6-19 75.2c0 37.6 16 70.8 48 99.6s75.8 43 131.6 43c53.8 0 95-12.6 124-38s43.4-55.8 43.4-91.2c0-26.6-7.8-50-23.4-70.4-15.2-20.8-39.6-39-72.6-55.4zM794.4 487.8c-8.6-7.8-14.6-14.8-18.2-21.2-5.6-9.8-10.6-23.8-15-42.4s-6.6-38-6.6-58.2c0-26 3.4-47.8 10-65.4s16.2-30.2 28.4-38c12.4-7.8 25-11.6 38-11.6 20.2 0 37.2 7.4 51.2 22.2 13.8 14.8 20.8 35.2 20.8 60.8-0.2 53.8-36.4 105.2-108.6 153.8zM877.4 575.6c10.2 13.8 17.8 29.4 22.8 46.6s7.4 36 7.4 56.6c0 36-7.8 63.6-23.2 82.6-11.6 14.6-27.8 22-48.2 22-18.6 0-34.4-6.8-47.4-20.2s-19.6-30.2-19.6-50c0-20.2 7.2-41.2 21.8-63 14.8-21.8 43.6-46.6 86.4-74.6z" />
<glyph unicode="&#xe61f;" glyph-name="boolean" d="M442.8 896v-120h-11.8c-7 27.6-14.8 47.6-23.2 59.6s-20.2 21.8-35 29c-8.2 4-22.8 5.8-43.4 5.8h-33v-342c0-22.6 1.2-36.8 3.8-42.4s7.4-10.6 14.8-14.8c7.2-4.2 17.2-6.4 30-6.4h14.8v-12h-232.6v12h14.8c12.8 0 23.2 2.2 31 6.8 5.6 3 10.2 8.2 13.4 15.6 2.4 5.2 3.6 19 3.6 41.2v342h-32c-29.8 0-51.6-6.4-65-19-19-17.6-31-42.6-36-75.4h-12.4v120h398.2zM808.6 377.8v-182h12.8c19.6 0 35.6 3 48 8.8s23 15.8 31.6 29.8c8.6 14 14.2 32.8 16.8 56.6h11.4v-222.6h-11.4c-4.2 42-15.4 69.8-33.8 83.2s-39.2 20.2-62.6 20.2h-12.8v-135.8c0-22.6 1.2-36.8 3.8-42.4s7.4-10.6 14.8-14.8c7.2-4.2 17.2-6.4 29.6-6.4h14.8v-12h-232v12h14.8c12.8 0 23.2 2.2 31 6.8 5.6 3 10 8.2 13 15.6 2.4 5.2 3.6 19 3.6 41.2v291.6c0 22.6-1.2 36.8-3.6 42.4s-7.2 10.6-14.6 14.8c-7.4 4.2-17.2 6.4-29.6 6.4h-14.8v12h374v-127.2h-13.4c-3 29.8-10.8 52-23.4 66.4s-30.6 24.6-54.4 30.4c-13 3.2-37.2 5-72.6 5h-41zM816.662 824.978l-573.868-789.227-49.499 35.992 573.868 789.227 49.499-35.992z" />
<glyph unicode="&#xe620;" glyph-name="time" d="M512 960c-282.77 0-512-229.23-512-512s229.23-512 512-512 512 229.23 512 512-229.23 512-512 512zM658.744 210.744l-210.744 210.746v282.51h128v-229.49l173.256-173.254-90.512-90.512z" />
<glyph unicode="&#xe621;" glyph-name="password" d="M704 960c-176.73 0-320-143.268-320-320 0-20.026 1.858-39.616 5.376-58.624l-389.376-389.376v-192c0-35.346 28.654-64 64-64h64v64h128v128h128v128h128l83.042 83.042c34.010-12.316 70.696-19.042 108.958-19.042 176.73 0 320 143.268 320 320s-143.27 320-320 320zM799.874 639.874c-53.020 0-96 42.98-96 96s42.98 96 96 96 96-42.98 96-96-42.98-96-96-96z" />
<glyph unicode="&#xe622;" glyph-name="ae_class" d="M832 896h-640l-192-192v-672c0-17.6 14.4-32 32-32h960c17.6 0 32 14.4 32 32v672l-192 192zM76 702l142.6 130h587l144.4-132v-326l-874-2v330zM318 482c0-87.261-49.696-158-111-158s-111 70.739-111 158c0 87.261 49.696 158 111 158s111-70.739 111-158zM606 480c0-87.261-49.696-158-111-158s-111 70.739-111 158c0 87.261 49.696 158 111 158s111-70.739 111-158zM894 482c0-87.261-49.696-158-111-158s-111 70.739-111 158c0 87.261 49.696 158 111 158s111-70.739 111-158zM751 648c0 0-37.6-1.4-68.4-62.6-15.6-31.4-14.2-67-22.8-86.4-3.4-7.8-1-9-20-9-14 0-15.8 0-18.8 11.2-4.6 17.4-0.2 52.4-29.2 100.6-30.6 51-62.8 46.2-62.8 46.2 0 87.2 49.6 158 111 158s111-70.8 111-158zM459 648c0 0-37.6-1.4-68.4-62.6-15.6-31.4-14.2-67-22.8-86.4-3.4-7.8-1-9-20-9-14 0-15.8 0-18.8 11.2-4.6 17.4-0.2 52.4-29.2 100.6-30.6 51-62.8 46.2-62.8 46.2 0 87.2 49.6 158 111 158s111-70.8 111-158z" />
<glyph unicode="&#xe623;" glyph-name="ae_namespace" d="M832 0l192 512h-832l-192-512zM128 576l-128-576v832h288l128-128h416v-128z" />
<glyph unicode="&#xe624;" glyph-name="memory" d="M896 64h-160v-128h-64v128h-64v-128h-64v128h-64v-128h-64v128h-64v-128h-64l0.6 128h-160.6l-0.2 160h-127.8v64h128l-0.4 64h-127.6v66h128v62h-128v64h128v64h-128v66h127.2l0.2 158h160.6v128h64v-128h64v128h64v-128h64v128h64v-128h64v128h64v-128h160v-160h128v-64h-128v-64h128v-64h-128v-64h128v-64h-128v-64h128v-64h-128v-160zM816 752h-608v-610h608v610z" />
<glyph unicode="&#xe625;" glyph-name="action" d="M119.2 135l87.8-194.2c0 0 125 47.6 198.2 97 103.2 68.2 129 125 129 125s80.6 5.2 134.2-51.6c53.8-56.8 108.4-124 108.4-124l121.8 80.6c0 0-43.4 139.4-111.6 194.2s-177.6 113.6-177.6 113.6 58.8 5.2 141.4 15.4c114.6 14.4 132.2 46.4 132.2 46.4l-49 143.8c0 0-61-20.2-115.6-25.8-44.2-6-84.6 7.2-84.6 7.2l1 25.8c0 0 135.2 29 138.4 173.6 2 136.4-108.4 177.6-185.8 177.6-113.6 0-188-82.6-185.8-183.8 2-101.2 81.6-158 81.6-158s-69.6-46.6-98.6-111.8c-50.6-114.6-10.2-224-10.2-224s-14.4-19.6-84.6-76.4c-67.2-52.8-170.6-50.6-170.6-50.6z" />
<glyph unicode="&#xe626;" glyph-name="policy" d="M512 941.8c0 0 59-96.6 192-173.8s243.2-78.2 243.2-78.2-21-243.2-99-401.8c-126-256-335.2-333.2-335.2-333.2s-213.8 83.8-330.8 333.2c-72 153.4-118.2 401.8-118.2 401.8s104.4-2.4 256 78.2 192 173.8 192 173.8zM358.4 712.6c-125.4-66.8-212-64.8-212-64.8s38.2-205.6 97.8-332.6c96.8-206.4 273.8-275.8 273.8-275.8s173.2 63.8 277.4 275.8c64.6 131.2 82 332.6 82 332.6s-91.2 0.8-201.2 64.8-159 143.8-159 143.8-33.4-77-158.8-143.8z" />
<glyph unicode="&#xe627;" glyph-name="policy_profile" d="M810.8 578.4c-101 58.6-145.8 132-145.8 132s-13-29.8-53.4-67.4c-4.2-24.4-9.6-50.8-16.2-77.2 57 41.6 73.6 80 73.6 80s37-60.8 120.6-109.2 152.8-49.2 152.8-49.2-13.2-152.8-62.2-252.6c-79.2-160.8-210.6-209.4-210.6-209.4s-134.2 52.6-207.8 209.4c-7 15-13.8 31.6-20 48.6-14.4-14.2-28.4-26.4-41.4-36.4 4.6-11.4 9.4-22.4 14.2-32.8 88.8-189.4 251.2-253 251.2-253s158.8 58.6 254.4 253c59.2 120.4 75.2 305 75.2 305s-83.6 0.6-184.6 59.2zM332.4 266.4c0 0-121.6 52.6-188.2 209.4-41 96.4-67.2 252.6-67.2 252.6s59.4-1.6 145.6 49.2c86.2 50.6 109.2 109.2 109.2 109.2s33.6-60.8 109.2-109.2c75.6-48.4 138.4-49.2 138.4-49.2s-4.4-57.6-18.2-125c20.2 13.6 37 27 50.4 39.6 11.6 66 15.6 117.2 15.6 117.2s-75.8 0.8-167.2 59.4c-91.4 58.6-132 132-132 132s-27.8-70.8-132-132-176-59.4-176-59.4 32-188.6 81.4-305c80.6-189.4 227.4-253 227.4-253s30.4 12.4 71.6 44.6c-6.4 16-12.4 32.6-18.2 49.6-29.2-21.4-49.8-30-49.8-30zM544.2 534.2c-6-20.4-13-40.2-21-58.2-28.6-64-64.6-110.2-97.6-142.8 5-16.8 10.6-33.6 16.4-49.8 39.8 39.2 83 94.8 117.2 171.8 15 33.6 27 72.2 36.4 110.6-13.4-9.8-29-19.6-47-29.2-1.6-1-3-1.8-4.4-2.4zM544.2 534.2c1.4 0.8 2.8 1.4 4.4 2.2 18.2 9.6 33.6 19.6 47 29.2 6.6 26.6 11.8 53 16.2 77.2-13.6-12.6-30.2-26-50.4-39.6-4.8-22.4-10.4-46-17.2-69zM425.4 333.2c-15.4-15-30-27.2-43.2-36.8 5.6-17 11.8-33.6 18.2-49.6 13 10.2 27 22.2 41.4 36.4-5.8 16.4-11.2 33.2-16.4 50z" />
<glyph unicode="&#xe628;" glyph-name="tenant" d="M1024 448l-192 192v288h-128v-160l-192 192-512-512v-32h128v-320h106v386l272 302 294-310v-378h96v320h128v32zM595.4 128.2c-16.6 2.6-17 48-17 48s49 48 59.6 112.6c28.8 0 46.4 68.6 17.8 92.8 1.2 25.4 36.8 199.6-143.8 199.6s-145-174.2-143.8-199.6c-28.6-24.2-11-92.8 17.6-92.8 10.6-64.6 59.6-112.6 59.6-112.6s-0.4-45.4-17-48c-53.6-8.4-254-96.2-254-192.2h675c0 96-200.4 183.6-254 192.2v0 0z" />
<glyph unicode="&#xe629;" glyph-name="project" d="M853 932.8c29.4 29.8 79.2 28.2 111.4-3.6 13.2-13 21.2-28.8 24.4-45.2l2-44.6-156.8-0.6-1.4 50.2c1.8 16.2 8.4 31.8 20.4 43.8zM838.6 208.8l77.6-144.8 78.2 146.2-4.4 577.2-155.6-1.4zM0 847.6v-911.6h910l-910 911.6zM129 515l456-456.8h-456v456.8z" />
<glyph unicode="&#xe62a;" glyph-name="exists" d="M468.8 778.4h-166.4v166.4c0 8.4-6.8 15.2-15.2 15.2h-90.8c-8.4 0-15.2-6.8-15.2-15.2v-166.4h-166.4c-8.4 0-15.2-6.8-15.2-15.2v-90.8c0-8.4 6.8-15.2 15.2-15.2h166.4v-166.4c0-8.4 6.8-15.2 15.2-15.2h90.8c8.4 0 15.2 6.8 15.2 15.2v166.4h166.4c8.4 0 15.2 6.8 15.2 15.2v90.8c0 8.6-6.8 15.2-15.2 15.2zM722.8 252.8h-166.4c-8.4 0-15.2-6.8-15.2-15.2v-90.8c0-8.4 6.8-15.2 15.2-15.2h453.8c8.4 0 15.2 6.8 15.2 15.2v90.8c0 8.4-6.8 15.2-15.2 15.2h-287.4zM99.2 104.6l72.8-75.4c1.6-1.6 4-1.6 5.6-0.2l747 720.6c1.6 1.6 1.6 4 0.2 5.6l-72.8 75.6c-1.6 1.6-4 1.6-5.6 0.2l-747-720.8c-1.6-1.4-1.8-4-0.2-5.6z" />
<glyph unicode="&#xe62b;" glyph-name="view_expanded" d="M606 960h384v-1024h-384v1024zM700 32h200v832h-200v-832zM34 960h384v-1024h-384v1024zM128 32h200v832h-200v-832z" />
<glyph unicode="&#xe62c;" glyph-name="cloud_network" d="M979.288 437.545v0c-29.871 37.152-67.862 61.048-113.695 71.689 14.469 22.403 21.749 46.953 21.749 73.65 0 37.805-13.255 70.009-40.139 96.613-26.23 26.697-58.434 40.139-96.239 40.139-34.164 0-63.568-11.108-88.585-33.044-20.909 50.593-54.42 91.292-100.066 122.656s-96.613 46.953-152.807 46.953c-75.33 0-139.738-26.697-193.132-79.997-53.3-53.3-79.997-117.802-79.997-193.132 0-5.321 0.467-12.975 1.027-23.056-41.165-19.229-74.49-48.26-99.88-87.278-24.923-38.832-37.525-81.677-37.525-128.63 0-65.715 23.43-122.003 70.196-168.769s103.053-70.196 168.769-70.196h580.329c56.567 0 104.734 20.069 144.872 59.928 40.139 40.139 59.928 88.305 59.928 144.872 0 47.98-14.935 90.452-44.806 127.603zM267.435 639.358h460.193v-115.095h-460.193v115.095zM765.62 208.009c0-8.028-2.8-14.749-8.401-20.349s-12.322-8.401-20.349-8.401h-95.772c-8.028 0-14.749 2.8-20.349 8.401s-8.401 12.322-8.401 20.349v95.679c0 8.028 2.8 14.749 8.401 20.349s12.322 8.401 20.349 8.401h28.75v76.543h-153.273v-76.543h28.75c8.028 0 14.749-2.8 20.349-8.401s8.401-12.322 8.401-20.349v-95.772c0-8.028-2.8-14.749-8.401-20.349s-12.322-8.401-20.349-8.401h-95.679c-8.028 0-14.749 2.8-20.349 8.401s-8.401 12.322-8.401 20.349v95.772c0 8.028 2.8 14.749 8.401 20.349s12.322 8.401 20.349 8.401h28.75v76.543h-153.367v-76.543h28.75c8.028 0 14.749-2.8 20.349-8.401s8.401-12.322 8.401-20.349v-95.772c0-8.028-2.8-14.749-8.401-20.349s-12.322-8.401-20.349-8.401h-95.772c-8.028 0-14.749 2.8-20.349 8.401s-8.401 12.322-8.401 20.349v95.772c0 8.028 2.8 14.749 8.401 20.349s12.322 8.401 20.349 8.401h28.75v76.543c0 10.455 3.827 19.416 11.388 26.977 7.654 7.561 16.522 11.388 26.977 11.388h153.273v57.968h38.365v-57.874h152.993c10.455 0 19.416-3.827 26.977-11.388 7.561-7.654 11.388-16.522 11.388-26.977v-76.543h28.75c8.028 0 14.749-2.8 20.349-8.401v0c5.601-5.601 8.401-12.508 8.401-20.536v-95.586zM573.701 601.273h114.815v-38.365h-114.815v38.365z" />
<glyph unicode="&#xe62d;" glyph-name="network_interface" d="M994.655 870.025h-954.206v-238.551h954.206c0 0 0 238.551 0 238.551zM913.404 711.491h-238.023v79.488h238.023v-79.488zM994.655 572.167h-954.206v-238.551h954.206c0 0 0 238.551 0 238.551zM913.404 413.632h-238.023v79.488h238.023v-79.488zM477.808 274.748h79.488v-120.025h263.402v-79.752h-606.645v79.576h263.667v120.201z" />
<glyph unicode="&#xe62e;" glyph-name="compare" d="M696.4 632.4c-10.8 182.7-162.4 327.6-347.9 327.6-192.5 0-348.5-156-348.5-348.5 0-185.5 144.9-337.1 327.6-347.9 10.8-182.7 162.4-327.6 347.9-327.6 192.5 0 348.5 156 348.5 348.5 0 185.5-144.9 337.1-327.6 347.9zM73.7 611.5c0 151.7 123 274.8 274.8 274.8 145.9 0 265.1-113.7 274.2-257.2-150.2-22.9-268.9-141.6-291.7-291.8-143.6 9.1-257.3 128.3-257.3 274.2zM675.5 9.7c-145.9 0-265.1 113.7-274.2 257.2 150.2 22.8 268.9 141.5 291.7 291.7 143.6-9 257.2-128.3 257.2-274.2 0.1-151.6-123-274.7-274.7-274.7z" />
<glyph unicode="&#xe62f;" glyph-name="compare_diff" d="M696.32 632.32c-10.24 182.272-162.816 327.68-348.16 327.68-192.512 0-348.16-155.648-348.16-348.16 0-185.344 145.408-337.92 327.68-348.16 11.264-182.272 162.816-327.68 348.16-327.68 192.512 0 348.16 155.648 348.16 348.16 0 185.344-145.408 337.92-327.68 348.16zM332.8 268.8c0 182.272 141.312 358.4 358.4 358.4 0-179.2-179.2-353.28-358.4-358.4z" />
<glyph unicode="&#xe630;" glyph-name="compare_all" d="M696.4 632.4c-10.8 182.7-162.4 327.6-347.9 327.6-192.5 0-348.5-156-348.5-348.5 0-185.5 144.9-337.1 327.6-347.9 10.8-182.7 162.4-327.6 347.9-327.6 192.5 0 348.5 156 348.5 348.5 0 185.5-144.9 337.1-327.6 347.9z" />
<glyph unicode="&#xe631;" glyph-name="clone" d="M950.857 27.429v621.714q0 7.429-5.429 12.857t-12.857 5.429h-621.714q-7.429 0-12.857-5.429t-5.429-12.857v-621.714q0-7.429 5.429-12.857t12.857-5.429h621.714q7.429 0 12.857 5.429t5.429 12.857zM1024 649.143v-621.714q0-37.714-26.857-64.571t-64.571-26.857h-621.714q-37.714 0-64.571 26.857t-26.857 64.571v621.714q0 37.714 26.857 64.571t64.571 26.857h621.714q37.714 0 64.571-26.857t26.857-64.571zM804.571 868.571v-91.429h-73.143v91.429q0 7.429-5.429 12.857t-12.857 5.429h-621.714q-7.429 0-12.857-5.429t-5.429-12.857v-621.714q0-7.429 5.429-12.857t12.857-5.429h91.429v-73.143h-91.429q-37.714 0-64.571 26.857t-26.857 64.571v621.714q0 37.714 26.857 64.571t64.571 26.857h621.714q37.714 0 64.571-26.857t26.857-64.571z" />
<glyph unicode="&#xe632;" glyph-name="migrate" d="M0 198.14c206.032-113.728 520.304-132.89 509.824 313.86h-253.824l384 384 384-384h-248.372c13.942-534.96-472.214-594.572-775.628-313.86z" />
<glyph unicode="&#xe633;" glyph-name="monitoring" d="M128 64h896v-128h-1024v1024h128zM146.4 514.2l236.6 0.2 60 240.6h81l74.4-318.6 64.2 209.6 81.4 0.6 52.6-134.6 226.8 2.4 0.4-84h-277.4l-41 104.2-60-289h-75l-89.6 333.2-32.6-148.4-301.8-0.2z" />
<glyph unicode="&#xe634;" glyph-name="timeline" d="M128 64h896v-128h-1024v1024h128zM174.080 788.992l381.952-2.048c1.024 2.048 2.048 4.096 3.072 5.12 26.624 46.080 84.992 62.464 131.072 35.84s62.464-84.992 35.84-131.072c-26.624-46.080-84.992-62.464-131.072-35.84-17.408 10.24-30.72 24.576-38.912 40.96l-381.952 2.048v84.992zM171.008 524.8h603.136c1.024 2.048 2.048 4.096 3.072 5.12 26.624 46.080 84.992 62.464 131.072 35.84s62.464-84.992 35.84-131.072c-26.624-46.080-84.992-62.464-131.072-35.84-17.408 10.24-30.72 24.576-38.912 40.96h-603.136v84.992zM174.080 246.272l103.424-2.048c1.024 2.048 2.048 4.096 3.072 5.12 26.624 46.080 84.992 62.464 131.072 35.84s62.464-84.992 35.84-131.072c-26.624-46.080-84.992-62.464-131.072-35.84-17.408 10.24-30.72 24.576-38.912 40.96l-103.424 3.072v83.968z" />
<glyph unicode="&#xe635;" glyph-name="drift" d="M237.568 709.12l-229.376-440.32h460.8zM1009.664 646.656l-343.040-91.136 6.144-192.512 166.912-183.296zM612.352 762.368l-269.312-199.68 112.64-198.656 189.44-97.28z" />
</font>
</defs>
</svg>
