<?xml version="1.0" encoding="UTF-8" standalone="no"?>
<!-- Created with Inkscape (http://www.inkscape.org/) -->

<svg
   xmlns:dc="http://purl.org/dc/elements/1.1/"
   xmlns:cc="http://creativecommons.org/ns#"
   xmlns:rdf="http://www.w3.org/1999/02/22-rdf-syntax-ns#"
   xmlns:svg="http://www.w3.org/2000/svg"
   xmlns="http://www.w3.org/2000/svg"
   version="1.1"
   width="99.288002"
   height="16"
   viewBox="6.981 13.125 99.288 16"
   id="Layer_2"
   xml:space="preserve"><metadata
     id="metadata13404"><rdf:RDF><cc:Work
         rdf:about=""><dc:format>image/svg+xml</dc:format><dc:type
           rdf:resource="http://purl.org/dc/dcmitype/StillImage" /><dc:title></dc:title></cc:Work></rdf:RDF></metadata><defs
     id="defs13402" /><rect
     width="116.851"
     height="16"
     x="5.8649998"
     y="13.25"
     id="rect13360"
     style="display:none" /><text
     x="38.384392"
     y="21.262743"
     transform="scale(1.0087121,0.99136319)"
     id="text13382"
     style="font-size:1.91140842px;fill:#ffffff;display:none;font-family:Trebuchet-BoldItalic">®</text>
<g
     transform="matrix(0.3495687,0,0,0.35772855,-445.22402,-252.49504)"
     id="g13332"
     style="fill:#ffffff"><path
       d="M 8.0078125,0 C 4.1750714,0 1.078125,3.0989906 1.078125,6.9316406 c 0,1.2446271 0.3318082,2.4091349 0.9042969,3.4179684 L 3.703125,8.6289062 C 3.4944674,8.1019256 3.3710938,7.531809 3.3710938,6.9316406 c 0,-2.5559705 2.0808122,-4.6367187 4.6367187,-4.6367187 2.5559065,0 4.6386715,2.0807482 4.6386715,4.6367187 0,2.5559634 -2.082765,4.6367184 -4.6386715,4.6367184 -0.5500813,0 -1.0705215,-0.112308 -1.5605469,-0.289062 l -1.7460937,1.746094 c 0.9826376,0.533838 2.1079346,0.83789 3.3066406,0.83789 1.3904248,0 2.6812735,-0.412472 3.7656255,-1.115234 l 1.433593,1.433594 1.9375,-1.939453 -1.408203,-1.408204 C 14.494184,9.7226385 14.939453,8.3804113 14.939453,6.9316406 14.939453,3.1588994 11.9361,0.09496978 8.1875,0 8.1387352,-0.00178864 8.0782506,0 8.0078125,0 Z"
       transform="matrix(2.860668,0,0,2.7954157,1293.6084,742.51843)"
       id="path19-2"
       style="color:#000000;color-interpolation:sRGB;color-interpolation-filters:linearRGB;fill:#ef2929;fill-opacity:1;fill-rule:nonzero;stroke:none;stroke-width:0.3618792;marker:none;visibility:visible;display:inline;overflow:visible;enable-background:accumulate;clip-rule:nonzero" /><g
       transform="matrix(1.023342,0,0,0.99999945,-764.64244,37.165107)"
       id="text7450-0-0-9-4-9"
       style="font-size:40px;font-style:italic;font-variant:normal;font-weight:900;font-stretch:normal;text-align:start;line-height:125%;letter-spacing:-1px;word-spacing:0px;writing-mode:lr-tb;text-anchor:start;fill:#ffffff;fill-opacity:1;stroke:none;font-family:Lato;-inkscape-font-specification:'Lato, Heavy Italic'"><path
         d="m 2097.0024,740.08038 -4,0 -2.64,-21.16 -7.6,14.52 -7.76,-14.52 -2.64,21.16 -4,0 3.76,-28 3.24,0 7.36,13.88 7.28,-13.88 3.28,0 3.72,28 z"
         id="path13460"
         style="font-weight:normal;fill:#ffffff;font-family:Cabin;-inkscape-font-specification:Cabin" /><path
         d="m 2116.6456,737.60038 -0.56,2.88 -0.28,0 q -2.4,0 -3.4,-0.64 -0.96,-0.68 -1.64,-2.24 -2.48,2.88 -6,2.88 -2.72,0 -4.4,-1.6 -1.64,-1.6 -1.64,-4.08 0,-1.96 1.08,-3.4 1.12,-1.44 2.92,-2.16 1.84,-0.72 3.72,-1.04 1.92,-0.36 4,-0.4 0,-2.64 -1.04,-3.56 -1,-0.96 -3.24,-0.96 -2.6,0 -5.16,1.76 l -0.52,-2.92 q 2.64,-2.04 6.64,-2.04 3.76,0 5.32,2.08 1.6,2.08 1.6,7.32 l 0,4 q 0,2.32 0.4,3.24 0.4,0.88 1.84,0.88 l 0.36,0 z m -6.2,-2.64 0,-4.68 q -4.32,0.16 -6.2,1.16 -1.84,0.96 -1.84,3.16 0,3 3.04,3 1.44,0 2.76,-0.72 1.36,-0.72 2.24,-1.92 z"
         id="path13462"
         style="font-weight:normal;fill:#ffffff;font-family:Cabin;-inkscape-font-specification:Cabin" /><path
         d="m 2136.4579,740.08038 -3.6,0 0,-10.8 q 0,-3.16 -1.2,-4.56 -1.16,-1.44 -3.92,-1.44 -3.92,0 -5.36,2.56 l 0,14.24 -3.6,0 0,-19.6 2.8,0 0.4,2.08 q 2.76,-2.48 6.48,-2.48 8,0 8,9.2 l 0,10.8 z"
         id="path13464"
         style="font-weight:normal;fill:#ffffff;font-family:Cabin;-inkscape-font-specification:Cabin" /><path
         d="m 2156.7384,737.60038 -0.56,2.88 -0.28,0 q -2.4,0 -3.4,-0.64 -0.96,-0.68 -1.64,-2.24 -2.48,2.88 -6,2.88 -2.72,0 -4.4,-1.6 -1.64,-1.6 -1.64,-4.08 0,-1.96 1.08,-3.4 1.12,-1.44 2.92,-2.16 1.84,-0.72 3.72,-1.04 1.92,-0.36 4,-0.4 0,-2.64 -1.04,-3.56 -1,-0.96 -3.24,-0.96 -2.6,0 -5.16,1.76 l -0.52,-2.92 q 2.64,-2.04 6.64,-2.04 3.76,0 5.32,2.08 1.6,2.08 1.6,7.32 l 0,4 q 0,2.32 0.4,3.24 0.4,0.88 1.84,0.88 l 0.36,0 z m -6.2,-2.64 0,-4.68 q -4.32,0.16 -6.2,1.16 -1.84,0.96 -1.84,3.16 0,3 3.04,3 1.44,0 2.76,-0.72 1.36,-0.72 2.24,-1.92 z"
         id="path13466"
         style="font-weight:normal;fill:#ffffff;font-family:Cabin;-inkscape-font-specification:Cabin" /><path
         d="m 2166.8075,750.08038 q -4.64,0 -6.92,-1.8 -2.24,-1.8 -2.24,-4.12 0,-3.16 3.48,-4.4 -2,-0.96 -2,-2.48 0,-0.68 0.52,-1.48 0.56,-0.84 1.8,-1.44 -3.4,-2.48 -3.4,-6.4 0,-3.4 2.12,-5.64 2.12,-2.24 5.88,-2.24 2.68,0 5,1.44 2.12,-1.12 4.76,-1.12 l 0.32,0 -0.44,2.4 -0.92,0 q -1.16,0 -2.32,0.28 1.8,2.16 1.8,4.68 0,3.16 -2.16,5.48 -2.12,2.32 -5.76,2.32 -1.56,0 -2.8,-0.36 -0.96,0.56 -0.96,1.2 0,0.72 1.12,1.08 1.16,0.36 4.96,1 1.16,0.2 2.04,0.4 0.88,0.2 2.08,0.64 1.2,0.44 1.96,0.96 0.8,0.56 1.36,1.44 0.56,0.92 0.56,2 0,2.52 -2.64,4.32 -2.6,1.84 -7.2,1.84 z m -0.72,-27.12 q -2.2,0 -3.4,1.36 -1.2,1.32 -1.2,3.52 0,2.28 1.28,3.64 1.32,1.32 3.4,1.32 2.16,0 3.4,-1.44 1.24,-1.44 1.24,-3.64 0,-2.24 -1.32,-3.48 -1.28,-1.28 -3.4,-1.28 z m 1.68,18.16 q -0.68,0 -3.56,-0.48 -1.36,0.4 -2.24,1.4 -0.88,1 -0.88,2.04 0,1.4 1.56,2.28 1.56,0.92 4.32,0.92 2.84,0 4.44,-0.96 1.6,-0.92 1.6,-2.16 0,-2.08 -5.24,-3.04 z"
         id="path13468"
         style="font-weight:normal;fill:#ffffff;font-family:Cabin;-inkscape-font-specification:Cabin" /><path
         d="m 2194.2958,730.28038 -14.2,0 q 0.68,7 7.36,7 3.08,0 5.64,-1.16 l 0.48,2.84 q -3.4,1.52 -6.56,1.52 -5,0 -7.8,-2.96 -2.8,-2.96 -2.8,-7.4 0,-4.28 2.6,-7.16 2.6,-2.88 7,-2.88 3.76,0 6.08,2.2 2.36,2.2 2.36,6.08 0,1 -0.16,1.92 z m -8.36,-7 q -4.36,0 -5.52,4.52 l 10.32,0 q 0,-2.12 -1.2,-3.32 -1.2,-1.2 -3.6,-1.2 z"
         id="path13470"
         style="font-weight:normal;fill:#ffffff;font-family:Cabin;-inkscape-font-specification:Cabin" /><path
         d="m 2206.2196,740.08038 -5.12,0 0,-28 5.12,0 0,28 z"
         id="path13472"
         style="font-weight:bold;fill:#ffffff;font-family:Cabin;-inkscape-font-specification:Cabin Bold" /><path
         d="m 2236.7393,736.92038 -2.96,3.56 -2.76,-2.28 q -3.36,2.44 -8.08,2.44 -6.08,0 -9.96,-4 -3.84,-4.04 -3.84,-10.56 0,-6.52 3.84,-10.52 3.88,-4.04 9.96,-4.04 6.08,0 9.92,4.04 3.88,4 3.88,10.52 0,5.04 -2.48,8.8 l 2.48,2.04 z m -7.72,-17.84 q -2.12,-2.64 -6.08,-2.64 -3.96,0 -6.08,2.64 -2.12,2.64 -2.12,7 0,4.36 2.12,7 2.12,2.64 6.08,2.64 2.28,0 4,-0.92 l -3.36,-2.84 2.96,-3.56 3.52,2.96 q 1.08,-2.24 1.08,-5.28 0,-4.36 -2.12,-7 z"
         id="path13474"
         style="font-weight:bold;fill:#ffffff;font-family:Cabin;-inkscape-font-specification:Cabin Bold" /></g><path
       d="m 1316.5181,758.68637 c -1.8263,0 -3.2805,1.42245 -3.2805,3.20718 0,1.78471 1.4542,3.20568 3.2805,3.20568 1.8263,0 3.2819,-1.42097 3.2819,-3.20568 0,-1.78472 -1.4556,-3.20718 -3.2819,-3.20718 z m -7.2756,5.85471 -12.7399,12.44963 4.8198,4.71152 12.7415,-12.45114 -4.8214,-4.71001 z"
       id="rect7438-8-73-8-1-8-2"
       style="color:#000000;color-interpolation:sRGB;color-interpolation-filters:linearRGB;fill:#ffffff;fill-opacity:1;fill-rule:nonzero;stroke:#ffffff;stroke-width:1.01160336;stroke-miterlimit:4;stroke-opacity:1;stroke-dasharray:none;marker:none;visibility:visible;display:inline;overflow:visible;enable-background:accumulate;clip-rule:nonzero" /></g><g
     id="layer1" /><g
     id="layer2" /></svg>