<?xml version="1.0" encoding="utf-8"?>
<!-- Generator: Adobe Illustrator 18.1.0, SVG Export Plug-In . SVG Version: 6.00 Build 0)  -->
<svg version="1.1"
	 id="Layer_2" xmlns:dc="http://purl.org/dc/elements/1.1/" xmlns:cc="http://creativecommons.org/ns#" xmlns:rdf="http://www.w3.org/1999/02/22-rdf-syntax-ns#" xmlns:svg="http://www.w3.org/2000/svg"
	 xmlns="http://www.w3.org/2000/svg" xmlns:xlink="http://www.w3.org/1999/xlink" x="0px" y="0px" width="60px" height="14px" viewBox="-253.3 389.5 60.7 14"
	 enable-background="new -253.3 389.5 60.7 14" xml:space="preserve">
<path id="path13460" fill="#FFFFFF" d="M-243,399.9h-1.4l-1-7.7l-2.7,5.3l-2.8-5.3l-1,7.7h-1.4l1.4-10.2h1.2l2.7,5l2.6-5h1.2
	L-243,399.9L-243,399.9z"/>
<path id="path13462" fill="#FFFFFF" d="M-235.9,399l-0.2,1h-0.1c-0.6,0-1-0.1-1.2-0.2c-0.2-0.2-0.4-0.4-0.6-0.8
	c-0.6,0.7-1.3,1-2.2,1c-0.7,0-1.2-0.2-1.6-0.6c-0.4-0.4-0.6-0.9-0.6-1.5c0-0.5,0.1-0.9,0.4-1.2c0.3-0.3,0.6-0.6,1.1-0.8
	c0.4-0.2,0.9-0.3,1.3-0.4c0.5-0.1,0.9-0.1,1.4-0.1c0-0.6-0.1-1.1-0.4-1.3c-0.2-0.2-0.6-0.3-1.2-0.3c-0.6,0-1.2,0.2-1.9,0.6l-0.2-1.1
	c0.6-0.5,1.4-0.7,2.4-0.7c0.9,0,1.5,0.3,1.9,0.8c0.4,0.5,0.6,1.4,0.6,2.7v1.5c0,0.6,0,1,0.1,1.2c0.1,0.2,0.3,0.3,0.7,0.3L-235.9,399
	L-235.9,399z M-238.2,398v-1.7c-1,0-1.8,0.2-2.2,0.4c-0.4,0.2-0.7,0.6-0.7,1.1c0,0.7,0.4,1.1,1.1,1.1c0.3,0,0.7-0.1,1-0.3
	C-238.7,398.5-238.4,398.3-238.2,398z"/>
<path id="path13464" fill="#FFFFFF" d="M-228.8,399.9h-1.3v-3.9c0-0.8-0.1-1.3-0.4-1.7c-0.3-0.3-0.7-0.5-1.4-0.5
	c-0.9,0-1.6,0.3-1.9,0.9v5.2h-1.3v-7.1h1l0.1,0.8c0.7-0.6,1.4-0.9,2.3-0.9c1.9,0,2.9,1.1,2.9,3.3L-228.8,399.9L-228.8,399.9z"/>
<path id="path13466" fill="#FFFFFF" d="M-221.5,399l-0.2,1h-0.1c-0.6,0-1-0.1-1.2-0.2c-0.2-0.2-0.4-0.4-0.6-0.8
	c-0.6,0.7-1.3,1-2.2,1c-0.7,0-1.2-0.2-1.6-0.6c-0.4-0.4-0.6-0.9-0.6-1.5c0-0.5,0.1-0.9,0.4-1.2c0.3-0.3,0.6-0.6,1.1-0.8
	c0.4-0.2,0.9-0.3,1.3-0.4c0.5-0.1,0.9-0.1,1.4-0.1c0-0.6-0.1-1.1-0.4-1.3c-0.2-0.2-0.6-0.3-1.2-0.3c-0.6,0-1.2,0.2-1.9,0.6l-0.2-1.1
	c0.6-0.5,1.4-0.7,2.4-0.7c0.9,0,1.5,0.3,1.9,0.8c0.4,0.5,0.6,1.4,0.6,2.7v1.5c0,0.6,0,1,0.1,1.2c0.1,0.2,0.3,0.3,0.7,0.3L-221.5,399
	L-221.5,399z M-223.7,398v-1.7c-1,0-1.8,0.2-2.2,0.4c-0.4,0.2-0.7,0.6-0.7,1.1c0,0.7,0.4,1.1,1.1,1.1c0.3,0,0.7-0.1,1-0.3
	C-224.2,398.5-223.9,398.3-223.7,398z"/>
<path id="path13468" fill="#FFFFFF" d="M-217.9,403.5c-1.1,0-1.9-0.2-2.5-0.7c-0.5-0.4-0.8-0.9-0.8-1.5c0-0.8,0.4-1.3,1.3-1.6
	c-0.5-0.2-0.7-0.5-0.7-0.9c0-0.2,0.1-0.3,0.2-0.5c0.1-0.2,0.4-0.4,0.6-0.5c-0.8-0.6-1.2-1.4-1.2-2.3c0-0.8,0.3-1.5,0.8-2
	s1.2-0.8,2.1-0.8c0.6,0,1.2,0.2,1.8,0.5c0.5-0.3,1.1-0.4,1.7-0.4h0.1l-0.2,0.9h-0.3c-0.3,0-0.6,0-0.8,0.1c0.4,0.5,0.6,1.1,0.6,1.7
	c0,0.8-0.3,1.4-0.8,2c-0.5,0.6-1.2,0.8-2.1,0.8c-0.4,0-0.7,0-1-0.1c-0.2,0.1-0.3,0.3-0.3,0.4c0,0.2,0.1,0.3,0.4,0.4
	c0.3,0.1,0.9,0.2,1.8,0.4c0.3,0,0.5,0.1,0.7,0.1c0.2,0,0.5,0.1,0.7,0.2c0.3,0.1,0.5,0.2,0.7,0.3c0.2,0.1,0.4,0.3,0.5,0.5
	c0.1,0.2,0.2,0.5,0.2,0.7c0,0.6-0.3,1.1-1,1.6C-215.9,403.3-216.8,403.5-217.9,403.5L-217.9,403.5z M-218.1,393.7
	c-0.5,0-0.9,0.2-1.2,0.5c-0.3,0.3-0.4,0.7-0.4,1.3c0,0.6,0.2,1,0.5,1.3c0.3,0.3,0.7,0.5,1.2,0.5c0.5,0,0.9-0.2,1.2-0.5
	c0.3-0.3,0.4-0.8,0.4-1.3c0-0.5-0.2-1-0.5-1.3C-217.2,393.8-217.6,393.7-218.1,393.7z M-217.5,400.2c-0.2,0-0.6-0.1-1.3-0.2
	c-0.3,0.1-0.6,0.3-0.8,0.5c-0.2,0.2-0.3,0.5-0.3,0.7c0,0.3,0.2,0.6,0.6,0.8c0.4,0.2,0.9,0.3,1.6,0.3c0.7,0,1.2-0.1,1.6-0.3
	c0.4-0.2,0.6-0.5,0.6-0.8C-215.6,400.8-216.3,400.5-217.5,400.2L-217.5,400.2z"/>
<path id="path13470" fill="#FFFFFF" d="M-208,396.3h-5.1c0.2,1.7,1,2.5,2.7,2.5c0.7,0,1.4-0.1,2-0.4l0.2,1c-0.8,0.4-1.6,0.6-2.4,0.6
	c-1.2,0-2.1-0.4-2.8-1.1c-0.7-0.7-1-1.6-1-2.7c0-1,0.3-1.9,0.9-2.6c0.6-0.7,1.5-1,2.5-1c0.9,0,1.6,0.3,2.2,0.8
	c0.6,0.5,0.9,1.3,0.9,2.2C-207.9,395.9-207.9,396.1-208,396.3L-208,396.3z M-211,393.8c-1,0-1.7,0.5-2,1.6h3.7
	c0-0.5-0.1-0.9-0.4-1.2C-210,393.9-210.4,393.8-211,393.8z"/>
<path id="path13472" fill="#FFFFFF" d="M-203.7,399.9h-1.8v-10.2h1.8V399.9z"/>
<path id="path13474" fill="#FFFFFF" d="M-192.7,398.7l-1.1,1.3l-1-0.8c-0.8,0.6-1.8,0.9-2.9,0.9c-1.5,0-2.7-0.5-3.6-1.5
	c-0.9-1-1.4-2.3-1.4-3.8c0-1.6,0.5-2.9,1.4-3.8c0.9-1,2.1-1.5,3.6-1.5c1.5,0,2.7,0.5,3.6,1.5c0.9,1,1.4,2.2,1.4,3.8
	c0,1.2-0.3,2.3-0.9,3.2L-192.7,398.7L-192.7,398.7z M-195.4,392.2c-0.5-0.6-1.2-1-2.2-1c-1,0-1.7,0.3-2.2,1
	c-0.5,0.6-0.8,1.5-0.8,2.5c0,1.1,0.3,1.9,0.8,2.5c0.5,0.6,1.2,1,2.2,1c0.5,0,1-0.1,1.4-0.3l-1.2-1l1.1-1.3l1.3,1.1
	c0.3-0.5,0.4-1.2,0.4-1.9C-194.7,393.7-194.9,392.9-195.4,392.2L-195.4,392.2z"/>
</svg>
