<!--?xml version="1.0" standalone="no"?-->

<svg xmlns="http://www.w3.org/2000/svg" width="300.000000pt" height="300.000000pt" viewBox="0 0 300.000000 300.000000" preserveAspectRatio="xMidYMid meet">
<g transform="translate(0.000000,300.000000) scale(0.100000,-0.100000)" fill="#030303" stroke="none">
<path style="position: relative;" d="M1415 2977 c-23 -13 -104 -87 -181 -164 l-141 -141 168 -169 168
-168 60 3 c146 9 264 -112 247 -253 l-6 -54 162 -161 162 -162 41 6 c218 33
351 -227 201 -393 -29 -33 -114 -71 -157 -71 -89 0 -173 52 -213 132 -27 54
-35 138 -16 168 7 12 -23 47 -138 163 -81 81 -150 147 -154 147 -5 0 -8 -177
-8 -393 l0 -394 41 -33 c59 -47 93 -125 86 -195 -17 -170 -184 -264 -335 -189
-155 77 -170 291 -27 394 l34 25 1 410 0 411 -31 18 c-73 43 -122 162 -100
241 l11 40 -169 169 -168 168 -454 -453 c-280 -281 -462 -470 -476 -497 -29
-55 -29 -101 1 -160 37 -70 1344 -1373 1406 -1401 54 -25 92 -25 143 -3 57 26
1383 1353 1408 1410 24 55 24 86 -2 142 -28 62 -1331 1369 -1401 1406 -59 30
-111 30 -163 1z" id="node1" class="node"></path>
</g>
<g transform="translate(0.000000,300.000000) scale(0.100000,-0.100000)" fill="#A5A5A5" stroke="none">




</g>
</svg>
