<?xml version="1.0" encoding="utf-8"?>
<!-- Generator: Adobe Illustrator 18.1.0, SVG Export Plug-In . SVG Version: 6.00 Build 0)  -->
<svg version="1.1"
	 id="svg1" xmlns:sodipodi="http://sodipodi.sourceforge.net/DTD/sodipodi-0.dtd" sodipodi:docbase="/var/www/html/www.sodipodi.com/gallery/logos/" sodipodi:version="0.30.1" sodipodi:docname="/var/www/html/www.sodipodi.com/gallery/logos/redhat.svg"
	 xmlns="http://www.w3.org/2000/svg" xmlns:xlink="http://www.w3.org/1999/xlink" x="0px" y="0px" viewBox="248 -247.3 595.3 595.3"
	 enable-background="new 248 -247.3 595.3 595.3" xml:space="preserve">
<sodipodi:namedview  id="base"></sodipodi:namedview>
<path fill="#FFFFFF" d="M778.1,227.5C724.7,297.8,640.1,343.2,545,343.2c-124,0-230-77.2-272.6-186.1
	c-12.9-33-11.1-112.4,84.9-112.4S815.4,178.4,778.1,227.5z"/>
<path id="path194" stroke="#000000" stroke-width="0.9174" d="M565.1,192.8c-4.6,1.2-12.6,8.7-6.5,13.1c3.3,2.3,8.5,1.9,12.2,3
	c9.1,2.8,16.3,8.6,26.4,5.4c6.3-2,17.3-15.3,6.7-19.7c-4.8-2-9.9,4.8-14.8,5.2C580.3,200.6,574.3,190.4,565.1,192.8z M272.3,157.1
	c-51.7-131.3-2.2-280.7,117.6-355.3c119.8-74.5,275.7-52.9,370.7,51.4c95,104.3,105.2,257.5,16.3,373.8c-11.6-5.3-35.8-2.5-53-2.9
	c-9.2-0.1-20.3-1.9-22.8,1.1c-5.4,6,1,8.6-6,15.2c-5.3,4.8-13.6,5.4-26.5,13.5c-17.5,10.8-40.5,41.2-50.7,31.4
	c-5.5-5.4,7-16.5,18.2-30c11.2-13.4,23.9-29.5,27.4-40.3c4.2-13.6,3.3-22.4,5.2-28.3c4.5-14.8,8.4-28.7,1-29.8
	c-5.1-0.7-11.7,2.8-20.2,2.2c-8.8-0.6-14-2.2-25.7-2c-9.2,0.2-18.8,1.9-27.1,1.7c-15.5-0.6-19.3-3.6-31.7-3.6c-13,0-39.9,7.9-61-1.5
	c-16.9-7.6-28.3-33.7-43.9-40.7c-7.2-3.2-11.9,3.3-19.5,0.9c-9.5-3.1-12.5-20.5-32.1-32.3c-12.8-7.7-25.9-0.9-29.5,3
	c-12.3,13.6-2,33.4,10,49.3c9.1,12.3,18.7,12.6,19.7,20.9c0.7,5.9-8.4,11.8-15.6,9.9c-18.8-5.2-28.4-27.3-41.4-31.9
	c-5.1-1.9-13.2-0.1-19.3-0.3c-12.5-0.1-37.5,0.1-51.8-0.1C283.1,150.3,280.6,153.4,272.3,157.1z"/>
<path fill="#C1211F" stroke="#000000" stroke-width="0.9174" d="M738.2-169.1L738.2-169.1z"/>
<path fill="#C1211F" stroke="#000000" stroke-width="0.9174" d="M412.5-69.4c-25,0-56.3-3.8-79.1,8.4c-9.1,4.9-19.8,13.1-22.3,23.7
	c-3.6,15.1,5.8,27.4,15.3,37.9c18,19.6,37.2,37.3,58.6,53.2c73.9,54.9,164.6,82.6,255.8,86.6c43.4,1.9,99.5-15.8,127.9-50.3
	c14.6-17.8,24.8-50.8,12.5-72.3c-10.3-18-47.9-37.1-68.2-40.1c-3.7,11.5-8.7,22.4-19.5,28.7c-2.3-14.9,6.4-32.4,5.7-48.2
	c-1.3-28.9-17.8-58.4-28.4-84.9c-5.5-13.6-10-28.5-20.9-38.9c-29.5-28.1-65.3-13.1-99.8-10.5c-25.8,1.9-51.1-10.3-76.8-6.3
	c-40.2,6.3-47,60-52.1,93.5c-3.7,24.2,19.7,35.1,38.3,42.2c20.3,7.7,41.2,13.8,61.9,20c11,3.3,24.2,6.3,31.7,15.8
	c5.1,6.4,3.8,14.3,5.7,21.8c1.3,5.4,12.6,13.9,10.5,19c-1.7,4.2-11.1,2.9-14.6,2.6c-14-1.4-28.1-7.1-41.3-11.7
	c-25.8-9-50.9-20.7-74.6-34.3c-9.8-5.7-22.3-11.8-27.3-22.6C406.6-46.9,410-58.4,412.5-69.4"/>
<path d="M580-164.6v1.1c5.8,1.4,26.5,1.9,25.3,11.5c-0.5,4.4-6.7,8.1-9.3,11.5c9,2.7,44.9,1.2,34.6-16
	C621.8-171.1,593.8-167.9,580-164.6z"/>
<path d="M457.5-130.1c-4.2,2.2-4.7,8.4-4.8,12.5c-0.3,12.4,8,21.6,19.5,25.9c6.3,2.4,11.4-3,17.2-4.9c13.9-4.7,37.3-0.7,49-9.8
	c8.8-6.8-7-9.7-11.2-10.6c-16.2-3.6-32.8,3.5-48.2-1.9C473.1-120.9,464-133.4,457.5-130.1z"/>
</svg>
