<?xml version="1.0" encoding="utf-8"?>
<!-- Generator: Adobe Illustrator 18.1.0, SVG Export Plug-In . SVG Version: 6.00 Build 0)  -->
<svg version="1.1" id="svg31446" xmlns:svg="http://www.w3.org/2000/svg"
	 xmlns="http://www.w3.org/2000/svg" xmlns:xlink="http://www.w3.org/1999/xlink" x="0px" y="0px" viewBox="120 0 100 100"
	 enable-background="new 120 0 100 100" xml:space="preserve">
<g id="layer1" transform="translate(-439.49909,-787.69642)">
	<path id="path194" fill="#5C809B" d="M637.4,857.1h3.7V839h-3.7V857.1z"/>
	<path id="path196" fill="#5C809B" d="M566.2,857.4c-2,0-3.8-0.5-5.4-1.4l0.4-2c2,0.5,3.2,0.7,4.3,0.7c2.6,0,3.7-1.1,3.7-2.4
		c0-1.4-0.6-2.1-3.5-3.2c-3.5-1.3-4.8-2.7-4.8-5.2c0-3.1,2.5-5.3,6.3-5.3c1.5,0,3,0.3,4.7,1.2l-0.4,2c-1.4-0.4-2.5-0.5-3.5-0.5
		c-2.1,0-3.1,1-3.1,2.3c0,1.3,0.7,2,3.6,3c3.4,1.2,4.8,2.8,4.8,5.4C573.2,855.1,570.6,857.4,566.2,857.4"/>
	<path id="path198" fill="#5C809B" d="M583.4,841.4c-2.5,0-4.1,1.8-4.1,6.2c0,5.4,1.4,7.1,4.2,7.1c2.5,0,4.1-1.8,4.1-6.2
		C587.7,843.1,586.2,841.4,583.4,841.4 M583.1,857.5c-4.7,0-7.6-2.4-7.6-9.1c0-6.7,3.3-9.8,8.4-9.8c4.7,0,7.6,2.4,7.6,9
		C591.5,854.3,588.2,857.5,583.1,857.5"/>
	<path id="path200" fill="#5C809B" d="M602.5,854.5l0.4,2.2c-0.7,0.3-2.4,0.7-4.6,0.7c-2.2,0-3.3-0.7-3.3-3.6v-14.9h3.7v13.5
		c0,2.1,0.3,2.4,1.3,2.4C600.4,854.8,602.5,854.5,602.5,854.5"/>
	<path id="path202" fill="#5C809B" d="M615.7,848.6h-1.6c-4.2,0-5.3,1.4-5.3,3.3c0,1.7,1,2.8,2.8,2.8c1.3,0,2.7-0.7,4-1.8V848.6z
		 M616.5,857.1l-0.3-2c-1.6,1.4-3.3,2.3-5.6,2.3c-3.6,0-5.5-1.8-5.5-5c0-3.7,2.9-6.2,9.2-6.2h1.3v-1.6c0-2.2-1.1-3.2-3.8-3.2
		c-1.9,0-3.8,0.5-5.3,1.1l-0.5-2.3c1.9-0.8,4.2-1.5,6.9-1.5c4.6,0,6.4,2.2,6.4,5.5v13H616.5"/>
	<path id="path204" fill="#5C809B" d="M633.7,842.4c-0.7-0.2-1.2-0.3-1.5-0.3c-1.1,0-2,0.8-3.8,3v11.9h-3.8V839h3.1l0.3,3.1
		c2-2.5,3.2-3.4,4.5-3.4c0.5,0,1,0.1,1.6,0.4L633.7,842.4"/>
	<path id="path206" fill="#5C809B" d="M650.1,857.4c-2,0-3.8-0.5-5.3-1.4l0.4-2c2,0.5,3.2,0.7,4.3,0.7c2.6,0,3.7-1.1,3.7-2.4
		c0-1.4-0.6-2.1-3.5-3.2c-3.5-1.3-4.8-2.7-4.8-5.2c0-3.1,2.5-5.3,6.3-5.3c1.5,0,3,0.3,4.7,1.2l-0.4,2c-1.4-0.4-2.5-0.5-3.5-0.5
		c-2.1,0-3.1,1-3.1,2.3c0,1.3,0.7,2,3.6,3c3.4,1.2,4.8,2.8,4.8,5.4C657.1,855.1,654.5,857.4,650.1,857.4"/>
	<path id="path208" fill="#5C809B" d="M658.8,840.7v-1.6h-0.4l-0.4,1.1l-0.4-1.1h-0.4v1.6h0.3v-1.2h0l0.4,1.2h0.2l0.4-1.2h0v1.2
		H658.8L658.8,840.7z"/>
	<path id="path210" fill="#5C809B" d="M656.7,840.7v-1.3h0.4v-0.3h-1.1v0.3h0.4v1.3H656.7z"/>
	<path id="path212" fill="#EE7314" d="M635.7,819.7c0.1-0.3,0.8-2.1,0.8-2.1c0.9-2,0.3-3.5,0.3-3.5c-0.5-2-2.1-3.5-2.1-3.5
		c0.1,0.1,0.5,1.3,0.5,1.3c1.1,2.9-1.8,4.6-1.8,4.6c-0.7,0.5-1.9,1.6-1.9,1.6c-1.7,1.6-1.2,3.7-1.2,3.7l0.1,0c2,0.5,3.9,1.3,5.6,2.3
		C634.9,822,635.7,819.7,635.7,819.7"/>
	<path id="path214" fill="#EE7314" d="M641.5,829.2c-0.2-2.4,1.4-4.2,1.4-4.2c0.2-0.3,1.5-1.7,1.5-1.7c1.6-1.5,1.6-3.1,1.6-3.1
		c0.2-2-0.6-4-0.6-4c0,0.1,0,1.4,0,1.4c-0.1,3.1-3.4,3.6-3.4,3.6c-0.9,0.2-2.4,0.8-2.4,0.8c-2,0.8-2.4,2.7-2.5,2.9
		C638.8,826.2,640.3,827.6,641.5,829.2"/>
	<path id="path216" fill="#EE7314" d="M653.3,825.2c0,0.1-0.5,1.3-0.5,1.3c-1.3,2.9-4.5,2.1-4.5,2.1c-0.9-0.2-2.5-0.1-2.5-0.1
		c-2.4,0-3.4,1.8-3.4,1.8l0.1,0.3c1,1.6,1.8,3.4,2.3,5.4c0.7-2.4,2.9-3.5,2.9-3.5c0.2-0.2,2-1,2-1c2.1-0.8,2.6-2.3,2.6-2.3
		C653.3,827.4,653.3,825.2,653.3,825.2"/>
	<path id="path218" fill="#EE7314" d="M628.9,821.6c-1.8-1.6-1.9-4-1.9-4c-0.1-0.3-0.1-2.2-0.1-2.2c0.1-2.2-1-3.4-1-3.4
		c-1.2-1.6-3.2-2.5-3.2-2.5c0.1,0,1,1,1,1c2.1,2.3,0.1,5,0.1,5c-0.5,0.7-1.2,2.2-1.2,2.2c-0.9,2,0.1,3.7,0.3,3.8
		c1-0.1,2.1-0.2,3.1-0.2C626.9,821.3,627.9,821.4,628.9,821.6"/>
	<path id="path220" fill="#EE7314" d="M618,818.8c-0.2-0.3-0.9-2.1-0.9-2.1c-0.7-2.1-2.2-2.7-2.2-2.7c-1.7-1.1-3.9-1.1-3.9-1.1
		c0.1,0,1.3,0.6,1.3,0.6c2.8,1.4,1.9,4.6,1.9,4.6c-0.2,0.9-0.3,2.5-0.3,2.5c-0.1,2.4,1.7,3.5,1.7,3.5l0.1,0c1.7-1,3.6-1.7,5.6-2.2
		C619,821,618,818.8,618,818.8"/>
	<path id="path222" fill="#EE7314" d="M614.5,824.8c-2.4,0.1-4.2-1.6-4.2-1.6c-0.2-0.2-1.6-1.6-1.6-1.6c-1.5-1.7-3-1.8-3-1.8
		c-2-0.3-4,0.4-4,0.4c0.1,0,1.4,0.1,1.4,0.1c3.1,0.3,3.5,3.6,3.5,3.6c0.1,0.9,0.7,2.5,0.7,2.5c0.8,2.2,2.8,2.6,2.8,2.6l0,0
		C611.3,827.3,612.8,825.9,614.5,824.8"/>
	<path id="path224" fill="#EE7314" d="M604.7,830.3c-0.3-0.1-2.1-0.9-2.1-0.9c-2-1-3.5-0.5-3.5-0.5c-2,0.4-3.6,1.9-3.6,1.9
		c0.1-0.1,1.3-0.5,1.3-0.5c3-0.9,4.5,2,4.5,2c0.4,0.8,1.5,2,1.5,2c1.6,1.8,3.6,1.4,3.6,1.4l0.1-0.1c0.6-1.9,1.4-3.7,2.5-5.4
		C606.9,831.1,604.7,830.3,604.7,830.3"/>
</g>
</svg>
