<?xml version="1.0" encoding="utf-8"?>
<!-- Generator: Adobe Illustrator 18.1.1, SVG Export Plug-In . SVG Version: 6.00 Build 0)  -->
<svg version="1.1" id="Layer_1" xmlns="http://www.w3.org/2000/svg" xmlns:xlink="http://www.w3.org/1999/xlink" x="0px" y="0px"
	 viewBox="308 -281 507 507" enable-background="new 308 -281 507 507" xml:space="preserve">
<g>
	<path fill="#53A3DA" d="M563.2-272.4c-135.9,0-246.5,110.6-246.5,246.5c0,135.9,110.6,246.5,246.5,246.5
		c135.9,0,246.4-110.6,246.4-246.5C809.6-161.9,699.1-272.4,563.2-272.4z"/>
	<path fill="#F1606D" d="M563.2-249.8c-39.6,0-73.2,63.4-85.4,151.5c-0.4,2.8-0.8,5.7-1.1,8.6c-1.7,13.9-2.8,28.3-3.3,43.1
		c-0.3,6.8-0.4,13.7-0.4,20.6c0,6.9,0.1,13.8,0.4,20.6c0.6,14.8,1.7,29.3,3.3,43.1c18.6,2.4,38.5,4,59.2,4.8
		c9,0.3,18.1,0.5,27.3,0.5c9.2,0,18.3-0.2,27.3-0.5c20.8-0.8,40.6-2.4,59.2-4.8c2-0.3,4.1-0.6,6.1-0.8C733.2,26,787,2,787-26
		C787-149.6,686.8-249.8,563.2-249.8z"/>
	<path fill="#FFFFFF" d="M655.8-88.9c-2.2-3.3-4.7-6.4-7.2-9.4c-20.5-24.2-51.1-39.6-85.4-39.6c-11.1,0-21,17-27.3,43.4
		C533.4-84,531.4-72,530.2-59c-1,10.4-1.5,21.5-1.5,33s0.5,22.6,1.5,33c10.4,1,21.5,1.5,33,1.5c11.5,0,22.6-0.5,33-1.5
		c23-2.2,42.8-6.6,56.8-12.4c13.9-5.7,22.1-12.9,22.1-20.6C675.1-49.3,668-71,655.8-88.9z"/>
</g>
</svg>
