<?xml version="1.0" encoding="utf-8"?>
<!-- Generator: Adobe Illustrator 18.1.0, SVG Export Plug-In . SVG Version: 6.00 Build 0)  -->
<svg version="1.1" id="Layer_1" xmlns="http://www.w3.org/2000/svg" xmlns:xlink="http://www.w3.org/1999/xlink" x="0px" y="0px"
	 viewBox="0 0 100 100" enable-background="new 0 0 100 100" xml:space="preserve">
<g>
	<polygon fill-rule="evenodd" clip-rule="evenodd" fill="#A6CC46" points="28.5,29.7 38.3,29.7 34.1,34 47,46.9 47,47.9 45.9,47.9 
		33,35 28.5,39.5 28.5,29.7 	"/>
	<polygon fill-rule="evenodd" clip-rule="evenodd" fill="#A3238E" points="61,29.7 70.5,29.7 70.5,39.2 66.2,34.9 53.1,47.9 
		52.1,47.9 52.1,46.9 65.2,33.8 61,29.7 	"/>
	<polygon fill-rule="evenodd" clip-rule="evenodd" fill="#FAA74A" points="52.1,53 53.1,53 66.1,66 70.5,61.5 70.5,71.3 60.7,71.3 
		65,67 52.1,54.1 52.1,53 	"/>
	<polygon fill-rule="evenodd" clip-rule="evenodd" fill="#2E3192" points="45.9,53 47,53 47,54.1 33.9,67.1 38,71.3 28.5,71.3 
		28.5,61.8 32.9,66.1 45.9,53 	"/>
	<polygon fill-rule="evenodd" clip-rule="evenodd" fill="#A6CE39" points="28.5,42.1 33,37.6 43.3,47.9 28.5,47.9 28.5,42.1 	"/>
	<polygon fill-rule="evenodd" clip-rule="evenodd" fill="#2E3192" points="43.3,53 32.9,63.5 28.5,59.2 28.5,53 43.3,53 	"/>
	<polygon fill-rule="evenodd" clip-rule="evenodd" fill="#A3238E" points="20,50.6 26.7,43.9 26.7,49.7 45.2,49.7 45.9,50.5 
		45.2,51.2 26.7,51.2 26.7,57.3 20,50.6 	"/>
	<polygon fill-rule="evenodd" clip-rule="evenodd" fill="#A3238E" points="55.7,47.9 66.2,37.4 70.5,41.8 70.5,47.9 55.7,47.9 	"/>
	<polygon fill-rule="evenodd" clip-rule="evenodd" fill="#FAA74A" points="70.5,58.9 66.1,63.4 55.7,53 70.5,53 70.5,58.9 	"/>
	<polygon fill-rule="evenodd" clip-rule="evenodd" fill="#2E3192" points="53.2,50.5 53.9,49.7 72.4,49.7 72.4,43.6 79.1,50.3 
		72.4,57 72.4,51.2 53.9,51.2 53.2,50.5 	"/>
	<polygon fill-rule="evenodd" clip-rule="evenodd" fill="#FAA74A" points="52.1,56.7 62.4,67 58.2,71.3 52.1,71.3 52.1,56.7 	"/>
	<polygon fill-rule="evenodd" clip-rule="evenodd" fill="#A6CE39" points="48.8,54.8 49.5,54.1 50.3,54.8 50.3,73.1 56.3,73.1 
		49.4,80 42.5,73.1 48.8,73.1 48.8,54.8 	"/>
	<polygon fill-rule="evenodd" clip-rule="evenodd" fill="#2E3192" points="36.5,67.1 47,56.7 47,71.3 40.6,71.3 36.5,67.1 	"/>
	<polygon fill-rule="evenodd" clip-rule="evenodd" fill="#A3238E" points="52.1,44.3 62.4,34 58.2,29.8 52.1,29.8 52.1,44.3 	"/>
	<polygon fill-rule="evenodd" clip-rule="evenodd" fill="#FAA74A" points="48.8,46.2 49.5,46.9 50.3,46.2 50.3,27.9 56.3,27.9 
		49.4,21 42.5,27.9 48.8,27.9 48.8,46.2 	"/>
	<polygon fill-rule="evenodd" clip-rule="evenodd" fill="#A6CE39" points="36.5,33.9 47,44.3 47,29.8 40.6,29.8 36.5,33.9 	"/>
</g>
</svg>
