<?xml version="1.0" encoding="UTF-8" standalone="no"?>
<!-- Created with Inkscape (http://www.inkscape.org/) -->
<svg
   xmlns:dc="http://purl.org/dc/elements/1.1/"
   xmlns:cc="http://web.resource.org/cc/"
   xmlns:rdf="http://www.w3.org/1999/02/22-rdf-syntax-ns#"
   xmlns:svg="http://www.w3.org/2000/svg"
   xmlns="http://www.w3.org/2000/svg"
   xmlns:xlink="http://www.w3.org/1999/xlink"
   xmlns:sodipodi="http://sodipodi.sourceforge.net/DTD/sodipodi-0.dtd"
   xmlns:inkscape="http://www.inkscape.org/namespaces/inkscape"
   width="256"
   height="256"
   id="svg7854"
   sodipodi:version="0.32"
   inkscape:version="0.45+devel"
   version="1.0"
   sodipodi:docname="geeko-button-bling.svg"
   inkscape:output_extension="org.inkscape.output.svg.inkscape"
   sodipodi:docbase="/home/jimmac/gfx/novell/pdes.local/trunk/logos/openSUSE">
  <defs
     id="defs7856">
    <linearGradient
       inkscape:collect="always"
       id="linearGradient5841">
      <stop
         style="stop-color:#ffffff;stop-opacity:1;"
         offset="0"
         id="stop5843" />
      <stop
         style="stop-color:#ffffff;stop-opacity:0;"
         offset="1"
         id="stop5845" />
    </linearGradient>
    <linearGradient
       inkscape:collect="always"
       id="linearGradient5831">
      <stop
         style="stop-color:#ffffff;stop-opacity:1;"
         offset="0"
         id="stop5833" />
      <stop
         style="stop-color:#ffffff;stop-opacity:0;"
         offset="1"
         id="stop5835" />
    </linearGradient>
    <linearGradient
       inkscape:collect="always"
       id="linearGradient5779">
      <stop
         style="stop-color:#73d216;stop-opacity:1;"
         offset="0"
         id="stop5781" />
      <stop
         style="stop-color:#73d216;stop-opacity:0;"
         offset="1"
         id="stop5783" />
    </linearGradient>
    <linearGradient
       inkscape:collect="always"
       id="linearGradient5767">
      <stop
         style="stop-color:#ffffff;stop-opacity:1;"
         offset="0"
         id="stop5769" />
      <stop
         style="stop-color:#ffffff;stop-opacity:0;"
         offset="1"
         id="stop5771" />
    </linearGradient>
    <linearGradient
       inkscape:collect="always"
       id="linearGradient5755">
      <stop
         style="stop-color:#ffffff;stop-opacity:1;"
         offset="0"
         id="stop5757" />
      <stop
         style="stop-color:#ffffff;stop-opacity:0;"
         offset="1"
         id="stop5759" />
    </linearGradient>
    <linearGradient
       inkscape:collect="always"
       id="linearGradient5745">
      <stop
         style="stop-color:#ffffff;stop-opacity:1;"
         offset="0"
         id="stop5747" />
      <stop
         style="stop-color:#ffffff;stop-opacity:0;"
         offset="1"
         id="stop5749" />
    </linearGradient>
    <linearGradient
       inkscape:collect="always"
       id="linearGradient5681">
      <stop
         style="stop-color:#000000;stop-opacity:1;"
         offset="0"
         id="stop5683" />
      <stop
         style="stop-color:#000000;stop-opacity:0.48124999"
         offset="1"
         id="stop5685" />
    </linearGradient>
    <linearGradient
       inkscape:collect="always"
       id="linearGradient5565">
      <stop
         style="stop-color:#8ae234;stop-opacity:1;"
         offset="0"
         id="stop5567" />
      <stop
         style="stop-color:#8ae234;stop-opacity:0;"
         offset="1"
         id="stop5569" />
    </linearGradient>
    <linearGradient
       inkscape:collect="always"
       id="linearGradient5518">
      <stop
         style="stop-color:#ffffff;stop-opacity:1;"
         offset="0"
         id="stop5520" />
      <stop
         style="stop-color:#ffffff;stop-opacity:0;"
         offset="1"
         id="stop5522" />
    </linearGradient>
    <linearGradient
       inkscape:collect="always"
       id="linearGradient5478">
      <stop
         style="stop-color:#182f01;stop-opacity:1"
         offset="0"
         id="stop5480" />
      <stop
         style="stop-color:#57ac06;stop-opacity:1"
         offset="1"
         id="stop5482" />
    </linearGradient>
    <linearGradient
       inkscape:collect="always"
       id="linearGradient5470">
      <stop
         style="stop-color:#ffffff;stop-opacity:1;"
         offset="0"
         id="stop5472" />
      <stop
         style="stop-color:#ffffff;stop-opacity:0;"
         offset="1"
         id="stop5474" />
    </linearGradient>
    <linearGradient
       inkscape:collect="always"
       xlink:href="#linearGradient5470"
       id="linearGradient5476"
       x1="138.34358"
       y1="14.610992"
       x2="136.34358"
       y2="189.8972"
       gradientUnits="userSpaceOnUse"
       gradientTransform="translate(-4,-4)" />
    <linearGradient
       inkscape:collect="always"
       xlink:href="#linearGradient5478"
       id="linearGradient5484"
       x1="98.727234"
       y1="42.150482"
       x2="98.727234"
       y2="164.39177"
       gradientUnits="userSpaceOnUse" />
    <filter
       inkscape:collect="always"
       id="filter5512">
      <feGaussianBlur
         inkscape:collect="always"
         stdDeviation="1.4966518"
         id="feGaussianBlur5514" />
    </filter>
    <radialGradient
       inkscape:collect="always"
       xlink:href="#linearGradient5518"
       id="radialGradient5526"
       cx="132.01065"
       cy="37.250149"
       fx="132.01065"
       fy="37.250149"
       r="103.84375"
       gradientTransform="matrix(1,0,0,0.9452303,-4,2.9568298)"
       gradientUnits="userSpaceOnUse" />
    <filter
       inkscape:collect="always"
       id="filter5556">
      <feGaussianBlur
         inkscape:collect="always"
         stdDeviation="2.8857142"
         id="feGaussianBlur5558" />
    </filter>
    <radialGradient
       inkscape:collect="always"
       xlink:href="#linearGradient5565"
       id="radialGradient5571"
       cx="132"
       cy="293.59906"
       fx="132"
       fy="293.59906"
       r="102"
       gradientTransform="matrix(1.2083955,0,0,0.6158168,-31.508203,53.946753)"
       gradientUnits="userSpaceOnUse" />
    <filter
       inkscape:collect="always"
       id="filter5645">
      <feGaussianBlur
         inkscape:collect="always"
         stdDeviation="0.70516335"
         id="feGaussianBlur5647" />
    </filter>
    <clipPath
       clipPathUnits="userSpaceOnUse"
       id="clipPath5677">
      <path
         style="font-size:20.48839951px;fill:#4e9a06;fill-opacity:1;fill-rule:evenodd;stroke:none;stroke-width:3.36292505;stroke-miterlimit:4;stroke-dasharray:none;stroke-opacity:1;font-family:TrebuchetMS-Bold"
         d="M 99.999999,30.15625 C 61.429321,30.15625 30.15625,61.425757 30.15625,100 C 30.15625,138.57424 61.429321,169.84375 99.999999,169.84375 C 138.57068,169.84375 169.84374,138.57424 169.84375,100 C 169.84375,61.425763 138.57068,30.15625 99.999999,30.15625 z M 100.33443,39.828904 C 133.56795,39.828904 160.53125,66.770043 160.53125,100 C 160.53125,133.23353 133.56439,160.1711 100.33443,160.1711 C 82.389612,160.1711 66.287228,152.30637 55.263983,139.84824 C 59.79648,136.33049 67.379614,137.1887 76.718752,138.25328 C 81.194274,138.76243 86.296201,139.34487 91.562158,139.46236 C 106.27405,139.54781 122.10349,136.86276 131.87345,132.59375 C 138.18974,129.82369 142.2338,127.99948 144.76174,125.69941 C 145.67323,124.95171 146.15189,123.70262 146.63968,122.4066 L 146.9741,121.53194 C 147.38356,120.48516 147.97116,118.23268 148.23463,117.00432 C 148.35213,116.46668 148.4098,115.88852 148.02883,115.58943 L 146.6654,115.84669 C 142.37858,118.41735 131.66827,123.31339 121.63484,123.51278 C 109.20165,123.77269 84.142746,110.99635 81.529349,109.64693 L 81.272099,109.33823 C 80.645458,107.84282 76.895333,98.940154 76.101346,97.067335 C 94.138737,108.9451 109.09321,115.51941 120.55439,116.54126 C 133.29735,117.6735 143.23739,110.71627 147.4886,107.74327 C 148.3182,107.17715 148.95227,106.73322 149.21219,106.63709 L 149.49517,106.17403 C 148.79019,101.69494 142.10444,80.020513 137.06992,74.815088 C 135.67421,73.387338 134.56456,71.997838 132.31077,70.673343 C 114.08824,60.052432 70.821318,53.655846 68.795405,53.360326 L 68.460982,53.463225 L 68.332357,53.746201 C 68.332357,53.746201 68.170082,62.730625 68.152279,63.727558 C 66.667554,63.236214 62.063798,61.728958 55.469788,59.920236 C 64.073522,49.274392 77.258818,39.828904 100.33443,39.828904 z M 116.23256,71.676625 C 116.53961,71.672018 116.84957,71.666388 117.15867,71.676625 C 127.36656,72.043352 135.38655,80.64108 135.03764,90.841854 C 134.85605,95.776678 132.77552,100.3362 129.17231,103.70442 C 125.55841,107.09044 120.86144,108.85532 115.89814,108.6951 C 105.70804,108.31413 97.688042,99.716405 98.019162,89.529869 C 98.193631,84.587923 100.28565,79.999104 103.91022,76.641573 C 107.2949,73.467187 111.62686,71.745746 116.23256,71.676625 z M 115.74378,77.130354 C 112.77085,77.311098 109.96536,78.518227 107.76899,80.577521 C 105.26598,82.927439 103.78906,86.109055 103.67869,89.555596 C 103.4437,96.676556 109.01582,102.66919 116.12966,102.93267 C 119.58688,103.03948 122.86633,101.82829 125.39071,99.4855 C 127.90797,97.124901 129.3742,93.914 129.48101,90.481698 C 129.71956,83.350057 124.12172,77.379587 117.00432,77.130354 C 116.5735,77.114333 116.16849,77.104534 115.74378,77.130354 z M 119.1395,83.587366 C 122.30121,83.587366 124.85049,85.305484 124.85048,87.420407 C 124.85048,89.524657 122.30121,91.253449 119.1395,91.253456 C 115.96711,91.253456 113.4028,89.521092 113.4028,87.420407 C 113.4028,85.305484 115.96711,83.587366 119.1395,83.587366 z"
         id="path5679" />
    </clipPath>
    <linearGradient
       inkscape:collect="always"
       xlink:href="#linearGradient5681"
       id="linearGradient5687"
       x1="100"
       y1="166.72182"
       x2="100"
       y2="39.739437"
       gradientUnits="userSpaceOnUse" />
    <radialGradient
       inkscape:collect="always"
       xlink:href="#linearGradient5565"
       id="radialGradient5733"
       gradientUnits="userSpaceOnUse"
       gradientTransform="matrix(0.5168511,0,0,-0.2633953,59.775689,107.34721)"
       cx="132"
       cy="293.59906"
       fx="132"
       fy="293.59906"
       r="102" />
    <radialGradient
       inkscape:collect="always"
       xlink:href="#linearGradient5565"
       id="radialGradient5741"
       cx="89.75"
       cy="20.619284"
       fx="89.75"
       fy="20.619284"
       r="59.25"
       gradientTransform="matrix(1.6080434,0,0,0.5936869,-58.571895,45.383601)"
       gradientUnits="userSpaceOnUse" />
    <radialGradient
       inkscape:collect="always"
       xlink:href="#linearGradient5745"
       id="radialGradient5751"
       cx="105.75"
       cy="38.506714"
       fx="105.75"
       fy="38.506714"
       r="59.25"
       gradientTransform="matrix(1.3797726,0,0,0.5967372,-44.160957,40.396617)"
       gradientUnits="userSpaceOnUse" />
    <radialGradient
       inkscape:collect="always"
       xlink:href="#linearGradient5755"
       id="radialGradient5761"
       cx="158.0618"
       cy="117.97007"
       fx="158.0618"
       fy="117.97007"
       r="12.438205"
       gradientTransform="matrix(1.663279,0,0,1.0392343,-108.83907,-6.8270227)"
       gradientUnits="userSpaceOnUse" />
    <radialGradient
       inkscape:collect="always"
       xlink:href="#linearGradient5767"
       id="radialGradient5773"
       cx="40.807701"
       cy="81.171234"
       fx="40.807701"
       fy="81.171234"
       r="83.063794"
       gradientTransform="matrix(1,0,0,1.0653546,-4.5,-10.197379)"
       gradientUnits="userSpaceOnUse" />
    <linearGradient
       inkscape:collect="always"
       xlink:href="#linearGradient5779"
       id="linearGradient5785"
       x1="130"
       y1="127"
       x2="136"
       y2="21"
       gradientUnits="userSpaceOnUse" />
    <radialGradient
       inkscape:collect="always"
       xlink:href="#linearGradient5767"
       id="radialGradient5787"
       gradientUnits="userSpaceOnUse"
       gradientTransform="matrix(1,0,0,1.0653546,-4.5,-10.197379)"
       cx="40.807701"
       cy="81.171234"
       fx="40.807701"
       fy="81.171234"
       r="83.063794" />
    <linearGradient
       inkscape:collect="always"
       xlink:href="#linearGradient5478"
       id="linearGradient5789"
       gradientUnits="userSpaceOnUse"
       x1="98.727234"
       y1="42.150482"
       x2="98.727234"
       y2="164.39177" />
    <filter
       inkscape:collect="always"
       x="-0.34697871"
       width="1.6939574"
       y="-0.049569896"
       height="1.0991398"
       id="filter5825">
      <feGaussianBlur
         inkscape:collect="always"
         stdDeviation="1.3363274"
         id="feGaussianBlur5827" />
    </filter>
    <radialGradient
       inkscape:collect="always"
       xlink:href="#linearGradient5831"
       id="radialGradient5837"
       cx="98"
       cy="146.19427"
       fx="98"
       fy="146.19427"
       r="13"
       gradientTransform="matrix(1,0,0,0.7980769,0,28.950721)"
       gradientUnits="userSpaceOnUse" />
    <radialGradient
       inkscape:collect="always"
       xlink:href="#linearGradient5841"
       id="radialGradient5847"
       cx="164.25"
       cy="187.76793"
       fx="164.25"
       fy="187.76793"
       r="26"
       gradientTransform="matrix(1.3173077,0,0,0.2669041,-52.117789,116.91987)"
       gradientUnits="userSpaceOnUse" />
  </defs>
  <sodipodi:namedview
     id="base"
     pagecolor="#ffffff"
     bordercolor="#e0e0e0"
     borderopacity="1"
     gridtolerance="10000"
     guidetolerance="10"
     objecttolerance="10"
     inkscape:pageopacity="0.0"
     inkscape:pageshadow="2"
     inkscape:zoom="1"
     inkscape:cx="162.71058"
     inkscape:cy="162.46042"
     inkscape:document-units="px"
     inkscape:current-layer="layer1"
     width="256px"
     height="256px"
     inkscape:showpageshadow="false"
     inkscape:window-width="872"
     inkscape:window-height="821"
     inkscape:window-x="612"
     inkscape:window-y="128" />
  <metadata
     id="metadata7859">
    <rdf:RDF>
      <cc:Work
         rdf:about="">
        <dc:format>image/svg+xml</dc:format>
        <dc:type
           rdf:resource="http://purl.org/dc/dcmitype/StillImage" />
        <dc:creator>
          <cc:Agent>
            <dc:title>Jakub Steiner</dc:title>
          </cc:Agent>
        </dc:creator>
        <dc:source>http://jimmac.musichall.cz</dc:source>
        <cc:license
           rdf:resource="http://creativecommons.org/licenses/by-sa/2.5/" />
      </cc:Work>
      <cc:License
         rdf:about="http://creativecommons.org/licenses/by-sa/2.5/">
        <cc:permits
           rdf:resource="http://web.resource.org/cc/Reproduction" />
        <cc:permits
           rdf:resource="http://web.resource.org/cc/Distribution" />
        <cc:requires
           rdf:resource="http://web.resource.org/cc/Notice" />
        <cc:requires
           rdf:resource="http://web.resource.org/cc/Attribution" />
        <cc:permits
           rdf:resource="http://web.resource.org/cc/DerivativeWorks" />
        <cc:requires
           rdf:resource="http://web.resource.org/cc/ShareAlike" />
      </cc:License>
    </rdf:RDF>
  </metadata>
  <g
     inkscape:label="Layer 1"
     inkscape:groupmode="layer"
     id="layer1">
    <g
       id="g4851"
       inkscape:label="Layer 1"
       transform="matrix(1.4868009,0,0,1.4868009,-20.680089,-20.680089)"
       style="fill:url(#linearGradient5484);fill-opacity:1">
      <path
         style="font-size:20.48839951px;opacity:0.42142855;fill:#182f01;fill-opacity:1;fill-rule:evenodd;stroke:none;stroke-miterlimit:4;filter:url(#filter5512);font-family:TrebuchetMS-Bold"
         d="M 100,31.107428 C 61.42932,31.107428 30.15625,62.376936 30.15625,100.95118 C 30.15625,139.52542 61.429322,170.79493 100,170.79493 C 138.57068,170.79493 169.84374,139.52542 169.84375,100.95118 C 169.84375,62.376938 138.57068,31.107428 100,31.107428 z M 100.33443,40.78008 C 133.56795,40.78008 160.53125,67.721223 160.53125,100.95118 C 160.53125,134.18471 133.56439,161.12228 100.33443,161.12228 C 82.389609,161.12228 66.287227,153.25755 55.263985,140.79942 C 59.796476,137.28167 67.379614,138.13988 76.71875,139.20446 C 81.194275,139.71361 86.296203,140.29605 91.562155,140.41354 C 106.27405,140.49899 122.10349,137.81394 131.87345,133.54493 C 138.18974,130.77487 142.2338,128.95066 144.76174,126.65059 C 145.67323,125.90289 146.15189,124.6538 146.63968,123.35778 L 146.9741,122.48312 C 147.38356,121.43634 147.97116,119.18386 148.23463,117.9555 C 148.35213,117.41786 148.4098,116.8397 148.02883,116.54061 L 146.6654,116.79787 C 142.37858,119.36853 131.66827,124.26457 121.63484,124.46396 C 109.20165,124.72387 84.142747,111.94753 81.529351,110.59811 L 81.272099,110.28941 C 80.645455,108.794 76.895331,99.891328 76.101347,98.018512 C 94.138736,109.89628 109.09321,116.47059 120.55439,117.49244 C 133.29735,118.62468 143.23739,111.66745 147.4886,108.69445 C 148.3182,108.12833 148.95227,107.6844 149.21219,107.58827 L 149.49517,107.12521 C 148.79019,102.64612 142.10444,80.971691 137.06992,75.766268 C 135.67421,74.338516 134.56456,72.949018 132.31077,71.624521 C 114.08824,61.003607 70.821318,54.607021 68.795407,54.311503 L 68.460981,54.414403 L 68.332355,54.69738 C 68.332355,54.69738 68.170081,63.681801 68.152279,64.678733 C 66.667557,64.187389 62.063794,62.680136 55.469786,60.871413 C 64.073519,50.225569 77.258819,40.780081 100.33443,40.78008 z M 116.23256,72.627801 C 116.53961,72.623193 116.84957,72.617564 117.15867,72.627801 C 127.36656,72.99453 135.38655,81.592258 135.03764,91.793029 C 134.85605,96.727854 132.77552,101.28738 129.17231,104.6556 C 125.55841,108.04162 120.86144,109.8065 115.89814,109.64628 C 105.70804,109.26531 97.68804,100.66758 98.019164,90.481047 C 98.193628,85.539099 100.28565,80.950283 103.91022,77.592753 C 107.2949,74.418362 111.62686,72.69692 116.23256,72.627801 z M 115.74378,78.08153 C 112.77085,78.262273 109.96536,79.469402 107.76899,81.528699 C 105.26598,83.878614 103.78906,87.060231 103.67869,90.506772 C 103.4437,97.627731 109.01582,103.62037 116.12966,103.88385 C 119.58688,103.99066 122.86633,102.77947 125.39071,100.43668 C 127.90797,98.076076 129.3742,94.865179 129.48101,91.432877 C 129.71956,84.301234 124.12172,78.330764 117.00432,78.08153 C 116.5735,78.065508 116.16849,78.05571 115.74378,78.08153 z M 119.1395,84.53854 C 122.30121,84.53854 124.85049,86.256661 124.85048,88.371585 C 124.85048,90.475833 122.30121,92.204629 119.1395,92.204631 C 115.96711,92.204631 113.4028,90.472266 113.4028,88.371585 C 113.4028,86.256663 115.96711,84.538542 119.1395,84.53854 z"
         id="path5486" />
      <path
         id="path2445"
         d="M 100,30.15625 C 61.42932,30.15625 30.15625,61.425758 30.15625,100 C 30.15625,138.57424 61.429322,169.84375 100,169.84375 C 138.57068,169.84375 169.84374,138.57424 169.84375,100 C 169.84375,61.42576 138.57068,30.15625 100,30.15625 z M 100.33443,39.828902 C 133.56795,39.828902 160.53125,66.770045 160.53125,100 C 160.53125,133.23353 133.56439,160.1711 100.33443,160.1711 C 82.389609,160.1711 66.287227,152.30637 55.263985,139.84824 C 59.796476,136.33049 67.379614,137.1887 76.71875,138.25328 C 81.194275,138.76243 86.296203,139.34487 91.562155,139.46236 C 106.27405,139.54781 122.10349,136.86276 131.87345,132.59375 C 138.18974,129.82369 142.2338,127.99948 144.76174,125.69941 C 145.67323,124.95171 146.15189,123.70262 146.63968,122.4066 L 146.9741,121.53194 C 147.38356,120.48516 147.97116,118.23268 148.23463,117.00432 C 148.35213,116.46668 148.4098,115.88852 148.02883,115.58943 L 146.6654,115.84669 C 142.37858,118.41735 131.66827,123.31339 121.63484,123.51278 C 109.20165,123.77269 84.142747,110.99635 81.529351,109.64693 L 81.272099,109.33823 C 80.645455,107.84282 76.895331,98.94015 76.101347,97.067334 C 94.138736,108.9451 109.09321,115.51941 120.55439,116.54126 C 133.29735,117.6735 143.23739,110.71627 147.4886,107.74327 C 148.3182,107.17715 148.95227,106.73322 149.21219,106.63709 L 149.49517,106.17403 C 148.79019,101.69494 142.10444,80.020513 137.06992,74.81509 C 135.67421,73.387338 134.56456,71.99784 132.31077,70.673343 C 114.08824,60.052429 70.821318,53.655843 68.795407,53.360325 L 68.460981,53.463225 L 68.332355,53.746202 C 68.332355,53.746202 68.170081,62.730623 68.152279,63.727555 C 66.667557,63.236211 62.063794,61.728958 55.469786,59.920235 C 64.073519,49.274391 77.258819,39.828903 100.33443,39.828902 z M 116.23256,71.676623 C 116.53961,71.672015 116.84957,71.666386 117.15867,71.676623 C 127.36656,72.043352 135.38655,80.64108 135.03764,90.841851 C 134.85605,95.776676 132.77552,100.3362 129.17231,103.70442 C 125.55841,107.09044 120.86144,108.85532 115.89814,108.6951 C 105.70804,108.31413 97.68804,99.716403 98.019164,89.529869 C 98.193628,84.587921 100.28565,79.999105 103.91022,76.641575 C 107.2949,73.467184 111.62686,71.745742 116.23256,71.676623 z M 115.74378,77.130352 C 112.77085,77.311095 109.96536,78.518224 107.76899,80.577521 C 105.26598,82.927436 103.78906,86.109053 103.67869,89.555594 C 103.4437,96.676553 109.01582,102.66919 116.12966,102.93267 C 119.58688,103.03948 122.86633,101.82829 125.39071,99.485497 C 127.90797,97.124898 129.3742,93.914001 129.48101,90.481699 C 129.71956,83.350056 124.12172,77.379586 117.00432,77.130352 C 116.5735,77.11433 116.16849,77.104532 115.74378,77.130352 z M 119.1395,83.587362 C 122.30121,83.587362 124.85049,85.305483 124.85048,87.420407 C 124.85048,89.524655 122.30121,91.253451 119.1395,91.253453 C 115.96711,91.253453 113.4028,89.521088 113.4028,87.420407 C 113.4028,85.305485 115.96711,83.587364 119.1395,83.587362 z"
         style="font-size:20.48839951px;fill:url(#linearGradient5789);fill-opacity:1;fill-rule:evenodd;stroke:none;stroke-miterlimit:4;font-family:TrebuchetMS-Bold" />
    </g>
    <path
       id="path5577"
       d="M 100,30.15625 C 61.42932,30.15625 30.15625,61.425758 30.15625,100 C 30.15625,138.57424 61.429322,169.84375 100,169.84375 C 138.57068,169.84375 169.84374,138.57424 169.84375,100 C 169.84375,61.42576 138.57068,30.15625 100,30.15625 z M 100.33443,39.828902 C 133.56795,39.828902 160.53125,66.770045 160.53125,100 C 160.53125,133.23353 133.56439,160.1711 100.33443,160.1711 C 82.389609,160.1711 66.287227,152.30637 55.263985,139.84824 C 59.796476,136.33049 67.379614,137.1887 76.71875,138.25328 C 81.194275,138.76243 86.296203,139.34487 91.562155,139.46236 C 106.27405,139.54781 122.10349,136.86276 131.87345,132.59375 C 138.18974,129.82369 142.2338,127.99948 144.76174,125.69941 C 145.67323,124.95171 146.15189,123.70262 146.63968,122.4066 L 146.9741,121.53194 C 147.38356,120.48516 147.97116,118.23268 148.23463,117.00432 C 148.35213,116.46668 148.4098,115.88852 148.02883,115.58943 L 146.6654,115.84669 C 142.37858,118.41735 131.66827,123.31339 121.63484,123.51278 C 109.20165,123.77269 84.142747,110.99635 81.529351,109.64693 L 81.272099,109.33823 C 80.645455,107.84282 76.895331,98.94015 76.101347,97.067334 C 94.138736,108.9451 109.09321,115.51941 120.55439,116.54126 C 133.29735,117.6735 143.23739,110.71627 147.4886,107.74327 C 148.3182,107.17715 148.95227,106.73322 149.21219,106.63709 L 149.49517,106.17403 C 148.79019,101.69494 142.10444,80.020513 137.06992,74.81509 C 135.67421,73.387338 134.56456,71.99784 132.31077,70.673343 C 114.08824,60.052429 70.821318,53.655843 68.795407,53.360325 L 68.460981,53.463225 L 68.332355,53.746202 C 68.332355,53.746202 68.170081,62.730623 68.152279,63.727555 C 66.667557,63.236211 62.063794,61.728958 55.469786,59.920235 C 64.073519,49.274391 77.258819,39.828903 100.33443,39.828902 z M 116.23256,71.676623 C 116.53961,71.672015 116.84957,71.666386 117.15867,71.676623 C 127.36656,72.043352 135.38655,80.64108 135.03764,90.841851 C 134.85605,95.776676 132.77552,100.3362 129.17231,103.70442 C 125.55841,107.09044 120.86144,108.85532 115.89814,108.6951 C 105.70804,108.31413 97.68804,99.716403 98.019164,89.529869 C 98.193628,84.587921 100.28565,79.999105 103.91022,76.641575 C 107.2949,73.467184 111.62686,71.745742 116.23256,71.676623 z M 115.74378,77.130352 C 112.77085,77.311095 109.96536,78.518224 107.76899,80.577521 C 105.26598,82.927436 103.78906,86.109053 103.67869,89.555594 C 103.4437,96.676553 109.01582,102.66919 116.12966,102.93267 C 119.58688,103.03948 122.86633,101.82829 125.39071,99.485497 C 127.90797,97.124898 129.3742,93.914001 129.48101,90.481699 C 129.71956,83.350056 124.12172,77.379586 117.00432,77.130352 C 116.5735,77.11433 116.16849,77.104532 115.74378,77.130352 z M 119.1395,83.587362 C 122.30121,83.587362 124.85049,85.305483 124.85048,87.420407 C 124.85048,89.524655 122.30121,91.253451 119.1395,91.253453 C 115.96711,91.253453 113.4028,89.521088 113.4028,87.420407 C 113.4028,85.305485 115.96711,83.587364 119.1395,83.587362 z"
       style="font-size:20.48839951px;opacity:0.82530117;fill:none;fill-opacity:1;fill-rule:evenodd;stroke:url(#linearGradient5687);stroke-width:1.34517002;stroke-miterlimit:4;stroke-dasharray:none;stroke-opacity:1;filter:url(#filter5645);font-family:TrebuchetMS-Bold"
       transform="matrix(1.4868009,0,0,1.4868009,-20.393076,-20.875003)"
       clip-path="url(#clipPath5677)" />
    <path
       id="path5731"
       d="M 39.026745,125.10571 C 39.016006,124.537 39,123.96557 39,123.39424 C 39,74.266235 78.872,34.394235 128,34.394235 C 177.128,34.394235 217,74.266235 217,123.39424 C 217,123.96557 216.98399,124.537 216.97325,125.10571 C 216.0608,76.765907 176.55673,37.817302 128,37.817302 C 79.443281,37.817302 39.939173,76.765907 39.026745,125.10571 z"
       style="opacity:0.42771086000000003;color:#000000;fill:url(#radialGradient5733);fill-opacity:1;fill-rule:evenodd;stroke:none;stroke-width:1;stroke-linecap:butt;stroke-linejoin:miter;marker:none;marker-start:none;marker-mid:none;marker-end:none;stroke-miterlimit:4;stroke-dasharray:none;stroke-dashoffset:0;stroke-opacity:1;visibility:visible;display:inline;overflow:visible;enable-background:accumulate" />
    <path
       style="font-size:20.48839951px;opacity:0.67857139;fill:url(#linearGradient5476);fill-opacity:1;fill-rule:evenodd;stroke:none;stroke-miterlimit:4;font-family:TrebuchetMS-Bold"
       d="M 128,24.15625 C 70.653079,24.156249 24.15625,70.647783 24.15625,128 C 24.15625,141.10668 26.600035,153.6405 31.03125,165.1875 C 54.107225,158.78282 86.652326,177.03125 117.96875,177.03125 C 143.87007,177.03125 165.47227,168.94668 191.09375,168.8125 C 192.4097,167.9749 193.57686,167.11554 194.5625,166.21875 C 195.9177,165.10706 196.6185,163.23943 197.34375,161.3125 L 197.84375,160 C 198.45253,158.44366 199.32702,155.10758 199.71875,153.28125 C 199.89345,152.48189 199.97268,151.63219 199.40625,151.1875 L 197.375,151.5625 C 191.00135,155.38456 175.07396,162.6723 160.15625,162.96875 C 141.67057,163.35519 104.41685,144.35006 100.53125,142.34375 L 100.15625,141.875 C 99.22456,139.65162 93.649246,126.40951 92.46875,123.625 C 119.28676,141.28487 141.522,151.07446 158.5625,152.59375 C 177.50874,154.27716 192.27305,143.92026 198.59375,139.5 C 199.8272,138.65829 200.7698,138.01793 201.15625,137.875 L 201.59375,137.1875 C 200.54559,130.52799 190.61033,98.30193 183.125,90.5625 C 181.04986,88.439717 179.38219,86.375513 176.03125,84.40625 C 148.93799,68.615064 84.605876,59.095627 81.59375,58.65625 L 81.09375,58.8125 L 80.90625,59.21875 C 80.906249,59.21875 80.682718,72.580261 80.65625,74.0625 C 78.448764,73.331967 71.585227,71.095461 61.78125,68.40625 C 74.573285,52.578 94.191163,38.531252 128.5,38.53125 C 177.91164,38.531248 218,78.593674 218,128 C 218,140.58516 215.3809,152.5427 210.6875,163.40625 C 216.80371,157.35068 222.57008,153.8373 227.625,157.40625 C 230.37267,148.08315 231.84375,138.21313 231.84375,128 C 231.84375,70.647786 185.34692,24.15625 128,24.15625 z M 152.125,85.875 C 152.58153,85.868148 153.04043,85.859779 153.5,85.875 C 168.67709,86.420253 180.61251,99.20848 180.09375,114.375 C 179.82377,121.7121 176.73225,128.49212 171.375,133.5 C 166.00186,138.53433 159.00444,141.17572 151.625,140.9375 C 136.47435,140.37107 124.57019,127.58285 125.0625,112.4375 C 125.3219,105.08981 128.42349,98.27323 133.8125,93.28125 C 138.84484,88.56156 145.27724,85.977766 152.125,85.875 z M 152.34375,93.96875 C 152.03421,93.966929 151.72198,93.980806 151.40625,94 C 146.98609,94.268726 142.82807,96.06324 139.5625,99.125 C 135.84103,102.61886 133.63285,107.34443 133.46875,112.46875 C 133.11937,123.0562 141.39189,131.98326 151.96875,132.375 C 157.10896,132.53379 161.99675,130.73326 165.75,127.25 C 169.49267,123.74025 171.68495,118.9469 171.84375,113.84375 C 172.19842,103.24042 163.86341,94.370561 153.28125,94 C 152.96098,93.988088 152.65329,93.970571 152.34375,93.96875 z M 156.46875,103.59375 C 161.16958,103.59375 164.93751,106.13678 164.9375,109.28125 C 164.9375,112.40985 161.16958,114.99999 156.46875,115 C 151.75203,115 147.9375,112.40455 147.9375,109.28125 C 147.93749,106.13678 151.75203,103.59375 156.46875,103.59375 z"
       id="path5464"
       sodipodi:nodetypes="cscsccccscccccccccccccccccssccsccccccccccscccccsccsssc" />
    <path
       style="font-size:20.48839951px;fill:#ffffff;fill-opacity:1;fill-rule:evenodd;stroke:none;stroke-miterlimit:4;filter:url(#filter5556);font-family:TrebuchetMS-Bold"
       d="M 128.01065,24.863357 C 70.663739,24.863356 24.166909,71.35489 24.166909,128.70711 C 24.166909,129.20733 24.191109,129.70857 24.198159,130.20711 C 24.999479,73.545594 71.163909,27.863356 128.01065,27.863357 C 184.8574,27.863357 231.02184,73.545596 231.82315,130.20711 C 231.8302,129.70857 231.8544,129.20733 231.8544,128.70711 C 231.8544,71.354893 185.35758,24.863357 128.01065,24.863357 z M 81.604409,59.363357 L 81.104409,59.519607 L 80.916909,59.925857 C 80.916919,59.925857 80.662129,73.287368 80.635659,74.769607 C 78.593289,74.09372 72.475489,72.096366 63.823159,69.675857 C 63.124579,70.482644 62.453009,71.295344 61.791909,72.113357 C 71.595879,74.802568 78.428169,77.039074 80.635659,77.769607 C 80.662129,76.287368 80.916919,62.925857 80.916909,62.925857 L 81.104409,62.519607 L 81.604409,62.363357 C 84.616539,62.802734 148.94863,72.322171 176.0419,88.113357 C 179.39284,90.08262 181.02926,92.146824 183.1044,94.269607 C 189.95148,101.34912 198.83396,128.86644 201.1044,138.61336 C 201.12242,138.60563 201.1508,138.58807 201.1669,138.58211 L 201.6044,137.89461 C 200.55624,131.2351 190.58973,99.00904 183.1044,91.269607 C 181.02926,89.146824 179.39284,87.08262 176.0419,85.113357 C 148.94863,69.322171 84.616539,59.802734 81.604409,59.363357 z M 152.3544,94.675857 C 152.04486,94.674036 151.73263,94.687913 151.4169,94.707107 C 146.99675,94.975833 142.80747,96.77035 139.5419,99.83211 C 135.82042,103.32597 133.6435,108.05154 133.4794,113.17586 C 133.45434,113.93517 133.48048,114.68633 133.5419,115.42586 C 133.8868,110.59236 136.00346,106.15412 139.5419,102.83211 C 142.80747,99.77035 146.99675,97.97584 151.4169,97.70711 C 152.04836,97.66872 152.65136,97.68329 153.2919,97.70711 C 163.11513,98.05109 170.96514,105.72021 171.76065,115.30086 C 171.77819,115.05156 171.81534,114.80186 171.82315,114.55086 C 172.17783,103.94753 163.87406,95.077668 153.2919,94.707107 C 152.97163,94.695195 152.66395,94.677678 152.3544,94.675857 z M 148.26065,111.48836 C 148.06141,111.97158 147.9169,112.46305 147.9169,112.98836 C 147.9169,116.11166 151.73144,118.70711 156.44815,118.70711 C 161.14899,118.7071 164.94815,116.11696 164.94815,112.98836 C 164.94816,112.46428 164.83289,111.97057 164.63565,111.48836 C 163.6542,113.89865 160.37064,115.7071 156.44815,115.70711 C 152.51465,115.70711 149.2497,113.89474 148.26065,111.48836 z M 125.07315,115.51961 C 125.06121,115.72722 125.04926,115.93613 125.0419,116.14461 C 124.54959,131.28996 136.485,144.07818 151.63565,144.64461 C 159.01509,144.88283 166.01251,142.24144 171.38565,137.20711 C 176.74291,132.19923 179.83441,125.41921 180.1044,118.08211 C 180.13178,117.28183 180.11372,116.49267 180.07315,115.70711 C 179.65559,122.80431 176.5909,129.34132 171.38565,134.20711 C 166.01251,139.24144 159.01509,141.88283 151.63565,141.64461 C 137.28444,141.10807 125.82378,129.60367 125.07315,115.51961 z M 92.479409,127.33211 C 93.659909,130.11662 99.23521,143.35873 100.1669,145.58211 L 100.5419,146.05086 C 104.4275,148.05717 141.68122,167.0623 160.1669,166.67586 C 175.08462,166.37941 191.01201,159.09167 197.38565,155.26961 L 199.4169,154.89461 C 199.4405,154.91314 199.45803,154.93717 199.4794,154.95711 C 199.55098,154.65125 199.67463,154.24374 199.7294,153.98836 C 199.9041,153.189 199.98333,152.3393 199.4169,151.89461 L 197.38565,152.26961 C 191.01201,156.09167 175.08462,163.37941 160.1669,163.67586 C 141.68122,164.0623 104.4275,145.05717 100.5419,143.05086 L 100.1669,142.58211 C 99.44602,140.86181 96.32366,133.42096 94.229409,128.45711 C 93.644839,128.07686 93.068409,127.71997 92.479409,127.33211 z M 217.9794,130.20711 C 217.17797,178.92694 177.4162,218.17586 128.51065,218.17586 C 102.74417,218.17586 79.520299,207.26304 63.198159,189.83211 C 62.600949,190.17083 62.019369,190.53804 61.479409,190.95711 C 77.868779,209.47987 101.83027,221.17586 128.51065,221.17586 C 177.91699,221.17586 218.01065,181.11875 218.01065,131.70711 C 218.01065,131.20632 217.98761,130.70595 217.9794,130.20711 z"
       id="path4856" />
    <path
       id="path5516"
       d="M 128.01065,24.863357 C 70.663739,24.863356 24.166909,71.35489 24.166909,128.70711 C 24.166909,129.20733 24.191109,129.70857 24.198159,130.20711 C 24.999479,73.545594 71.163909,27.863356 128.01065,27.863357 C 184.8574,27.863357 231.02184,73.545596 231.82315,130.20711 C 231.8302,129.70857 231.8544,129.20733 231.8544,128.70711 C 231.8544,71.354893 185.35758,24.863357 128.01065,24.863357 z M 81.604409,59.363357 L 81.104409,59.519607 L 80.916909,59.925857 C 80.916919,59.925857 80.662129,73.287368 80.635659,74.769607 C 78.593289,74.09372 72.475489,72.096366 63.823159,69.675857 C 63.124579,70.482644 62.453009,71.295344 61.791909,72.113357 C 71.595879,74.802568 78.428169,77.039074 80.635659,77.769607 C 80.662129,76.287368 80.916919,62.925857 80.916909,62.925857 L 81.104409,62.519607 L 81.604409,62.363357 C 84.616539,62.802734 148.94863,72.322171 176.0419,88.113357 C 179.39284,90.08262 181.02926,92.146824 183.1044,94.269607 C 189.95148,101.34912 198.83396,128.86644 201.1044,138.61336 C 201.12242,138.60563 201.1508,138.58807 201.1669,138.58211 L 201.6044,137.89461 C 200.55624,131.2351 190.58973,99.00904 183.1044,91.269607 C 181.02926,89.146824 179.39284,87.08262 176.0419,85.113357 C 148.94863,69.322171 84.616539,59.802734 81.604409,59.363357 z M 152.3544,94.675857 C 152.04486,94.674036 151.73263,94.687913 151.4169,94.707107 C 146.99675,94.975833 142.80747,96.77035 139.5419,99.83211 C 135.82042,103.32597 133.6435,108.05154 133.4794,113.17586 C 133.45434,113.93517 133.48048,114.68633 133.5419,115.42586 C 133.8868,110.59236 136.00346,106.15412 139.5419,102.83211 C 142.80747,99.77035 146.99675,97.97584 151.4169,97.70711 C 152.04836,97.66872 152.65136,97.68329 153.2919,97.70711 C 163.11513,98.05109 170.96514,105.72021 171.76065,115.30086 C 171.77819,115.05156 171.81534,114.80186 171.82315,114.55086 C 172.17783,103.94753 163.87406,95.077668 153.2919,94.707107 C 152.97163,94.695195 152.66395,94.677678 152.3544,94.675857 z M 148.26065,111.48836 C 148.06141,111.97158 147.9169,112.46305 147.9169,112.98836 C 147.9169,116.11166 151.73144,118.70711 156.44815,118.70711 C 161.14899,118.7071 164.94815,116.11696 164.94815,112.98836 C 164.94816,112.46428 164.83289,111.97057 164.63565,111.48836 C 163.6542,113.89865 160.37064,115.7071 156.44815,115.70711 C 152.51465,115.70711 149.2497,113.89474 148.26065,111.48836 z M 125.07315,115.51961 C 125.06121,115.72722 125.04926,115.93613 125.0419,116.14461 C 124.54959,131.28996 136.485,144.07818 151.63565,144.64461 C 159.01509,144.88283 166.01251,142.24144 171.38565,137.20711 C 176.74291,132.19923 179.83441,125.41921 180.1044,118.08211 C 180.13178,117.28183 180.11372,116.49267 180.07315,115.70711 C 179.65559,122.80431 176.5909,129.34132 171.38565,134.20711 C 166.01251,139.24144 159.01509,141.88283 151.63565,141.64461 C 137.28444,141.10807 125.82378,129.60367 125.07315,115.51961 z M 92.479409,127.33211 C 93.659909,130.11662 99.23521,143.35873 100.1669,145.58211 L 100.5419,146.05086 C 104.4275,148.05717 141.68122,167.0623 160.1669,166.67586 C 175.08462,166.37941 191.01201,159.09167 197.38565,155.26961 L 199.4169,154.89461 C 199.4405,154.91314 199.45803,154.93717 199.4794,154.95711 C 199.55098,154.65125 199.67463,154.24374 199.7294,153.98836 C 199.9041,153.189 199.98333,152.3393 199.4169,151.89461 L 197.38565,152.26961 C 191.01201,156.09167 175.08462,163.37941 160.1669,163.67586 C 141.68122,164.0623 104.4275,145.05717 100.5419,143.05086 L 100.1669,142.58211 C 99.44602,140.86181 96.32366,133.42096 94.229409,128.45711 C 93.644839,128.07686 93.068409,127.71997 92.479409,127.33211 z M 217.9794,130.20711 C 217.17797,178.92694 177.4162,218.17586 128.51065,218.17586 C 102.74417,218.17586 79.520299,207.26304 63.198159,189.83211 C 62.600949,190.17083 62.019369,190.53804 61.479409,190.95711 C 77.868779,209.47987 101.83027,221.17586 128.51065,221.17586 C 177.91699,221.17586 218.01065,181.11875 218.01065,131.70711 C 218.01065,131.20632 217.98761,130.70595 217.9794,130.20711 z"
       style="font-size:20.48839951px;opacity:0.35714285;fill:url(#radialGradient5526);fill-opacity:1;fill-rule:evenodd;stroke:none;stroke-miterlimit:4;font-family:TrebuchetMS-Bold" />
    <path
       style="opacity:0.63253012;color:#000000;fill:url(#radialGradient5571);fill-opacity:1;fill-rule:evenodd;stroke:none;stroke-width:1;stroke-linecap:butt;stroke-linejoin:miter;marker:none;marker-start:none;marker-mid:none;marker-end:none;stroke-miterlimit:4;stroke-dasharray:none;stroke-dashoffset:0;stroke-opacity:1;visibility:visible;display:inline;overflow:visible;enable-background:accumulate"
       d="M 26.03065,125.76924 C 26.018346,126.42104 26,127.07603 26,127.73076 C 26,184.03476 71.696,229.73076 128,229.73076 C 184.304,229.73076 230,184.03476 230,127.73076 C 230,127.07603 229.98165,126.42104 229.96935,125.76924 C 228.92365,181.16997 183.64927,225.8077 128,225.8077 C 72.350728,225.8077 27.076349,181.16997 26.03065,125.76924 z"
       id="path5560" />
    <path
       style="opacity:0.43975902;color:#000000;fill:url(#radialGradient5741);fill-opacity:1;fill-rule:evenodd;stroke:none;stroke-width:1;stroke-linecap:butt;stroke-linejoin:miter;marker:none;marker-start:none;marker-mid:none;marker-end:none;stroke-miterlimit:4;stroke-dasharray:none;stroke-dashoffset:0;stroke-opacity:1;visibility:visible;display:inline;overflow:visible;enable-background:accumulate"
       d="M 62.75,70 L 81.75,75.75 L 82.5,59.75 C 123.65097,66.363123 159.45833,76.125 181.25,89 C 154.64195,77.560383 154.29543,77.700717 124,86.75 C 104.75,92.5 102,111 102,111 C 70.571636,105.48002 77.702798,79.25369 62.75,70 z"
       id="path5735"
       sodipodi:nodetypes="ccccscc" />
    <path
       sodipodi:nodetypes="ccccsc"
       id="path5743"
       d="M 62.75,70 L 81.75,75.75 L 82.5,59.75 C 123.65097,66.363123 159.45833,76.125 181.25,89 C 154.64195,77.560383 152.17019,78.721421 122.25,85 C 92.340322,91.276374 89.459778,87.422396 62.75,70 z"
       style="opacity:0.43975902;color:#000000;fill:url(#radialGradient5751);fill-opacity:1;fill-rule:evenodd;stroke:none;stroke-width:1;stroke-linecap:butt;stroke-linejoin:miter;marker:none;marker-start:none;marker-mid:none;marker-end:none;stroke-miterlimit:4;stroke-dasharray:none;stroke-dashoffset:0;stroke-opacity:1;visibility:visible;display:inline;overflow:visible;enable-background:accumulate" />
    <path
       style="opacity:0.43975902;color:#000000;fill:url(#radialGradient5761);fill-opacity:1;fill-rule:evenodd;stroke:none;stroke-width:1;stroke-linecap:butt;stroke-linejoin:miter;marker:none;marker-start:none;marker-mid:none;marker-end:none;stroke-miterlimit:4;stroke-dasharray:none;stroke-dashoffset:0;stroke-opacity:1;visibility:visible;display:inline;overflow:visible;enable-background:accumulate"
       d="M 143.75,111 C 150.99324,117.73952 159.00914,119.32796 168.25,112.75 C 168.25,112.75 164.125,127.4375 152.5,126.5 C 140.60439,125.54068 143.75,111 143.75,111 z"
       id="path5753"
       sodipodi:nodetypes="cczc" />
    <path
       id="path5763"
       d="M 192.87149,51.969402 C 192.39415,51.545847 191.91827,51.115756 191.43092,50.699484 C 149.52104,14.902167 86.45433,19.863088 50.657024,61.772954 C 14.859703,103.68284 19.82062,166.74955 61.730495,202.54686 C 62.21784,202.96314 62.717038,203.36591 63.210031,203.77115 C 22.637342,167.76976 18.196092,105.68972 53.577133,64.267199 C 88.958191,22.844663 150.96912,17.524742 192.87149,51.969402 z"
       style="opacity:0.37349399;color:#000000;fill:url(#radialGradient5773);fill-opacity:1;fill-rule:evenodd;stroke:none;stroke-width:1;stroke-linecap:butt;stroke-linejoin:miter;marker:none;marker-start:none;marker-mid:none;marker-end:none;stroke-miterlimit:4;stroke-dasharray:none;stroke-dashoffset:0;stroke-opacity:1;visibility:visible;display:inline;overflow:visible;enable-background:accumulate" />
    <path
       style="opacity:0.37349399;color:#000000;fill:url(#radialGradient5787);fill-opacity:1;fill-rule:evenodd;stroke:none;stroke-width:1;stroke-linecap:butt;stroke-linejoin:miter;marker:none;marker-start:none;marker-mid:none;marker-end:none;stroke-miterlimit:4;stroke-dasharray:none;stroke-dashoffset:0;stroke-opacity:1;visibility:visible;display:inline;overflow:visible;enable-background:accumulate"
       d="M 192.87149,51.969402 C 192.39415,51.545847 191.91827,51.115756 191.43092,50.699484 C 149.52104,14.902167 86.45433,19.863088 50.657024,61.772954 C 14.859703,103.68284 19.82062,166.74955 61.730495,202.54686 C 62.21784,202.96314 62.717038,203.36591 63.210031,203.77115 C 22.541443,167.74236 15.077245,102.76291 52.577133,63.017199 C 89.961824,23.393587 150.96912,17.524742 192.87149,51.969402 z"
       id="path5775"
       sodipodi:nodetypes="cssscsc" />
    <path
       style="opacity:0.37349399000000000;color:#000000;fill:#73d216;fill-opacity:1;fill-rule:evenodd;stroke:none;stroke-width:1;stroke-linecap:butt;stroke-linejoin:miter;marker:none;marker-start:none;marker-mid:none;marker-end:none;stroke-miterlimit:4;stroke-dasharray:none;stroke-dashoffset:0;stroke-opacity:1;visibility:visible;display:inline;overflow:visible;enable-background:accumulate;filter:url(#filter5825)"
       d="M 216.72823,157.71216 L 222.73864,155.23728 C 229.64788,131.27832 224.46615,110.70791 216.72823,93.011887 C 222.42691,111.98592 225.15976,134.84904 216.72823,157.71216 z"
       id="path5791"
       sodipodi:nodetypes="cccc" />
    <path
       style="opacity:0.37349399000000000;color:#000000;fill:url(#radialGradient5837);fill-opacity:1;fill-rule:evenodd;stroke:none;stroke-width:1;stroke-linecap:butt;stroke-linejoin:miter;marker:none;marker-start:none;marker-mid:none;marker-end:none;stroke-miterlimit:4;stroke-dasharray:none;stroke-dashoffset:0;stroke-opacity:1;visibility:visible;display:inline;overflow:visible;enable-background:accumulate"
       d="M 94,133 L 98.75,144 L 120,153.75 L 96.5,146.25 L 94,133 z"
       id="path5829" />
    <path
       style="opacity:0.37349399000000000;color:#000000;fill:url(#radialGradient5847);fill-opacity:1;fill-rule:evenodd;stroke:none;stroke-width:1;stroke-linecap:butt;stroke-linejoin:miter;marker:none;marker-start:none;marker-mid:none;marker-end:none;stroke-miterlimit:4;stroke-dasharray:none;stroke-dashoffset:0;stroke-opacity:1;visibility:visible;display:inline;overflow:visible;enable-background:accumulate"
       d="M 141,162.25 C 159.02045,167.54807 176.31262,165.19918 193,156.5 C 174.94571,169.23096 157.72287,169.49023 141,162.25 z"
       id="path5839"
       sodipodi:nodetypes="ccc" />
  </g>
</svg>
