<?xml version="1.0" encoding="UTF-8" standalone="no"?>
<!-- Created with Inkscape (http://www.inkscape.org/) -->
<svg
   xmlns:dc="http://purl.org/dc/elements/1.1/"
   xmlns:cc="http://web.resource.org/cc/"
   xmlns:rdf="http://www.w3.org/1999/02/22-rdf-syntax-ns#"
   xmlns:svg="http://www.w3.org/2000/svg"
   xmlns="http://www.w3.org/2000/svg"
   xmlns:xlink="http://www.w3.org/1999/xlink"
   xmlns:sodipodi="http://sodipodi.sourceforge.net/DTD/sodipodi-0.dtd"
   xmlns:inkscape="http://www.inkscape.org/namespaces/inkscape"
   width="594.6626"
   height="622.50458"
   id="svg2"
   sodipodi:version="0.32"
   inkscape:version="0.44"
   sodipodi:docbase="/home/mike/gentoo-cvs/gentoo/xml/images"
   sodipodi:docname="gentoo-logo.svg"
   version="1.0">
  <defs
     id="defs4">
    <linearGradient
       id="linearGradient2096">
      <stop
         style="stop-color:#7e3615;stop-opacity:1.0000000;"
         offset="0.0000000"
         id="stop2098" />
      <stop
         id="stop2100"
         offset="0.50000000"
         style="stop-color:#7e3615;stop-opacity:1.0000000;" />
      <stop
         style="stop-color:#ed5b1a;stop-opacity:1.0000000;"
         offset="1.0000000"
         id="stop2102" />
    </linearGradient>
    <linearGradient
       id="linearGradient2085">
      <stop
         style="stop-color:#7f3615;stop-opacity:1.0000000;"
         offset="0.0000000"
         id="stop2087" />
      <stop
         id="stop2089"
         offset="0.50000000"
         style="stop-color:#ef743d;stop-opacity:1.0000000;" />
      <stop
         style="stop-color:#ef743d;stop-opacity:1.0000000;"
         offset="1.0000000"
         id="stop2091" />
    </linearGradient>
    <linearGradient
       id="linearGradient2077">
      <stop
         id="stop2079"
         offset="0.0000000"
         style="stop-color:#ed5b1a;stop-opacity:1.0000000;" />
      <stop
         style="stop-color:#ed5b1a;stop-opacity:1.0000000;"
         offset="0.50000000"
         id="stop2083" />
      <stop
         id="stop2081"
         offset="1.0000000"
         style="stop-color:#7e3615;stop-opacity:1.0000000;" />
    </linearGradient>
    <linearGradient
       inkscape:collect="always"
       id="linearGradient3560">
      <stop
         style="stop-color:#ffffff;stop-opacity:1;"
         offset="0"
         id="stop3562" />
      <stop
         style="stop-color:#ffffff;stop-opacity:0;"
         offset="1"
         id="stop3564" />
    </linearGradient>
    <linearGradient
       inkscape:collect="always"
       id="linearGradient3539">
      <stop
         style="stop-color:#ffffff;stop-opacity:1;"
         offset="0"
         id="stop3541" />
      <stop
         style="stop-color:#ffffff;stop-opacity:0;"
         offset="1"
         id="stop3543" />
    </linearGradient>
    <linearGradient
       id="linearGradient3004">
      <stop
         id="stop3006"
         offset="0"
         style="stop-color:#ffffff;stop-opacity:1;" />
      <stop
         style="stop-color:#ffffff;stop-opacity:1;"
         offset="0.34214258"
         id="stop7609" />
      <stop
         style="stop-color:#bebdf3;stop-opacity:1;"
         offset="0.51998252"
         id="stop7599" />
      <stop
         id="stop7611"
         offset="0.75408828"
         style="stop-color:#8f82f9;stop-opacity:1;" />
      <stop
         style="stop-color:#9f99c7;stop-opacity:1;"
         offset="0.8711412"
         id="stop7613" />
      <stop
         id="stop3008"
         offset="1"
         style="stop-color:#524c76;stop-opacity:1;" />
    </linearGradient>
    <linearGradient
       id="linearGradient2988">
      <stop
         style="stop-color:#c9491c;stop-opacity:1.0000000;"
         offset="0.0000000"
         id="stop2990" />
      <stop
         style="stop-color:#6b2e26;stop-opacity:1.0000000;"
         offset="1.0000000"
         id="stop2992" />
    </linearGradient>
    <linearGradient
       id="linearGradient2980">
      <stop
         style="stop-color:#e76226;stop-opacity:1.0000000;"
         offset="0.0000000"
         id="stop2982" />
      <stop
         style="stop-color:#7e3615;stop-opacity:1.0000000;"
         offset="1.0000000"
         id="stop2984" />
    </linearGradient>
    <linearGradient
       id="linearGradient2127">
      <stop
         style="stop-color:#cc0045;stop-opacity:1.0000000;"
         offset="0.0000000"
         id="stop2129" />
      <stop
         style="stop-color:#ff794d;stop-opacity:1.0000000;"
         offset="1.0000000"
         id="stop2131" />
    </linearGradient>
    <linearGradient
       inkscape:collect="always"
       xlink:href="#linearGradient3004"
       id="linearGradient2986"
       x1="464.01675"
       y1="697.43707"
       x2="368.62137"
       y2="269.70941"
       gradientUnits="userSpaceOnUse"
       gradientTransform="matrix(1.237124,0,0,1.237124,-161.0905,-377.3414)" />
    <linearGradient
       inkscape:collect="always"
       xlink:href="#linearGradient3004"
       id="linearGradient2994"
       x1="783.86316"
       y1="-313.5238"
       x2="1099.6853"
       y2="1340.5599"
       gradientUnits="userSpaceOnUse"
       gradientTransform="matrix(1.237124,0,0,1.237124,-1037.425,-1010.413)" />
    <linearGradient
       inkscape:collect="always"
       xlink:href="#linearGradient3004"
       id="linearGradient2786"
       gradientUnits="userSpaceOnUse"
       x1="142.8909"
       y1="560.31262"
       x2="305.19791"
       y2="560.31262" />
    <radialGradient
       inkscape:collect="always"
       xlink:href="#linearGradient3004"
       id="radialGradient2788"
       gradientUnits="userSpaceOnUse"
       gradientTransform="matrix(-2.182864e-2,-1.020879,1.918033,-4.101524e-2,-759.031,896.8714)"
       cx="298.04648"
       cy="512.46417"
       fx="298.04648"
       fy="512.46417"
       r="218.02184" />
    <linearGradient
       inkscape:collect="always"
       xlink:href="#linearGradient3004"
       id="linearGradient2801"
       gradientUnits="userSpaceOnUse"
       x1="34.285702"
       y1="185.21933"
       x2="-32.857155"
       y2="205.21933"
       gradientTransform="matrix(0.413051,0,0,0.413051,209.7551,299.5351)" />
    <radialGradient
       inkscape:collect="always"
       xlink:href="#linearGradient3539"
       id="radialGradient3553"
       cx="278.19101"
       cy="365.99103"
       fx="278.19101"
       fy="365.99103"
       r="22.023195"
       gradientTransform="matrix(-1.335307,0.232165,-0.156016,-0.897333,707.4359,624.6685)"
       gradientUnits="userSpaceOnUse" />
    <radialGradient
       inkscape:collect="always"
       xlink:href="#linearGradient3560"
       id="radialGradient3566"
       cx="281.96429"
       cy="374.32648"
       fx="281.96429"
       fy="374.32648"
       r="30.535715"
       gradientTransform="matrix(1.586984,6.491459e-2,-3.791318e-3,0.906694,-164.0892,16.62349)"
       gradientUnits="userSpaceOnUse" />
    <radialGradient
       inkscape:collect="always"
       xlink:href="#linearGradient2085"
       id="radialGradient2075"
       cx="616.66583"
       cy="357.7851"
       fx="616.66583"
       fy="357.7851"
       r="77.994896"
       gradientTransform="matrix(-0.784367,2.082605,-1.36893,-0.515577,1619.589,-726.3586)"
       gradientUnits="userSpaceOnUse" />
    <radialGradient
       inkscape:collect="always"
       xlink:href="#linearGradient3004"
       id="radialGradient3228"
       gradientUnits="userSpaceOnUse"
       gradientTransform="matrix(-6.60395e-2,4.190266,-3.573754,-5.626827e-2,2168.154,-1171.421)"
       cx="332.72311"
       cy="590.5899"
       fx="332.72311"
       fy="590.5899"
       r="218.02184" />
    <radialGradient
       inkscape:collect="always"
       xlink:href="#linearGradient3004"
       id="radialGradient5851"
       cx="49.529819"
       cy="320.08572"
       fx="49.529819"
       fy="320.08572"
       r="31.94874"
       gradientTransform="matrix(3.287367,0,0,2.519654,111.6891,-642.7214)"
       gradientUnits="userSpaceOnUse" />
  </defs>
  <sodipodi:namedview
     id="base"
     pagecolor="#ffffff"
     bordercolor="#666666"
     borderopacity="1.0"
     inkscape:pageopacity="0.0"
     inkscape:pageshadow="2"
     inkscape:zoom="1"
     inkscape:cx="341.56282"
     inkscape:cy="336.08702"
     inkscape:document-units="px"
     inkscape:current-layer="layer4"
     inkscape:window-width="1024"
     inkscape:window-height="719"
     inkscape:window-x="0"
     inkscape:window-y="27" />
  <metadata
     id="metadata7">
    <rdf:RDF>
      <cc:Work
         rdf:about="">
        <dc:format>image/svg+xml</dc:format>
        <dc:type
           rdf:resource="http://purl.org/dc/dcmitype/StillImage" />
      </cc:Work>
    </rdf:RDF>
  </metadata>
  <g
     inkscape:groupmode="layer"
     id="layer2"
     inkscape:label="back"
     style="display:inline"
     sodipodi:insensitive="true"
     transform="translate(-25.69105,-25.5213)">
    <path
       id="path2973"
       style="opacity:1;fill:url(#linearGradient2994);fill-opacity:1;fill-rule:evenodd;stroke:none;stroke-width:4;stroke-linecap:butt;stroke-linejoin:miter;stroke-miterlimit:4;stroke-opacity:1"
       d="M 25.756851,521.91391 C 25.825031,495.65357 48.148853,458.98977 79.868697,425.68116 C 101.06675,403.42137 122.59556,383.88231 169.52585,343.86782 C 137.06358,326.05537 86.575337,304.5643 61.242464,276.41883 C 51.868932,266.00461 34.879101,242.4107 38.174477,210.88878 C 44.890902,146.64282 124.18914,49.142619 236.90525,28.529375 C 274.4094,21.670714 317.46879,26.621594 352.90796,42.554294 C 464.08832,92.538537 600.05593,216.71656 616.78506,277.34922 C 622.67343,298.69087 621.54162,332.70947 611.39031,351.66904 C 598.8089,375.16727 555.25451,422.89399 495.66547,472.14219 C 402.16607,549.41609 271.14445,632.39066 173.31256,646.35271 C 141.70156,650.86406 109.40481,646.15872 86.740094,633.36993 C 51.279241,613.36083 39.508186,586.6468 35.370326,578.63961 C 24.367104,557.34729 25.73287,530.37254 25.756851,521.91391 z M 288.89937,226.87362 C 290.10675,211.9842 348.49263,226.80785 344.80352,238.59909 C 340.91155,251.03875 287.51426,243.95446 288.89937,226.87362 z "
       sodipodi:nodetypes="cscssssssssssscss" />
  </g>
  <g
     inkscape:groupmode="layer"
     id="layer4"
     inkscape:label="mid"
     style="display:inline"
     sodipodi:insensitive="true"
     transform="translate(-25.69105,-25.5213)">
    <path
       id="path2975"
       style="opacity:1;fill:url(#linearGradient2986);fill-opacity:1;fill-rule:evenodd;stroke:none;stroke-width:4;stroke-linecap:butt;stroke-linejoin:miter;stroke-miterlimit:4;stroke-dasharray:none;stroke-opacity:1"
       d="M 201.12502,319.26488 C 170.40092,345.206 149.97273,362.69737 124.3619,386.10521 C 62.686019,442.47585 20.779962,485.38384 42.384986,544.03745 C 67.307886,611.6985 121.94112,608.26771 186.00654,595.69143 C 351.14346,563.12161 622.59855,354.43165 608.76251,277.34931 C 597.56708,214.97818 445.90819,90.975251 356.11423,46.84913 C 328.062,33.063819 295.73224,25.934162 263.30502,27.459889 C 139.83437,33.287522 43.410732,145.70192 48.3364,206.6102 C 53.12843,265.866 202.89233,317.49757 201.12502,319.26488 z M 182.59146,112.40184 C 145.4382,153.73813 169.19273,233.71314 230.80632,277.3046 C 302.90158,328.31181 419.65062,337.54732 442.88372,298.21016 C 486.21887,224.83738 438.90343,147.25466 368.27318,112.64681 C 298.47778,78.448086 205.75091,86.63492 182.59146,112.40184 z "
       sodipodi:nodetypes="csssssssccssss" />
    <path
       id="path4976"
       style="opacity:1;fill:url(#radialGradient5851);fill-opacity:1;fill-rule:evenodd;stroke:none;stroke-width:4;stroke-linecap:butt;stroke-linejoin:miter;stroke-miterlimit:4;stroke-dasharray:none;stroke-opacity:1;display:inline"
       d="M 309.29559,275.57053 C 361.45453,282.82047 406.41278,261.93195 413.44309,210.42711 C 418.79846,171.19341 358.75371,128.32717 322.65314,118.4403 C 292.50683,110.18416 227.05767,120.80064 222.64536,177.81809 C 218.05858,237.09011 278.88214,271.34317 309.29559,275.57053 z M 283.75291,176.98953 C 249.47413,230.09349 333.52318,246.4198 346.39128,236.73513 C 401.86836,194.98252 298.85531,153.59322 283.75291,176.98953 z "
       sodipodi:nodetypes="csssscss" />
  </g>
  <g
     inkscape:groupmode="layer"
     id="layer5"
     inkscape:label="top"
     style="display:inline"
     sodipodi:insensitive="true"
     transform="translate(-25.69105,-25.5213)">
    <path
       style="opacity:1;fill:url(#radialGradient3228);fill-opacity:1;fill-rule:evenodd;stroke:none;stroke-width:4;stroke-linecap:butt;stroke-linejoin:miter;stroke-miterlimit:4;stroke-dasharray:none;stroke-opacity:1"
       d="M 253.35285,41.570018 C 192.71898,47.959829 181.10644,55.76371 126.17687,97.322591 C 107.767,111.25125 73.883463,145.14202 65.201668,185.34831 C 61.895163,200.66106 65.803612,213.8809 76.831852,223.15243 C 112.14485,252.84039 171.24791,276.92638 219.73633,300.20947 C 233.93865,307.02911 224.53507,319.39451 201.63241,339.22199 C 143.84068,389.25385 65.705469,450.15645 60.25071,496.56402 C 57.680295,518.43239 65.166835,548.14722 91.710107,563.35382 C 122.71683,581.11751 187.08224,569.52337 230.06148,553.51882 C 292.86747,530.1312 375.36929,478.51514 440.86776,427.77778 C 508.97789,375.01736 572.3054,308.00452 575.43793,297.07484 C 579.28461,283.65337 578.90118,271.25689 571.47758,257.00416 C 559.81983,234.62227 544.23417,217.99109 527.49924,199.37578 C 482.59667,152.03725 435.087,110.44129 378.2447,78.565883 C 337.19672,55.547464 301.08129,36.540217 253.35285,41.570018 z M 342.42072,147.69946 C 386.22586,168.87809 431.21043,224.50639 342.03037,256.52426 C 317.78022,265.23068 240.87245,235.14204 243.22679,194.08046 C 246.65995,133.42478 288.93402,121.84005 342.42072,147.69946 z "
       id="path2977"
       sodipodi:nodetypes="cssssssssssscsscsss" />
  </g>
</svg>
