<?xml version="1.0" encoding="utf-8"?>
<!-- Generator: Adobe Illustrator 18.1.0, SVG Export Plug-In . SVG Version: 6.00 Build 0)  -->
<svg version="1.1" id="Layer_1" xmlns="http://www.w3.org/2000/svg" xmlns:xlink="http://www.w3.org/1999/xlink" x="0px" y="0px"
	 viewBox="78 -63 256 227" enable-background="new 78 -63 256 227" xml:space="preserve">
<g>
	<path fill="#CAC9C2" d="M159.6,127.5l-44.9-77.8l44.9-77.8h89.9l44.9,77.8l-44.9,77.8H159.6"/>
	<path fill="#FFFFFF" d="M206,85.2c-19.3,0-35-15.7-35-35c0-19.3,15.7-35,35-35c19.3,0,35,15.7,35,35C241,69.5,225.3,85.2,206,85.2"
		/>
	<g transform="translate(25.207161, 0.000000)">
		<path fill="#5072AA" d="M251.3-54.3c-2.8-4.8-9.5-8.7-15-8.7H125.5c-5.5,0-12.3,3.9-15,8.7l-32.4,56c-0.3,3.6,0.4,7.4,2,10.2
			L102,49.4l39.1-67.6h123.6c2.9,0,6.2,1.1,9,2.9L251.3-54.3"/>
		<path fill="#4D6796" d="M79.5-0.7l-1.4,2.5c-0.3,3.6,0.4,7.4,2,10.2L102,49.4l11.7-20.1L79.5-0.7"/>
		<path fill="#FFFFFF" d="M128.3-34.2c-3.7,0-6.8-3-6.8-6.8c0-3.7,3-6.8,6.8-6.8c3.7,0,6.8,3,6.8,6.8
			C135.1-37.2,132.1-34.2,128.3-34.2"/>
		<path fill="#FFFFFF" d="M239.1-40.9c0,3.5-2.8,6.3-6.3,6.3s-6.3-2.8-6.3-6.3s2.8-6.3,6.3-6.3S239.1-44.4,239.1-40.9L239.1-40.9z"
			/>
	</g>
	<g transform="translate(138.475703, 44.521739)">
		<path fill="#CC4232" d="M193.4-2.9l-32.9-56.9c-2.8-1.7-6.1-2.9-9-2.9h-44.6l38.5,67.9L84.4,113c-1.3,2.3-3.6,4.4-6.3,6H123
			c5.5,0,12.3-3.9,15-8.7l55.4-95.9C196.1,9.7,196.1,1.9,193.4-2.9"/>
		<path fill="#B23F33" d="M162-57.3l-1.5-2.6c-2.8-1.7-6.1-2.9-9-2.9h-44.6l11.6,20.4L162-57.3"/>
		<path fill="#FFFFFF" d="M119.6,102.5c-3.7,0-6.8-3-6.8-6.8s3-6.8,6.8-6.8c3.7,0,6.8,3,6.8,6.8S123.3,102.5,119.6,102.5"/>
		<path fill="#FFFFFF" d="M172.2,12.4c-3.7,0-6.8-3-6.8-6.8c0-3.7,3-6.8,6.8-6.8c3.7,0,6.8,3,6.8,6.8
			C178.9,9.4,175.9,12.4,172.2,12.4"/>
	</g>
	<g transform="translate(0.000000, 64.491049)">
		<path fill="#ECB02A" d="M167.2,53.2L105.3-52.6c-1.6-2.8-2.3-6.5-2-10.2l-23,39.9c-2.8,4.8-2.8,12.6,0,17.3l55.4,95.9
			c2.8,4.8,9.5,8.7,15,8.7h65.9c2.6-1.6,4.9-3.7,6.3-6l22.6-39.9H167.2"/>
		<path fill="#C79732" d="M212.9,99.1h3.8c2.6-1.6,4.9-3.7,6.3-6l22.6-39.9h-24L212.9,99.1"/>
		<path fill="#FFFFFF" d="M153.6,82.5c-3.7,0-6.8-3-6.8-6.8s3-6.8,6.8-6.8c3.7,0,6.8,3,6.8,6.8S157.3,82.5,153.6,82.5"/>
		<path fill="#FFFFFF" d="M100.9-7.6c-3.7,0-6.8-3-6.8-6.8c0-3.7,3-6.8,6.8-6.8c3.7,0,6.8,3,6.8,6.8C107.6-10.6,104.6-7.6,100.9-7.6
			"/>
	</g>
</g>
</svg>
