<?xml version="1.0" encoding="utf-8"?>
<!-- Generator: Adobe Illustrator 18.1.0, SVG Export Plug-In . SVG Version: 6.00 Build 0)  -->
<svg version="1.1" id="Layer_1" xmlns="http://www.w3.org/2000/svg" xmlns:xlink="http://www.w3.org/1999/xlink" x="0px" y="0px"
	 viewBox="78 -74 256 249" enable-background="new 78 -74 256 249" xml:space="preserve">
<g>
	<path fill="#326DE6" d="M160.1,170.9c-5.9,0-11.6-2.6-15.4-7.4L86.9,91.7c-3.8-4.8-5.3-10.9-3.8-16.8l20.6-89.7
		c1.3-5.9,5.3-10.7,10.7-13.4l83.6-40c2.6-1.3,5.6-2,8.6-2s5.9,0.7,8.6,2l83.6,39.8c5.5,2.6,9.4,7.4,10.7,13.4l20.6,89.7
		c1.3,5.9,0,12.1-3.8,16.8l-57.8,71.8c-3.8,4.6-9.4,7.4-15.4,7.4L160.1,170.9L160.1,170.9z"/>
	<path fill="#FFFFFF" d="M206.5-66.1c2.3,0,4.6,0.5,6.8,1.5l83.6,39.8c4.3,2.1,7.6,6.1,8.6,10.7l20.6,89.7c1.2,4.8,0,9.7-3.1,13.5
		L265.1,161c-3,3.8-7.6,5.9-12.4,5.9h-92.7c-4.8,0-9.4-2.1-12.4-5.9L89.9,89.2c-3-3.8-4.1-8.8-3.1-13.5L107.4-14
		c1.2-4.8,4.3-8.8,8.6-10.7l83.6-40C201.7-65.6,204.2-66.1,206.5-66.1L206.5-66.1z M206.5-73.8L206.5-73.8c-3.5,0-6.9,0.8-10.2,2.3
		l-83.6,40c-6.6,3.1-11.2,8.9-12.9,16L79.2,74.1c-1.7,7.1,0,14.4,4.6,20.1l57.8,71.8c4.5,5.6,11.2,8.8,18.3,8.8h92.7
		c7.1,0,13.9-3.1,18.3-8.8l57.8-71.8c4.6-5.6,6.3-13,4.6-20.1l-20.6-89.7c-1.7-7.1-6.3-12.9-12.9-16l-83.2-40
		C213.4-73,210-73.8,206.5-73.8L206.5-73.8L206.5-73.8z"/>
	<path fill="#FFFFFF" d="M290.2,68.5L290.2,68.5L290.2,68.5C290.1,68.5,290.1,68.5,290.2,68.5h-0.2c-0.2,0-0.3,0-0.3-0.2
		c-0.3,0-0.7-0.2-1-0.2c-1.2-0.2-2.1-0.3-3.1-0.3c-0.5,0-1,0-1.7-0.2h-0.2c-3.5-0.3-6.3-0.7-8.9-1.5c-1.2-0.5-1.5-1.2-1.8-1.8
		c0-0.2-0.2-0.2-0.2-0.3l0,0l-2.1-0.7c1-7.6,0.7-15.5-1.2-23.3s-5-15-9.2-21.6L262,17v-0.3c0-0.8,0.2-1.7,0.8-2.5
		c2-1.8,4.5-3.3,7.4-5.1l0,0c0.5-0.3,1-0.5,1.5-0.8c1-0.5,1.8-1,2.8-1.7c0.2-0.2,0.5-0.3,0.8-0.7c0.2-0.2,0.3-0.2,0.3-0.3l0,0
		c2.3-2,2.8-5.3,1.2-7.4c-0.8-1.2-2.3-1.8-3.8-1.8c-1.3,0-2.5,0.5-3.6,1.3l0,0l0,0c-0.2,0.2-0.2,0.2-0.3,0.3
		c-0.3,0.2-0.5,0.5-0.8,0.7c-0.8,0.8-1.5,1.5-2.1,2.3c-0.3,0.3-0.7,0.8-1.2,1.2l0,0c-2.3,2.5-4.5,4.5-6.6,5.9
		c-0.5,0.3-1,0.5-1.5,0.5c-0.3,0-0.7,0-1-0.2h-0.3l0,0l-2,1.3c-2.1-2.3-4.5-4.3-6.8-6.3c-9.9-7.8-22-12.6-34.5-13.7l-0.2-2.1
		c-0.2-0.2-0.2-0.2-0.3-0.3c-0.5-0.5-1.2-1-1.3-2.1c-0.2-2.6,0.2-5.6,0.5-8.9V-24c0-0.5,0.2-1.2,0.3-1.7c0.2-1,0.3-2,0.5-3.1v-1
		v-0.5l0,0l0,0c0-3-2.3-5.5-5.1-5.5c-1.3,0-2.6,0.7-3.6,1.7s-1.5,2.3-1.5,3.8l0,0l0,0v0.3v1c0,1.2,0.2,2.1,0.5,3.1
		c0.2,0.5,0.2,1,0.3,1.7v0.2c0.3,3.3,0.8,6.3,0.5,8.9c-0.2,1.2-0.8,1.7-1.3,2.1c-0.2,0.2-0.2,0.2-0.3,0.3l0,0l-0.2,2.1
		c-3,0.3-5.9,0.7-8.9,1.3c-12.7,2.8-23.9,9.2-32.7,18.5l-1.7-1.2h-0.3c-0.3,0-0.7,0.2-1,0.2c-0.5,0-1-0.2-1.5-0.5
		c-2.1-1.5-4.3-3.6-6.6-6.1l0,0c-0.3-0.3-0.7-0.8-1.2-1.2c-0.7-0.8-1.3-1.5-2.1-2.3c-0.2-0.2-0.5-0.3-0.8-0.7
		c-0.2-0.2-0.3-0.2-0.3-0.3l0,0c-1-0.8-2.3-1.3-3.6-1.3c-1.5,0-3,0.7-3.8,1.8c-1.7,2.1-1.2,5.5,1.2,7.4l0,0l0,0
		c0.2,0,0.2,0.2,0.3,0.2c0.3,0.2,0.5,0.5,0.8,0.7c1,0.7,1.8,1.2,2.8,1.7c0.5,0.2,1,0.5,1.5,0.8l0,0c3,1.8,5.5,3.3,7.4,5.1
		c0.8,0.8,0.8,1.7,0.8,2.5v0.3l0,0L153,18c-0.3,0.5-0.7,0.8-0.8,1.3c-8.3,13-11.4,28.4-9.2,43.6l-2.1,0.7c0,0.2-0.2,0.2-0.2,0.3
		c-0.3,0.7-0.8,1.3-1.8,1.8c-2.5,0.8-5.5,1.2-8.9,1.5h-0.2c-0.5,0-1.2,0-1.7,0.2c-1,0-2,0.2-3.1,0.3c-0.3,0-0.7,0.2-1,0.2
		c-0.2,0-0.3,0-0.5,0.2l0,0l0,0c-3,0.7-4.8,3.5-4.3,6.1c0.5,2.3,2.6,3.8,5.3,3.8c0.5,0,0.8,0,1.3-0.2l0,0l0,0c0.2,0,0.3,0,0.3-0.2
		c0.3,0,0.7-0.2,1-0.2c1.2-0.3,2-0.7,3-1.2c0.5-0.2,1-0.5,1.5-0.7h0.2c3.1-1.2,5.9-2.1,8.6-2.5h0.3c1,0,1.7,0.5,2.1,0.8
		c0.2,0,0.2,0.2,0.3,0.2l0,0l2.3-0.3c4,12.2,11.6,23.1,21.6,31.1c2.3,1.8,4.6,3.3,7.1,4.8l-1,2.1c0,0.2,0.2,0.2,0.2,0.3
		c0.3,0.7,0.7,1.5,0.3,2.6c-1,2.5-2.5,5-4.3,7.8v0.2c-0.3,0.5-0.7,0.8-1,1.3c-0.7,0.8-1.2,1.7-1.8,2.6c-0.2,0.2-0.3,0.5-0.5,0.8
		c0,0.2-0.2,0.3-0.2,0.3l0,0l0,0c-1.3,2.8-0.3,5.9,2.1,7.1c0.7,0.3,1.3,0.5,2,0.5c2,0,4-1.3,5-3.1l0,0l0,0c0-0.2,0.2-0.3,0.2-0.3
		c0.2-0.3,0.3-0.7,0.5-0.8c0.5-1.2,0.7-2,1-3c0.2-0.5,0.3-1,0.5-1.5l0,0c1.2-3.3,2-5.9,3.5-8.3c0.7-1,1.5-1.2,2.1-1.5
		c0.2,0,0.2,0,0.3-0.2l0,0l1.2-2.1c7.3,2.8,15.2,4.3,23.1,4.3c4.8,0,9.7-0.5,14.4-1.7c3-0.7,5.8-1.5,8.6-2.5l1,1.8
		c0.2,0,0.2,0,0.3,0.2c0.8,0.2,1.5,0.5,2.1,1.5c1.3,2.3,2.3,5.1,3.5,8.3v0.2c0.2,0.5,0.3,1,0.5,1.5c0.3,1,0.5,2,1,3
		c0.2,0.3,0.3,0.5,0.5,0.8c0,0.2,0.2,0.3,0.2,0.3l0,0l0,0c1,2,3,3.1,5,3.1c0.7,0,1.3-0.2,2-0.5c1.2-0.7,2.1-1.7,2.5-3
		s0.3-2.8-0.3-4.1l0,0l0,0c0-0.2-0.2-0.2-0.2-0.3c-0.2-0.3-0.3-0.7-0.5-0.8c-0.5-1-1.2-1.8-1.8-2.6c-0.3-0.5-0.7-0.8-1-1.3v-0.2
		c-1.8-2.8-3.5-5.3-4.3-7.8c-0.3-1.2,0-1.8,0.2-2.6c0-0.2,0.2-0.2,0.2-0.3l0,0l-0.8-2c8.8-5.1,16.2-12.4,21.8-21.3
		c3-4.6,5.3-9.7,6.9-14.9l2,0.3c0.2,0,0.2-0.2,0.3-0.2c0.7-0.3,1.2-0.8,2.1-0.8h0.3c2.6,0.3,5.5,1.3,8.6,2.5h0.2
		c0.5,0.2,1,0.5,1.5,0.7c1,0.5,1.8,0.8,3,1.2c0.3,0,0.7,0.2,1,0.2c0.2,0,0.3,0,0.5,0.2l0,0c0.5,0.2,0.8,0.2,1.3,0.2
		c2.5,0,4.6-1.7,5.3-3.8C295,72,293.2,69.4,290.2,68.5L290.2,68.5z M213.8,60.4l-7.3,3.5l-7.3-3.5l-1.8-7.8l5-6.3h8.1l5,6.3
		L213.8,60.4L213.8,60.4z M256.9,43.3c1.3,5.6,1.7,11.2,1.2,16.7l-25.3-7.3c-2.3-0.7-3.6-3-3.1-5.3c0.2-0.7,0.5-1.3,1-1.8l20-18
		C253.4,32.2,255.5,37.5,256.9,43.3L256.9,43.3z M242.7,17.7L221,33c-1.8,1.2-4.3,0.8-5.8-1c-0.5-0.5-0.7-1.2-0.8-1.8l-1.5-26.9
		C224.3,4.6,234.7,9.7,242.7,17.7L242.7,17.7z M194.8,4.1c1.8-0.3,3.5-0.7,5.3-1l-1.5,26.4c-0.2,2.3-2,4.3-4.5,4.3
		c-0.7,0-1.5-0.2-2-0.5l-22-15.7C176.9,10.9,185.4,6.3,194.8,4.1L194.8,4.1z M162.2,27.6l19.7,17.5c1.8,1.5,2,4.3,0.5,6.1
		c-0.5,0.7-1.2,1.2-2,1.3l-25.6,7.4C153.8,48.7,156.3,37.3,162.2,27.6L162.2,27.6z M157.8,72.3l26.3-4.5c2.1-0.2,4.1,1.3,4.6,3.5
		c0.2,1,0.2,1.8-0.2,2.6l0,0l-10.1,24.3C169.2,92.3,161.7,83.2,157.8,72.3L157.8,72.3z M218.1,105.2c-3.8,0.8-7.6,1.3-11.6,1.3
		c-5.8,0-11.4-1-16.7-2.6l13-23.6c1.3-1.5,3.5-2.1,5.3-1.2c0.8,0.5,1.5,1.2,2,1.8l0,0l12.7,23C221.4,104.4,219.7,104.7,218.1,105.2
		L218.1,105.2z M250.3,82.2c-4.1,6.6-9.6,11.9-15.9,16L224,73.3c-0.5-2,0.3-4.1,2.3-5.1c0.7-0.3,1.5-0.5,2.3-0.5l26.4,4.5
		C254.1,75.8,252.4,79.1,250.3,82.2L250.3,82.2z"/>
</g>
</svg>
