<?xml version="1.0" encoding="utf-8"?>
<!-- Generator: Adobe Illustrator 16.0.4, SVG Export Plug-In . SVG Version: 6.00 Build 0)  -->
<!DOCTYPE svg PUBLIC "-//W3C//DTD SVG 1.0//EN" "http://www.w3.org/TR/2001/REC-SVG-20010904/DTD/svg10.dtd">
<svg version="1.0" xmlns="http://www.w3.org/2000/svg" xmlns:xlink="http://www.w3.org/1999/xlink" x="0px" y="0px" width="128px"
	 height="128px" viewBox="0 0 128 128" enable-background="new 0 0 128 128" xml:space="preserve">
<g id="Layer_1">
	<g>
		<path fill="#CC0000" d="M117.816,85.422c-0.841,10.058-9.788,18.289-19.883,18.289H29.104c-10.094,0-19.042-8.23-19.883-18.289
			L5.573,41.816c-0.842-10.06,6.729-18.29,16.822-18.29h82.246c10.095,0,17.665,8.23,16.824,18.29L117.816,85.422z"/>
		<g>
			<path fill="#FFDE17" d="M63.463,86.093c-19.704-1.414-10.594-8.349-19.377-9.259c-9.318-0.963-11.305-0.171-14.334,0
				c-3.03,0.17-1.865-0.988-1.865-0.988s6.302-2.972,12.586-7.925c4.095-3.224,8.095-6.524,9.789-12.818
				c3.959-14.696,7.616-19.321,13.258-18.852c5.642-0.469,9.295,4.158,13.256,18.852c1.696,6.293,5.695,9.594,9.791,12.818
				c6.282,4.953,12.584,7.925,12.584,7.925s1.166,1.158-1.865,0.988c-3.03-0.171-5.122-1.704-14.334,0
				c-9.456,1.748,0.327,7.845-19.378,9.259l-0.054,0.005L63.463,86.093z"/>
		</g>
		<path fill="#414042" d="M18.158,55.38c0,0-4.685-7.912-0.919-13.153c1.226-1.706,6.292-2.053,9.899-1.355
			c2.36,0.455,4.96,1.179,8.238,3.887c0.601,0.495,0.613,2.318,0.83,1.443c0.583-2.33-5.169-5.841-7.56-6.599
			c-7.443-2.36-12.747,1.689-12.871,2.229c-0.229,0.986-0.617,5.986-0.284,8.346C15.697,51.626,18.158,55.38,18.158,55.38z"/>
		<path fill="#414042" d="M79.77,73.226c-0.77,1.848-1.917,3.995-3.123,6.125c-0.769,2.369-2.377,6.492-4.841,9.092
			c-0.394,0.411-0.735,0.863-1.051,1.36c-0.685,1.488-1.232,2.909-1.685,4.26c-3.456,10.205-1.5,15.108-5.749,18.313
			c-4.408-3.205-2.301-8.074-5.723-18.228c-0.47-1.394-1.043-2.865-1.753-4.404c-0.009-0.009-0.017-0.025-0.017-0.034
			c-0.299-0.454-0.625-0.882-0.992-1.267c-2.472-2.608-4.088-6.765-4.867-9.127c-1.189-2.113-2.319-4.233-3.079-6.064
			c-1.429-2.036-2.575-4.071-0.788-5.141c4.141-2.489,8.922-13.515,11.933-19.066c0.847-1.564,1.549-2.695,2.062-3.08
			c1.009-0.76,2.043-1.137,3.019-1.264c0.069,0.007,0.137,0.016,0.206,0.034c0.068-0.018,0.129-0.026,0.196-0.034
			c0.985,0.127,2.019,0.504,3.029,1.264c0.505,0.385,1.215,1.515,2.062,3.08c3.001,5.551,7.792,16.578,11.932,19.066
			C82.318,69.181,81.19,71.19,79.77,73.226z"/>
		<path fill="#FFDE17" d="M40.772,49.598c0,0-1.497,1.969-1.634,2.583c-0.135,0.615-7.722,16.226-22.012,4.46
			c0,0-4.637-5.71-2.714-13.029c0.159-0.604-0.194-2.01,0.265-2.473c6.532-6.598,21.995-2.584,24.802,4.106
			C39.921,46.299,40.772,49.598,40.772,49.598z"/>
		<path fill="#414042" d="M17.891,55.673c0,0-5.47-8.352-1.071-13.888c1.429-1.799,7.347-2.165,11.559-1.431
			c2.756,0.481,5.792,1.246,9.621,4.107c0.7,0.523,0.714,2.446,0.97,1.523c0.68-2.462-6.037-6.167-8.83-6.968
			c-8.692-2.492-14.884,1.784-15.031,2.354c-0.267,1.041-0.72,6.322-0.33,8.813C15.019,51.71,17.891,55.673,17.891,55.673z"/>
		<ellipse fill="#414042" cx="29.067" cy="48.029" rx="6.261" ry="6.429"/>
		<path opacity="0.8" fill="#F1F2F2" d="M16.156,47.69c0.664-14.241,18.308-2.011,17.811-1.706
			c-2.892,1.768-7.706,1.568-9.288,0.645c-1.583-0.921-3.674-1.522-5.256-0.783C17.84,46.584,16.107,48.745,16.156,47.69z"/>
		<path fill="#FFDE17" d="M85.869,49.598c0,0,1.497,1.969,1.634,2.583c0.136,0.615,7.723,16.226,22.013,4.46
			c0,0,4.637-5.71,2.713-13.029c-0.158-0.604,0.195-2.01-0.264-2.473c-6.532-6.598-21.996-2.584-24.802,4.106
			C86.721,46.299,85.869,49.598,85.869,49.598z"/>
		<path fill="#414042" d="M108.75,55.673c0,0,5.471-8.352,1.072-13.888c-1.43-1.799-7.348-2.165-11.56-1.431
			c-2.756,0.481-5.792,1.246-9.62,4.107c-0.701,0.523-0.715,2.446-0.97,1.523c-0.681-2.462,6.036-6.167,8.828-6.968
			c8.693-2.492,14.886,1.784,15.031,2.354c0.267,1.041,0.72,6.322,0.33,8.813C111.624,51.71,108.75,55.673,108.75,55.673z"/>
		<ellipse fill="#414042" cx="97.573" cy="48.029" rx="6.26" ry="6.429"/>
		<path opacity="0.9" fill="#F1F2F2" d="M110.485,47.69c-0.663-14.241-18.308-2.011-17.811-1.706
			c2.892,1.768,7.706,1.568,9.287,0.645c1.583-0.921,3.675-1.522,5.257-0.783C108.801,46.584,110.534,48.745,110.485,47.69z"/>
		<path opacity="0.8" fill="#F1F2F2" d="M25.973,56.376c-0.938,1.52-4.627,0-6.059-1.938c-1.061-1.437-1.391-2.047-0.453-3.567
			c0.939-1.519,1.905-1.91,3.424-0.972C24.405,50.84,26.913,54.856,25.973,56.376z"/>
		<circle opacity="0.5" fill="#00FDFF" cx="99.151" cy="47.362" r="23.077"/>
		<circle opacity="0.5" fill="#FFFFFF" cx="99.843" cy="46.565" r="22.021"/>
		<path fill="#414042" d="M125.885,61.051c-0.204-1.528-1.277-2.732-2.656-3.177c1.866-4.255,2.629-9.056,1.971-13.987
			c-1.916-14.363-15.159-24.488-29.522-22.573c-14.362,1.916-24.49,15.159-22.574,29.522c1.917,14.361,15.162,24.49,29.523,22.573
			c6.749-0.9,12.562-4.303,16.63-9.146c0.827,0.85,2.032,1.314,3.295,1.146C124.672,65.126,126.168,63.172,125.885,61.051z
			 M102.203,70.235c-12.612,1.684-24.244-7.209-25.926-19.821c-1.683-12.613,7.21-24.246,19.823-25.927
			c12.612-1.683,24.243,7.212,25.924,19.824c0.726,5.438-0.514,10.69-3.169,15.044c-0.075,0.109-0.145,0.221-0.209,0.336
			C115.116,65.264,109.238,69.298,102.203,70.235z M122.317,63.645c-0.772,0.104-1.502-0.229-1.944-0.806
			c0.771-1.057,1.464-2.171,2.071-3.334c0.859,0.169,1.555,0.867,1.677,1.781C124.275,62.436,123.466,63.491,122.317,63.645z"/>
		<path opacity="0.8" fill="#FFFFFF" d="M102.241,26.093c-2.585,1.454,6.494,3.642,11.215,10.264
			c4.72,6.625,4.689,13.483,5.621,12.802c1.362-0.997,2.423-8.376-2.297-15C112.058,27.535,103.658,25.296,102.241,26.093z"/>
	</g>
</g>
<g id="Guides" display="none">
</g>
</svg>
