<?xml version="1.0" encoding="utf-8"?>
<!-- Generator: Adobe Illustrator 18.1.0, SVG Export Plug-In . SVG Version: 6.00 Build 0)  -->
<svg version="1.1" id="Layer_1" xmlns="http://www.w3.org/2000/svg" xmlns:xlink="http://www.w3.org/1999/xlink" x="0px" y="0px"
	 viewBox="92.4 -0.4 100 100" enable-background="new 92.4 -0.4 100 100" xml:space="preserve">
<g>
	<path fill="#698DBA" d="M115.6-0.4c-4,0-7.2,3.2-7.2,7.2v53.5c0,4,3.2,7.2,7.2,7.2h53.6c4,0,7.2-3.2,7.2-7.2V6.8
		c0-4-3.3-7.2-7.2-7.2H115.6L115.6-0.4z M112.4,60.4V6.8c0-1.8,1.4-3.2,3.2-3.2h53.6c1.7,0,3.2,1.4,3.2,3.2v53.5
		c0,1.8-1.4,3.2-3.2,3.2h-53.6C113.8,63.6,112.4,62.2,112.4,60.4L112.4,60.4z"/>
	<path fill="#698DBA" d="M131.6,15.6c-4,0-7.2,3.2-7.2,7.2v53.6c0,4,3.2,7.2,7.2,7.2h53.6c4,0,7.2-3.2,7.2-7.2V22.8
		c0-4-3.2-7.2-7.2-7.2H131.6L131.6,15.6z M128.4,76.4V22.8c0-1.8,1.4-3.2,3.2-3.2h53.6c1.8,0,3.2,1.4,3.2,3.2v53.6
		c0,1.8-1.4,3.2-3.2,3.2h-53.6C129.8,79.6,128.4,78.2,128.4,76.4L128.4,76.4z"/>
	<path fill="#698DBA" d="M99.6,31.6c-4,0-7.2,3.2-7.2,7.2v53.6c0,4,3.2,7.2,7.2,7.2h53.6c4,0,7.2-3.2,7.2-7.2V38.8
		c0-4-3.2-7.2-7.2-7.2H99.6L99.6,31.6z M96.4,92.4V38.8c0-1.7,1.4-3.2,3.2-3.2h53.6c1.8,0,3.2,1.4,3.2,3.2v53.6
		c0,1.8-1.4,3.2-3.2,3.2H99.6C97.9,95.6,96.4,94.2,96.4,92.4L96.4,92.4z"/>
</g>
</svg>
