<?xml version="1.0" encoding="utf-8"?>
<!-- Generator: Adobe Illustrator 18.1.0, SVG Export Plug-In . SVG Version: 6.00 Build 0)  -->
<svg version="1.1"
	 id="svg2" xmlns:svg="http://www.w3.org/2000/svg" xmlns:dc="http://purl.org/dc/elements/1.1/" xmlns:cc="http://creativecommons.org/ns#" xmlns:rdf="http://www.w3.org/1999/02/22-rdf-syntax-ns#"
	 xmlns="http://www.w3.org/2000/svg" xmlns:xlink="http://www.w3.org/1999/xlink" x="0px" y="0px" viewBox="20 1 100 100"
	 enable-background="new 20 1 100 100" xml:space="preserve">
<path id="polygon287" fill="#F7A80D" d="M49.2,59.9L40,63.8l8.5,3.6l9.8-3.6L49.2,59.9z M35.4,64.8l-0.3,17.7l13.4,5.9V70L35.4,64.8
	z M62.9,64.8l-12.1,4.6v17.3l12.1-4.9V64.8z"/>
<path id="polygon311" fill="#F7A80D" d="M77.4,9.7l-9.2,3.9l8.5,3.6l9.8-3.6L77.4,9.7z M64.6,14.9v17.7L76,36l0.4-16.1L64.6,14.9z
	 M90.2,15.9l-10.8,4.6v17.4L90.2,33V15.9z"/>
<path id="use3387" fill="#F7A80D" d="M34.1,34.6l-9.2,3.9l8.5,3.6l9.8-3.6L34.1,34.6z M20.3,39.6L20,57.3l13.4,5.9V44.8L20.3,39.6z
	 M47.9,39.6l-12.1,4.6v17.3l12.1-4.9V39.6z"/>
<path id="use3389" fill="#F7A80D" d="M63.6,34l-9.2,3.9l8.5,3.6l9.8-3.6L63.6,34z M49.8,38.9l-0.3,17.7l13.4,5.9V44.1L49.8,38.9z
	 M77.4,38.9l-12.1,4.6v17.3l12.1-4.9V38.9z"/>
<path id="use3391" fill="#F7A80D" d="M106.2,9.7l-9.2,3.9l8.5,3.6l9.8-3.6L106.2,9.7z M92.5,14.6l-0.3,17.7l13.4,5.9V19.9L92.5,14.6
	z M120,14.6l-12.1,4.6v17.3l12.1-4.9V14.6z"/>
</svg>
