<?xml version="1.0" encoding="utf-8"?>
<!-- Generator: Adobe Illustrator 18.1.0, SVG Export Plug-In . SVG Version: 6.00 Build 0)  -->
<svg version="1.1" id="Layer_1" xmlns="http://www.w3.org/2000/svg" xmlns:xlink="http://www.w3.org/1999/xlink" x="0px" y="0px"
	 viewBox="0 0 100 100" enable-background="new 0 0 100 100" xml:space="preserve">
<g>
	<g enable-background="new    ">
		<g enable-background="new    ">
			<defs>
				<path id="SVGID_1_" enable-background="new    " d="M56.5,57.6l-8-7.9c1.1-0.1,2-1.1,2-2.2l8,7.9C58.5,56.5,57.6,57.5,56.5,57.6
					z"/>
			</defs>
			<clipPath id="SVGID_2_">
				<use xlink:href="#SVGID_1_"  overflow="visible"/>
			</clipPath>
			<g clip-path="url(#SVGID_2_)" enable-background="new    ">
				<path fill="#BB3727" d="M56.5,57.6l-8-7.9c0,0,0.1,0,0.1,0l8,7.9C56.5,57.5,56.5,57.6,56.5,57.6"/>
				<path fill="#BD3827" d="M56.6,57.5l-8-7.9c0.1,0,0.2,0,0.3-0.1l8,7.9C56.8,57.5,56.7,57.5,56.6,57.5"/>
				<path fill="#C23A28" d="M56.9,57.5l-8-7.9c0.2,0,0.3-0.1,0.4-0.2l8,7.9C57.2,57.4,57,57.4,56.9,57.5"/>
				<path fill="#BD3827" d="M57.3,57.3l-8-7.9c0.1-0.1,0.2-0.1,0.3-0.2l8,7.9C57.5,57.2,57.4,57.3,57.3,57.3"/>
				<path fill="#BB3727" d="M57.5,57.1l-8-7.9c0.1,0,0.1-0.1,0.2-0.1l8,7.9C57.7,57.1,57.6,57.1,57.5,57.1"/>
				<path fill="#B63527" d="M57.7,57l-8-7.9c0,0,0.1-0.1,0.1-0.1l8,7.9C57.8,56.9,57.7,57,57.7,57"/>
				<path fill="#B43327" d="M57.8,56.9l-8-7.9c0,0,0.1-0.1,0.1-0.1l8,7.9C57.9,56.8,57.9,56.9,57.8,56.9"/>
				<path fill="#B13126" d="M57.9,56.8l-8-7.9c0,0,0.1-0.1,0.1-0.1l8,7.9C58,56.7,57.9,56.8,57.9,56.8"/>
				<path fill="#AE3125" d="M58,56.7l-8-7.9c0,0,0.1-0.1,0.1-0.1L58,56.7C58.1,56.6,58,56.7,58,56.7"/>
				<path fill="#AA3025" d="M58.1,56.6l-8-7.9c0,0,0-0.1,0.1-0.1l8,7.9C58.1,56.5,58.1,56.6,58.1,56.6"/>
				<path fill="#A72D24" d="M58.1,56.5l-8-7.9c0,0,0-0.1,0.1-0.1l8,7.9C58.2,56.4,58.2,56.5,58.1,56.5"/>
				<path fill="#A22C23" d="M58.2,56.4l-8-7.9c0,0,0-0.1,0.1-0.1l8,7.9C58.2,56.3,58.2,56.4,58.2,56.4"/>
				<path fill="#9D2C22" d="M58.3,56.3l-8-7.9c0,0,0-0.1,0.1-0.1l8,7.9C58.3,56.2,58.3,56.3,58.3,56.3"/>
				<path fill="#9A2C21" d="M58.3,56.2l-8-7.9c0,0,0-0.1,0-0.1l8,7.9C58.3,56.1,58.3,56.1,58.3,56.2"/>
				<path fill="#972920" d="M58.3,56.1l-8-7.9c0,0,0-0.1,0-0.1l8,7.9C58.4,56,58.4,56,58.3,56.1"/>
				<path fill="#942820" d="M58.4,56l-8-7.9c0,0,0-0.1,0-0.1l8,7.9C58.4,55.9,58.4,55.9,58.4,56"/>
				<path fill="#90261E" d="M58.4,55.8l-8-7.9c0,0,0-0.1,0-0.1l8,7.9C58.4,55.8,58.4,55.8,58.4,55.8"/>
				<path fill="#8D241D" d="M58.4,55.7l-8-7.9c0,0,0-0.1,0-0.1l8,7.9C58.4,55.6,58.4,55.7,58.4,55.7"/>
				<path fill="#8A241C" d="M58.5,55.6l-8-7.9c0,0,0-0.1,0-0.2l8,7.9C58.5,55.5,58.5,55.5,58.5,55.6"/>
				<path fill="#87241B" d="M58.5,55.4l-8-7.9c0,0,0,0,0,0L58.5,55.4C58.5,55.4,58.5,55.4,58.5,55.4"/>
			</g>
		</g>
		<g>
			<g>
				<polygon fill="#8A241C" points="58.5,52.6 50.5,44.7 62.6,43.7 70.5,51.5 				"/>
			</g>
			<g>
				<polygon fill="#8A241C" points="58.5,52.6 50.5,44.7 62.6,43.7 70.5,51.5 				"/>
			</g>
		</g>
		<g>
			<polygon fill="#8A241C" points="58.5,55.4 50.5,47.5 50.5,44.7 58.5,52.6 			"/>
		</g>
		<g>
			<polygon fill="#C33A28" points="26.7,60.2 18.8,52.3 48.5,49.7 56.5,57.6 			"/>
		</g>
		<g enable-background="new    ">
			<defs>
				<path id="SVGID_3_" enable-background="new    " d="M25.3,59.6c-0.1-0.1-0.3-0.3-0.4-0.4c-2.5-2.5-5-5-7.6-7.5
					c0.4,0.4,0.9,0.6,1.5,0.5l8,7.9C26.2,60.2,25.6,60,25.3,59.6z"/>
			</defs>
			<clipPath id="SVGID_4_">
				<use xlink:href="#SVGID_3_"  overflow="visible"/>
			</clipPath>
			<g clip-path="url(#SVGID_4_)" enable-background="new    ">
				<path fill="#942820" d="M25.3,59.6l-8-7.9c0,0,0.1,0.1,0.1,0.1L25.3,59.6C25.3,59.7,25.3,59.7,25.3,59.6"/>
				<path fill="#972920" d="M25.4,59.7l-8-7.9c0,0,0.1,0.1,0.1,0.1l8,7.9C25.4,59.8,25.4,59.8,25.4,59.7"/>
				<path fill="#9A2C21" d="M25.5,59.8l-8-7.9c0,0,0.1,0.1,0.1,0.1l8,7.9C25.6,59.9,25.5,59.9,25.5,59.8"/>
				<path fill="#9D2C22" d="M25.6,59.9l-8-7.9c0,0,0.1,0,0.1,0.1l8,7.9C25.7,60,25.6,59.9,25.6,59.9"/>
				<path fill="#A22C23" d="M25.7,60l-8-7.9c0,0,0.1,0,0.1,0.1l8,7.9C25.8,60,25.8,60,25.7,60"/>
				<path fill="#A72D24" d="M25.8,60l-8-7.9c0,0,0.1,0,0.1,0l8,7.9C25.9,60.1,25.9,60,25.8,60"/>
				<path fill="#AA3025" d="M26,60.1l-8-7.9c0,0,0.1,0,0.1,0l8,7.9C26,60.1,26,60.1,26,60.1"/>
				<path fill="#AE3125" d="M26.1,60.1l-8-7.9c0,0,0.1,0,0.1,0l8,7.9C26.2,60.1,26.1,60.1,26.1,60.1"/>
				<path fill="#B13126" d="M26.2,60.1l-8-7.9c0,0,0.1,0,0.1,0l8,7.9C26.3,60.2,26.2,60.1,26.2,60.1"/>
				<path fill="#B43327" d="M26.3,60.2l-8-7.9c0,0,0.1,0,0.1,0l8,7.9C26.4,60.2,26.4,60.2,26.3,60.2"/>
				<path fill="#B63527" d="M26.5,60.2l-8-7.9c0.1,0,0.1,0,0.2,0l8,7.9C26.6,60.2,26.5,60.2,26.5,60.2"/>
				<path fill="#BB3727" d="M26.6,60.2l-8-7.9c0,0,0.1,0,0.1,0L26.6,60.2C26.7,60.2,26.7,60.2,26.6,60.2"/>
			</g>
		</g>
		<g enable-background="new    ">
			<defs>
				<path id="SVGID_5_" enable-background="new    " d="M13.7,72.1l-8-7.9c-0.6-0.6-1-1.5-1-2.5l8,7.9C12.6,70.6,13,71.5,13.7,72.1z
					"/>
			</defs>
			<clipPath id="SVGID_6_">
				<use xlink:href="#SVGID_5_"  overflow="visible"/>
			</clipPath>
			<g clip-path="url(#SVGID_6_)" enable-background="new    ">
				<path fill="#82211A" d="M13.7,72.1l-8-7.9c-0.6-0.6-0.9-1.3-1-2.2l8,7.9C12.7,70.8,13.1,71.5,13.7,72.1"/>
				<path fill="#87241B" d="M12.7,69.9l-8-7.9c0-0.1,0-0.2,0-0.3l8,7.9C12.6,69.7,12.7,69.8,12.7,69.9"/>
			</g>
		</g>
		<g>
			<path fill="#D73D27" d="M70.5,51.5l0,13c0,2.1-1.7,4-3.8,4.2l-50.2,4.4c-2.1,0.2-3.8-1.4-3.8-3.5l0-13l12.1-1.1l0,2.8
				c0,1.1,0.9,1.9,2,1.8l29.7-2.6c1.1-0.1,2-1.1,2-2.2l0-2.8L70.5,51.5z"/>
		</g>
		<g>
			<g>
				<polygon fill="#8A241C" points="12.7,56.6 4.7,48.7 16.8,47.7 24.7,55.6 				"/>
			</g>
			<g>
				<polygon fill="#8A241C" points="12.7,56.6 4.7,48.7 16.8,47.7 24.7,55.6 				"/>
			</g>
		</g>
		<g>
			<polygon fill="#8A241C" points="12.6,69.6 4.7,61.7 4.7,48.7 12.7,56.6 			"/>
		</g>
	</g>
	<g enable-background="new    ">
		<g>
			<g>
				<polygon fill="#E5574F" points="70.5,29.6 70.5,48.7 58.5,49.8 58.4,30.7 				"/>
			</g>
			<g>
				<polygon fill="#E1493B" points="70.5,29.6 70.5,48.7 58.5,49.8 58.4,30.7 				"/>
			</g>
		</g>
		<g>
			<polygon fill="#8A241C" points="58.5,49.8 50.5,41.9 50.4,22.8 58.4,30.7 			"/>
		</g>
		<g>
			<g>
				<polygon fill="#8A241C" points="58.4,30.7 50.4,22.8 62.5,21.7 70.5,29.6 				"/>
			</g>
			<g>
				<polygon fill="#8A241C" points="58.4,30.7 50.4,22.8 62.5,21.7 70.5,29.6 				"/>
			</g>
		</g>
	</g>
	<g enable-background="new    ">
		<g>
			<g>
				<polygon fill="#E5574F" points="24.7,33.6 24.7,52.8 12.7,53.8 12.6,34.7 				"/>
			</g>
			<g>
				<polygon fill="#E1493B" points="24.7,33.6 24.7,52.8 12.7,53.8 12.6,34.7 				"/>
			</g>
		</g>
		<g>
			<polygon fill="#8A241C" points="12.7,53.8 4.7,45.9 4.6,26.8 12.6,34.7 			"/>
		</g>
		<g>
			<polygon fill="#8A241C" points="12.6,34.7 4.6,26.8 16.7,25.7 24.7,33.6 			"/>
		</g>
	</g>
</g>
<g>
	<g enable-background="new    ">
		<g>
			<polygon fill="#8A241C" points="58.3,28 50.3,20.1 50.3,17.7 58.3,25.6 			"/>
		</g>
		<g enable-background="new    ">
			<defs>
				<path id="SVGID_7_" enable-background="new    " d="M49.8,16.4c2.7,2.6,5.3,5.3,8,7.9c0.3,0.3,0.5,0.8,0.5,1.3l-8-7.9
					C50.3,17.2,50.1,16.7,49.8,16.4z"/>
			</defs>
			<clipPath id="SVGID_8_">
				<use xlink:href="#SVGID_7_"  overflow="visible"/>
			</clipPath>
			<g clip-path="url(#SVGID_8_)" enable-background="new    ">
				<path fill="#87241B" d="M58.3,25.6l-8-7.9c0-0.1,0-0.1,0-0.2l8,7.9C58.3,25.5,58.3,25.6,58.3,25.6"/>
				<path fill="#82211A" d="M58.3,25.4l-8-7.9c0-0.5-0.2-0.9-0.5-1.2l8,7.9C58.1,24.6,58.3,25,58.3,25.4"/>
			</g>
		</g>
		<g enable-background="new    ">
			<defs>
				<path id="SVGID_9_" enable-background="new    " d="M61.4,3.9C61.9,4.5,62.5,5,63,5.5c2.1,2.1,4.3,4.2,6.4,6.3
					c-0.7-0.7-1.7-1.1-2.8-1l-8-7.9C59.7,2.9,60.7,3.3,61.4,3.9z"/>
			</defs>
			<clipPath id="SVGID_10_">
				<use xlink:href="#SVGID_9_"  overflow="visible"/>
			</clipPath>
			<g clip-path="url(#SVGID_10_)" enable-background="new    ">
				<path fill="#BB3727" d="M66.6,10.8l-8-7.9c0.1,0,0.1,0,0.2,0l8,7.9C66.7,10.8,66.6,10.8,66.6,10.8"/>
				<path fill="#B63527" d="M66.7,10.8l-8-7.9c0.1,0,0.2,0,0.3,0l8,7.9C66.9,10.8,66.8,10.8,66.7,10.8"/>
				<path fill="#B43327" d="M67,10.8l-8-7.9c0.1,0,0.2,0,0.3,0l8,7.9C67.2,10.8,67.1,10.8,67,10.8"/>
				<path fill="#B13126" d="M67.3,10.9l-8-7.9c0.1,0,0.2,0,0.3,0l8,7.9C67.5,10.9,67.4,10.9,67.3,10.9"/>
				<path fill="#AE3125" d="M67.6,10.9l-8-7.9c0.1,0,0.2,0,0.2,0.1l8,7.9C67.8,10.9,67.7,10.9,67.6,10.9"/>
				<path fill="#AA3025" d="M67.8,11l-8-7.9c0.1,0,0.2,0,0.2,0.1l8,7.9C68,11,67.9,11,67.8,11"/>
				<path fill="#A72D24" d="M68.1,11l-8-7.9c0.1,0,0.2,0.1,0.2,0.1l8,7.9C68.2,11.1,68.1,11.1,68.1,11"/>
				<path fill="#A22C23" d="M68.3,11.1l-8-7.9c0.1,0,0.2,0.1,0.2,0.1l8,7.9C68.4,11.2,68.4,11.1,68.3,11.1"/>
				<path fill="#9D2C22" d="M68.5,11.2l-8-7.9c0.1,0,0.2,0.1,0.2,0.1l8,7.9C68.7,11.3,68.6,11.3,68.5,11.2"/>
				<path fill="#9A2C21" d="M68.7,11.3l-8-7.9c0.1,0.1,0.2,0.1,0.2,0.2l8,7.9C68.9,11.4,68.8,11.4,68.7,11.3"/>
				<path fill="#972920" d="M69,11.5l-8-7.9c0.1,0.1,0.2,0.1,0.2,0.2l8,7.9C69.1,11.6,69.1,11.6,69,11.5"/>
				<path fill="#942820" d="M69.2,11.7l-8-7.9c0.1,0,0.1,0.1,0.2,0.1l8,7.9C69.3,11.8,69.3,11.7,69.2,11.7"/>
			</g>
		</g>
		<g>
			<polygon fill="#8A241C" points="12.5,32 4.5,24.1 4.6,11.5 12.5,19.4 			"/>
		</g>
		<g>
			<polygon fill="#C33A28" points="16.4,15.2 8.4,7.3 58.6,3 66.6,10.8 			"/>
		</g>
		<g>
			<g>
				<path fill="#E5574F" d="M16.4,15.2l50.2-4.4c2.1-0.2,3.8,1.4,3.8,3.5l0,12.6l-12.1,1l0-2.4c0-1.1-0.9-1.9-2-1.8l-29.7,2.6
					c-1.1,0.1-2,1.1-2,2.2l0,2.4L12.5,32l0-12.6C12.5,17.3,14.3,15.4,16.4,15.2z"/>
			</g>
			<g>
				<path fill="#E5574F" d="M16.4,15.2l50.2-4.4c2.1-0.2,3.8,1.4,3.8,3.5l0,12.6l-12.1,1l0-2.4c0-1.1-0.9-1.9-2-1.8l-29.7,2.6
					c-1.1,0.1-2,1.1-2,2.2l0,2.4L12.5,32l0-12.6C12.5,17.3,14.3,15.4,16.4,15.2z"/>
			</g>
		</g>
		<g enable-background="new    ">
			<defs>
				<path id="SVGID_11_" enable-background="new    " d="M12.5,19.4l-8-7.9c0-2.1,1.7-4,3.8-4.2l8,7.9
					C14.3,15.4,12.5,17.3,12.5,19.4z"/>
			</defs>
			<clipPath id="SVGID_12_">
				<use xlink:href="#SVGID_11_"  overflow="visible"/>
			</clipPath>
			<g clip-path="url(#SVGID_12_)" enable-background="new    ">
				<path fill="#87241B" d="M12.5,19.4l-8-7.9c0,0,0-0.1,0-0.1L12.5,19.4C12.5,19.3,12.5,19.3,12.5,19.4"/>
				<path fill="#8A241C" d="M12.5,19.3l-8-7.9c0-0.1,0-0.2,0-0.3l8,7.9C12.5,19.1,12.5,19.2,12.5,19.3"/>
				<path fill="#8D241D" d="M12.6,19l-8-7.9c0-0.1,0-0.2,0-0.3l8,7.9C12.6,18.8,12.6,18.9,12.6,19"/>
				<path fill="#90261E" d="M12.6,18.7l-8-7.9c0-0.1,0-0.2,0.1-0.2l8,7.9C12.6,18.5,12.6,18.6,12.6,18.7"/>
				<path fill="#942820" d="M12.6,18.5l-8-7.9c0-0.1,0-0.1,0.1-0.2l8,7.9C12.7,18.3,12.7,18.4,12.6,18.5"/>
				<path fill="#972920" d="M12.7,18.2l-8-7.9c0-0.1,0-0.1,0.1-0.2l8,7.9C12.7,18.1,12.7,18.2,12.7,18.2"/>
				<path fill="#9A2C21" d="M12.8,18l-8-7.9c0-0.1,0-0.1,0.1-0.2l8,7.9C12.8,17.9,12.8,18,12.8,18"/>
				<path fill="#9D2C22" d="M12.9,17.8l-8-7.9c0-0.1,0.1-0.1,0.1-0.2l8,7.9C12.9,17.7,12.9,17.8,12.9,17.8"/>
				<path fill="#A22C23" d="M12.9,17.6L5,9.7C5,9.7,5,9.6,5.1,9.6l8,7.9C13,17.5,13,17.6,12.9,17.6"/>
				<path fill="#A72D24" d="M13,17.4l-8-7.9c0-0.1,0.1-0.1,0.1-0.2l8,7.9C13.1,17.3,13.1,17.4,13,17.4"/>
				<path fill="#AA3025" d="M13.2,17.3l-8-7.9c0-0.1,0.1-0.1,0.1-0.2l8,7.9C13.2,17.1,13.2,17.2,13.2,17.3"/>
				<path fill="#AE3125" d="M13.3,17.1l-8-7.9C5.3,9.1,5.4,9,5.4,9l8,7.9C13.4,16.9,13.3,17,13.3,17.1"/>
				<path fill="#B13126" d="M13.4,16.9L5.4,9c0.1-0.1,0.1-0.1,0.2-0.2l8,7.9C13.5,16.7,13.5,16.8,13.4,16.9"/>
				<path fill="#B43327" d="M13.6,16.7l-8-7.9c0.1-0.1,0.1-0.1,0.2-0.2l8,7.9C13.7,16.5,13.6,16.6,13.6,16.7"/>
				<path fill="#B63527" d="M13.8,16.5l-8-7.9C5.9,8.5,5.9,8.4,6,8.4l8,7.9C13.9,16.3,13.8,16.4,13.8,16.5"/>
				<path fill="#BB3727" d="M14,16.3L6,8.4c0.1-0.1,0.2-0.2,0.3-0.2l8,7.9C14.2,16.1,14.1,16.2,14,16.3"/>
				<path fill="#BD3827" d="M14.3,16l-8-7.9C6.5,8,6.6,7.9,6.8,7.8l8,7.9C14.6,15.8,14.4,15.9,14.3,16"/>
				<path fill="#C23A28" d="M14.8,15.7l-8-7.9c0.3-0.1,0.5-0.3,0.8-0.3l8,7.9C15.3,15.4,15,15.6,14.8,15.7"/>
				<path fill="#BD3827" d="M15.6,15.4l-8-7.9C7.8,7.4,8,7.4,8.2,7.4l8,7.9C16,15.3,15.8,15.3,15.6,15.4"/>
				<path fill="#BB3727" d="M16.2,15.2l-8-7.9c0.1,0,0.1,0,0.2,0l8,7.9C16.3,15.2,16.2,15.2,16.2,15.2"/>
			</g>
		</g>
	</g>
</g>
<g>
	<g enable-background="new    ">
		<g enable-background="new    ">
			<defs>
				<path id="SVGID_13_" enable-background="new    " d="M81.3,80.6l-8-7.9c1.1-0.1,2-1.1,2-2.2l8,7.9
					C83.3,79.5,82.4,80.5,81.3,80.6z"/>
			</defs>
			<clipPath id="SVGID_14_">
				<use xlink:href="#SVGID_13_"  overflow="visible"/>
			</clipPath>
			<g clip-path="url(#SVGID_14_)" enable-background="new    ">
				<path fill="#BB3727" d="M81.3,80.6l-8-7.9c0,0,0.1,0,0.1,0l8,7.9C81.4,80.6,81.3,80.6,81.3,80.6"/>
				<path fill="#BD3827" d="M81.4,80.6l-8-7.9c0.1,0,0.2,0,0.3-0.1l8,7.9C81.6,80.6,81.5,80.6,81.4,80.6"/>
				<path fill="#C23A28" d="M81.7,80.5l-8-7.9c0.2,0,0.3-0.1,0.4-0.2l8,7.9C82,80.4,81.9,80.5,81.7,80.5"/>
				<path fill="#BD3827" d="M82.1,80.4l-8-7.9c0.1-0.1,0.2-0.1,0.3-0.2l8,7.9C82.3,80.3,82.2,80.3,82.1,80.4"/>
				<path fill="#BB3727" d="M82.4,80.2l-8-7.9c0.1,0,0.1-0.1,0.2-0.1l8,7.9C82.5,80.1,82.5,80.2,82.4,80.2"/>
				<path fill="#B63527" d="M82.6,80.1l-8-7.9c0,0,0.1-0.1,0.1-0.1l8,7.9C82.6,80,82.6,80,82.6,80.1"/>
				<path fill="#B43327" d="M82.7,80l-8-7.9c0,0,0.1-0.1,0.1-0.1l8,7.9C82.7,79.9,82.7,79.9,82.7,80"/>
				<path fill="#B13126" d="M82.8,79.9l-8-7.9c0,0,0.1-0.1,0.1-0.1l8,7.9C82.8,79.8,82.8,79.8,82.8,79.9"/>
				<path fill="#AE3125" d="M82.9,79.8l-8-7.9c0,0,0.1-0.1,0.1-0.1L82.9,79.8C82.9,79.7,82.9,79.7,82.9,79.8"/>
				<path fill="#AA3025" d="M82.9,79.7l-8-7.9c0,0,0-0.1,0.1-0.1l8,7.9C83,79.6,83,79.6,82.9,79.7"/>
				<path fill="#A72D24" d="M83,79.6l-8-7.9c0,0,0-0.1,0.1-0.1l8,7.9C83,79.5,83,79.5,83,79.6"/>
				<path fill="#A22C23" d="M83.1,79.5l-8-7.9c0,0,0-0.1,0.1-0.1l8,7.9C83.1,79.4,83.1,79.4,83.1,79.5"/>
				<path fill="#9D2C22" d="M83.1,79.4l-8-7.9c0,0,0-0.1,0.1-0.1l8,7.9C83.1,79.3,83.1,79.3,83.1,79.4"/>
				<path fill="#9A2C21" d="M83.2,79.2l-8-7.9c0,0,0-0.1,0-0.1l8,7.9C83.2,79.2,83.2,79.2,83.2,79.2"/>
				<path fill="#972920" d="M83.2,79.1l-8-7.9c0,0,0-0.1,0-0.1l8,7.9C83.2,79.1,83.2,79.1,83.2,79.1"/>
				<path fill="#942820" d="M83.2,79l-8-7.9c0,0,0-0.1,0-0.1l8,7.9C83.3,79,83.2,79,83.2,79"/>
				<path fill="#90261E" d="M83.3,78.9l-8-7.9c0,0,0-0.1,0-0.1l8,7.9C83.3,78.8,83.3,78.9,83.3,78.9"/>
				<path fill="#8D241D" d="M83.3,78.8l-8-7.9c0,0,0-0.1,0-0.1l8,7.9C83.3,78.7,83.3,78.7,83.3,78.8"/>
				<path fill="#8A241C" d="M83.3,78.6l-8-7.9c0,0,0-0.1,0-0.2l8,7.9C83.3,78.5,83.3,78.6,83.3,78.6"/>
				<path fill="#87241B" d="M83.3,78.5l-8-7.9c0,0,0,0,0,0L83.3,78.5C83.3,78.5,83.3,78.5,83.3,78.5"/>
			</g>
		</g>
		<g>
			<g>
				<polygon fill="#8A241C" points="83.3,75.7 75.3,67.8 87.4,66.7 95.4,74.6 				"/>
			</g>
			<g>
				<polygon fill="#8A241C" points="83.3,75.7 75.3,67.8 87.4,66.7 95.4,74.6 				"/>
			</g>
		</g>
		<g>
			<polygon fill="#8A241C" points="83.3,78.4 75.3,70.5 75.3,67.8 83.3,75.7 			"/>
		</g>
		<g>
			<polygon fill="#C33A28" points="51.6,83.2 43.6,75.3 73.3,72.7 81.3,80.6 			"/>
		</g>
		<g enable-background="new    ">
			<defs>
				<path id="SVGID_15_" enable-background="new    " d="M50.1,82.7c-0.1-0.1-0.3-0.3-0.4-0.4c-2.5-2.5-5-5-7.6-7.5
					c0.4,0.4,0.9,0.6,1.5,0.5l8,7.9C51,83.3,50.5,83.1,50.1,82.7z"/>
			</defs>
			<clipPath id="SVGID_16_">
				<use xlink:href="#SVGID_15_"  overflow="visible"/>
			</clipPath>
			<g clip-path="url(#SVGID_16_)" enable-background="new    ">
				<path fill="#942820" d="M50.1,82.7l-8-7.9c0,0,0.1,0.1,0.1,0.1L50.1,82.7C50.2,82.8,50.2,82.7,50.1,82.7"/>
				<path fill="#972920" d="M50.2,82.8l-8-7.9c0,0,0.1,0.1,0.1,0.1l8,7.9C50.3,82.9,50.3,82.8,50.2,82.8"/>
				<path fill="#9A2C21" d="M50.3,82.9l-8-7.9c0,0,0.1,0.1,0.1,0.1l8,7.9C50.4,82.9,50.4,82.9,50.3,82.9"/>
				<path fill="#9D2C22" d="M50.5,83l-8-7.9c0,0,0.1,0,0.1,0.1l8,7.9C50.5,83,50.5,83,50.5,83"/>
				<path fill="#A22C23" d="M50.6,83l-8-7.9c0,0,0.1,0,0.1,0.1l8,7.9C50.7,83.1,50.6,83.1,50.6,83"/>
				<path fill="#A72D24" d="M50.7,83.1l-8-7.9c0,0,0.1,0,0.1,0l8,7.9C50.8,83.1,50.7,83.1,50.7,83.1"/>
				<path fill="#AA3025" d="M50.8,83.1l-8-7.9c0,0,0.1,0,0.1,0l8,7.9C50.9,83.2,50.9,83.1,50.8,83.1"/>
				<path fill="#AE3125" d="M50.9,83.2l-8-7.9c0,0,0.1,0,0.1,0l8,7.9C51,83.2,51,83.2,50.9,83.2"/>
				<path fill="#B13126" d="M51.1,83.2l-8-7.9c0,0,0.1,0,0.1,0l8,7.9C51.2,83.2,51.1,83.2,51.1,83.2"/>
				<path fill="#B43327" d="M51.2,83.2l-8-7.9c0,0,0.1,0,0.1,0l8,7.9C51.3,83.2,51.2,83.2,51.2,83.2"/>
				<path fill="#B63527" d="M51.3,83.2l-8-7.9c0.1,0,0.1,0,0.2,0l8,7.9C51.4,83.2,51.4,83.2,51.3,83.2"/>
				<path fill="#BB3727" d="M51.5,83.2l-8-7.9c0,0,0.1,0,0.1,0L51.5,83.2C51.6,83.2,51.5,83.2,51.5,83.2"/>
			</g>
		</g>
		<g enable-background="new    ">
			<defs>
				<path id="SVGID_17_" enable-background="new    " d="M38.5,95.2l-8-7.9c-0.6-0.6-1-1.5-1-2.5l8,7.9
					C37.5,93.7,37.9,94.5,38.5,95.2z"/>
			</defs>
			<clipPath id="SVGID_18_">
				<use xlink:href="#SVGID_17_"  overflow="visible"/>
			</clipPath>
			<g clip-path="url(#SVGID_18_)" enable-background="new    ">
				<path fill="#82211A" d="M38.5,95.2l-8-7.9c-0.6-0.6-0.9-1.3-1-2.2l8,7.9C37.6,93.8,38,94.6,38.5,95.2"/>
				<path fill="#87241B" d="M37.5,93l-8-7.9c0-0.1,0-0.2,0-0.3l8,7.9C37.5,92.8,37.5,92.9,37.5,93"/>
			</g>
		</g>
		<g>
			<path fill="#D73D27" d="M95.4,74.6l0,13c0,2.1-1.7,4-3.8,4.2l-50.2,4.4c-2.1,0.2-3.8-1.4-3.8-3.5l0-13l12.1-1.1l0,2.8
				c0,1.1,0.9,1.9,2,1.8l29.7-2.6c1.1-0.1,2-1.1,2-2.2l0-2.8L95.4,74.6z"/>
		</g>
		<g>
			<g>
				<polygon fill="#8A241C" points="37.5,79.7 29.6,71.8 41.6,70.7 49.6,78.6 				"/>
			</g>
			<g>
				<polygon fill="#8A241C" points="37.5,79.7 29.6,71.8 41.6,70.7 49.6,78.6 				"/>
			</g>
		</g>
		<g>
			<polygon fill="#8A241C" points="37.5,92.7 29.5,84.8 29.6,71.8 37.5,79.7 			"/>
		</g>
	</g>
	<g enable-background="new    ">
		<g>
			<g>
				<polygon fill="#E5574F" points="95.3,52.7 95.4,71.8 83.3,72.9 83.3,53.7 				"/>
			</g>
			<g>
				<polygon fill="#E1493B" points="95.3,52.7 95.4,71.8 83.3,72.9 83.3,53.7 				"/>
			</g>
		</g>
		<g>
			<polygon fill="#8A241C" points="83.3,72.9 75.4,65 75.3,45.9 83.3,53.7 			"/>
		</g>
		<g>
			<g>
				<polygon fill="#8A241C" points="83.3,53.7 75.3,45.9 87.3,44.8 95.3,52.7 				"/>
			</g>
			<g>
				<polygon fill="#8A241C" points="83.3,53.7 75.3,45.9 87.3,44.8 95.3,52.7 				"/>
			</g>
		</g>
	</g>
	<g enable-background="new    ">
		<g>
			<g>
				<polygon fill="#E5574F" points="49.5,56.7 49.6,75.8 37.5,76.9 37.5,57.8 				"/>
			</g>
			<g>
				<polygon fill="#E1493B" points="49.5,56.7 49.6,75.8 37.5,76.9 37.5,57.8 				"/>
			</g>
		</g>
		<g>
			<polygon fill="#8A241C" points="37.5,76.9 29.6,69 29.5,49.9 37.5,57.8 			"/>
		</g>
		<g>
			<polygon fill="#8A241C" points="37.5,57.8 29.5,49.9 41.6,48.8 49.5,56.7 			"/>
		</g>
	</g>
</g>
<g>
	<g enable-background="new    ">
		<g>
			<polygon fill="#8A241C" points="83.3,50.9 75.3,43 75.3,40.6 83.3,48.5 			"/>
		</g>
		<g enable-background="new    ">
			<defs>
				<path id="SVGID_19_" enable-background="new    " d="M74.8,39.3c2.7,2.6,5.3,5.3,8,7.9c0.3,0.3,0.5,0.8,0.5,1.3l-8-7.9
					C75.3,40.1,75.1,39.6,74.8,39.3z"/>
			</defs>
			<clipPath id="SVGID_20_">
				<use xlink:href="#SVGID_19_"  overflow="visible"/>
			</clipPath>
			<g clip-path="url(#SVGID_20_)" enable-background="new    ">
				<path fill="#87241B" d="M83.3,48.5l-8-7.9c0-0.1,0-0.1,0-0.2l8,7.9C83.3,48.4,83.3,48.4,83.3,48.5"/>
				<path fill="#82211A" d="M83.3,48.3l-8-7.9c0-0.5-0.2-0.9-0.5-1.2l8,7.9C83.1,47.5,83.3,47.9,83.3,48.3"/>
			</g>
		</g>
		<g enable-background="new    ">
			<defs>
				<path id="SVGID_21_" enable-background="new    " d="M86.4,26.8c0.5,0.5,1.1,1.1,1.6,1.6c2.1,2.1,4.3,4.2,6.4,6.3
					c-0.7-0.7-1.7-1.1-2.8-1l-8-7.9C84.7,25.8,85.7,26.1,86.4,26.8z"/>
			</defs>
			<clipPath id="SVGID_22_">
				<use xlink:href="#SVGID_21_"  overflow="visible"/>
			</clipPath>
			<g clip-path="url(#SVGID_22_)" enable-background="new    ">
				<path fill="#BB3727" d="M91.6,33.7l-8-7.9c0.1,0,0.1,0,0.2,0l8,7.9C91.7,33.7,91.7,33.7,91.6,33.7"/>
				<path fill="#B63527" d="M91.8,33.7l-8-7.9c0.1,0,0.2,0,0.3,0l8,7.9C92,33.7,91.9,33.7,91.8,33.7"/>
				<path fill="#B43327" d="M92.1,33.7l-8-7.9c0.1,0,0.2,0,0.3,0l8,7.9C92.3,33.7,92.2,33.7,92.1,33.7"/>
				<path fill="#B13126" d="M92.3,33.8l-8-7.9c0.1,0,0.2,0,0.3,0l8,7.9C92.5,33.8,92.4,33.8,92.3,33.8"/>
				<path fill="#AE3125" d="M92.6,33.8l-8-7.9c0.1,0,0.2,0,0.2,0.1l8,7.9C92.8,33.8,92.7,33.8,92.6,33.8"/>
				<path fill="#AA3025" d="M92.9,33.8l-8-7.9c0.1,0,0.2,0,0.2,0.1l8,7.9C93,33.9,92.9,33.9,92.9,33.8"/>
				<path fill="#A72D24" d="M93.1,33.9l-8-7.9c0.1,0,0.2,0.1,0.2,0.1l8,7.9C93.2,34,93.2,33.9,93.1,33.9"/>
				<path fill="#A22C23" d="M93.3,34l-8-7.9c0.1,0,0.2,0.1,0.2,0.1l8,7.9C93.5,34.1,93.4,34,93.3,34"/>
				<path fill="#9D2C22" d="M93.5,34.1l-8-7.9c0.1,0,0.2,0.1,0.2,0.1l8,7.9C93.7,34.2,93.6,34.1,93.5,34.1"/>
				<path fill="#9A2C21" d="M93.8,34.2l-8-7.9c0.1,0.1,0.2,0.1,0.2,0.2l8,7.9C93.9,34.3,93.8,34.3,93.8,34.2"/>
				<path fill="#972920" d="M94,34.4l-8-7.9c0.1,0.1,0.2,0.1,0.2,0.2l8,7.9C94.2,34.5,94.1,34.4,94,34.4"/>
				<path fill="#942820" d="M94.2,34.6l-8-7.9c0.1,0,0.1,0.1,0.2,0.1l8,7.9C94.4,34.7,94.3,34.6,94.2,34.6"/>
			</g>
		</g>
		<g>
			<polygon fill="#8A241C" points="37.5,54.9 29.5,47 29.6,34.4 37.6,42.3 			"/>
		</g>
		<g>
			<polygon fill="#C33A28" points="41.4,38.1 33.4,30.2 83.6,25.9 91.6,33.7 			"/>
		</g>
		<g>
			<g>
				<path fill="#E5574F" d="M41.4,38.1l50.2-4.4c2.1-0.2,3.8,1.4,3.8,3.5l0,12.6l-12.1,1l0-2.4c0-1.1-0.9-1.9-2-1.8l-29.7,2.6
					c-1.1,0.1-2,1.1-2,2.2l0,2.4l-12.1,1.1l0-12.6C37.6,40.2,39.3,38.3,41.4,38.1z"/>
			</g>
			<g>
				<path fill="#E5574F" d="M41.4,38.1l50.2-4.4c2.1-0.2,3.8,1.4,3.8,3.5l0,12.6l-12.1,1l0-2.4c0-1.1-0.9-1.9-2-1.8l-29.7,2.6
					c-1.1,0.1-2,1.1-2,2.2l0,2.4l-12.1,1.1l0-12.6C37.6,40.2,39.3,38.3,41.4,38.1z"/>
			</g>
		</g>
		<g enable-background="new    ">
			<defs>
				<path id="SVGID_23_" enable-background="new    " d="M37.6,42.3l-8-7.9c0-2.1,1.7-4,3.8-4.2l8,7.9
					C39.3,38.3,37.6,40.2,37.6,42.3z"/>
			</defs>
			<clipPath id="SVGID_24_">
				<use xlink:href="#SVGID_23_"  overflow="visible"/>
			</clipPath>
			<g clip-path="url(#SVGID_24_)" enable-background="new    ">
				<path fill="#87241B" d="M37.6,42.3l-8-7.9c0,0,0-0.1,0-0.1L37.6,42.3C37.6,42.2,37.6,42.2,37.6,42.3"/>
				<path fill="#8A241C" d="M37.6,42.2l-8-7.9c0-0.1,0-0.2,0-0.3l8,7.9C37.6,42,37.6,42.1,37.6,42.2"/>
				<path fill="#8D241D" d="M37.6,41.9l-8-7.9c0-0.1,0-0.2,0-0.3l8,7.9C37.6,41.7,37.6,41.8,37.6,41.9"/>
				<path fill="#90261E" d="M37.6,41.6l-8-7.9c0-0.1,0-0.2,0.1-0.2l8,7.9C37.6,41.4,37.6,41.5,37.6,41.6"/>
				<path fill="#942820" d="M37.7,41.4l-8-7.9c0-0.1,0-0.1,0.1-0.2l8,7.9C37.7,41.2,37.7,41.3,37.7,41.4"/>
				<path fill="#972920" d="M37.7,41.1l-8-7.9c0-0.1,0-0.1,0.1-0.2l8,7.9C37.8,41,37.7,41.1,37.7,41.1"/>
				<path fill="#9A2C21" d="M37.8,40.9l-8-7.9c0-0.1,0-0.1,0.1-0.2l8,7.9C37.9,40.8,37.8,40.9,37.8,40.9"/>
				<path fill="#9D2C22" d="M37.9,40.7l-8-7.9c0-0.1,0.1-0.1,0.1-0.2l8,7.9C37.9,40.6,37.9,40.7,37.9,40.7"/>
				<path fill="#A22C23" d="M38,40.5l-8-7.9c0-0.1,0.1-0.1,0.1-0.2l8,7.9C38,40.4,38,40.5,38,40.5"/>
				<path fill="#A72D24" d="M38.1,40.3l-8-7.9c0-0.1,0.1-0.1,0.1-0.2l8,7.9C38.1,40.2,38.1,40.3,38.1,40.3"/>
				<path fill="#AA3025" d="M38.2,40.1l-8-7.9c0-0.1,0.1-0.1,0.1-0.2l8,7.9C38.3,40,38.2,40.1,38.2,40.1"/>
				<path fill="#AE3125" d="M38.3,40l-8-7.9c0-0.1,0.1-0.1,0.1-0.2l8,7.9C38.4,39.8,38.3,39.9,38.3,40"/>
				<path fill="#B13126" d="M38.4,39.8l-8-7.9c0.1-0.1,0.1-0.1,0.2-0.2l8,7.9C38.5,39.6,38.5,39.7,38.4,39.8"/>
				<path fill="#B43327" d="M38.6,39.6l-8-7.9c0.1-0.1,0.1-0.1,0.2-0.2l8,7.9C38.7,39.4,38.7,39.5,38.6,39.6"/>
				<path fill="#B63527" d="M38.8,39.4l-8-7.9c0.1-0.1,0.2-0.1,0.2-0.2l8,7.9C38.9,39.2,38.9,39.3,38.8,39.4"/>
				<path fill="#BB3727" d="M39,39.1l-8-7.9c0.1-0.1,0.2-0.2,0.3-0.2l8,7.9C39.2,39,39.1,39.1,39,39.1"/>
				<path fill="#BD3827" d="M39.3,38.9l-8-7.9c0.2-0.1,0.3-0.2,0.5-0.3l8,7.9C39.6,38.7,39.5,38.8,39.3,38.9"/>
				<path fill="#C23A28" d="M39.8,38.6l-8-7.9c0.3-0.1,0.5-0.3,0.8-0.3l8,7.9C40.3,38.3,40.1,38.5,39.8,38.6"/>
				<path fill="#BD3827" d="M40.6,38.3l-8-7.9c0.2-0.1,0.4-0.1,0.6-0.1l8,7.9C41,38.2,40.8,38.2,40.6,38.3"/>
				<path fill="#BB3727" d="M41.2,38.1l-8-7.9c0.1,0,0.1,0,0.2,0l8,7.9C41.3,38.1,41.3,38.1,41.2,38.1"/>
			</g>
		</g>
	</g>
</g>
</svg>
