<?xml version="1.0" encoding="utf-8"?>
<!-- Generator: Adobe Illustrator 18.1.0, SVG Export Plug-In . SVG Version: 6.00 Build 0)  -->
<svg version="1.1" id="Layer_1" xmlns="http://www.w3.org/2000/svg" xmlns:xlink="http://www.w3.org/1999/xlink" x="0px" y="0px"
	 viewBox="0 0 100 100" enable-background="new 0 0 100 100" xml:space="preserve">
<g>
	<path fill="#698DBA" d="M23.2-0.4c-4,0-7.2,3.2-7.2,7.2v53.5c0,4,3.2,7.2,7.2,7.2h53.6c4,0,7.2-3.2,7.2-7.2V6.8
		c0-4-3.3-7.2-7.2-7.2L23.2-0.4L23.2-0.4z M21.5,59.1v-51c0-1.7,1.3-3,3-3h51c1.6,0,3,1.3,3,3V59c0,1.7-1.3,3-3,3h-51
		C22.8,62.1,21.5,60.8,21.5,59.1L21.5,59.1z"/>
	<path fill="#698DBA" d="M39.2,15.6c-4,0-7.2,3.2-7.2,7.2v53.5c0,4,3.2,7.2,7.2,7.2h53.6c4,0,7.2-3.2,7.2-7.2V22.8
		c0-4-3.3-7.2-7.2-7.2H39.2L39.2,15.6z M37.5,75.1v-51c0-1.7,1.3-3,3-3h51c1.6,0,3,1.3,3,3v50.9c0,1.7-1.3,3-3,3h-51
		C38.8,78.2,37.5,76.9,37.5,75.1L37.5,75.1z"/>
	<path fill="#698DBA" d="M7.2,32.1c-4,0-7.2,3.2-7.2,7.2v53.5c0,4,3.2,7.2,7.2,7.2h53.6c4,0,7.2-3.2,7.2-7.2V39.3
		c0-4-3.3-7.2-7.2-7.2H7.2L7.2,32.1z M5.5,91.6v-51c0-1.7,1.3-3,3-3h51c1.6,0,3,1.3,3,3v50.9c0,1.7-1.3,3-3,3h-51
		C6.8,94.6,5.5,93.3,5.5,91.6L5.5,91.6z"/>
</g>
</svg>
