<?xml version="1.0" encoding="utf-8"?>
<!-- Generator: Adobe Illustrator 18.1.0, SVG Export Plug-In . SVG Version: 6.00 Build 0)  -->
<svg version="1.1" id="Layer_1" xmlns="http://www.w3.org/2000/svg" xmlns:xlink="http://www.w3.org/1999/xlink" x="0px" y="0px"
	 viewBox="116 0 100 100" enable-background="new 116 0 100 100" xml:space="preserve">
<g>
	<path fill="#DB242F" d="M145.7,45.3l-16.1,5.8c0.2,2.6,0.6,5.1,1.3,7.6l15.3-5.6C145.7,50.6,145.5,47.9,145.7,45.3"/>
	<path fill="#DB242F" d="M216.7,27.5c-1.1-2.3-2.4-4.5-3.9-6.6l-16.1,5.8c1.9,1.9,3.4,4.1,4.7,6.4L216.7,27.5z"/>
	<path fill="#DB242F" d="M181.4,23c3.3,1.6,6.2,3.7,8.7,6.2l16.1-5.8c-4.4-6.2-10.5-11.5-17.9-14.9c-22.9-10.7-50.3-0.7-61,22.2
		c-3.5,7.4-4.8,15.3-4.1,23l16.1-5.8c0.3-3.5,1.1-7,2.7-10.3C148.7,22.5,166.4,16,181.4,23"/>
	<path fill="#DB242F" d="M131.9,58.4l-15.3,5.6c1.4,5.6,3.8,10.8,7.2,15.5l16-5.8C135.8,69.4,133,64.1,131.9,58.4"/>
	<path fill="#DB242F" d="M198.5,52.3c-0.3,3.5-1.1,7-2.7,10.3C188.8,77.5,171,84,156.1,77c-3.3-1.6-6.3-3.7-8.7-6.2l-16,5.8
		c4.4,6.2,10.5,11.5,17.9,14.9c22.9,10.7,50.3,0.7,61-22.2c3.5-7.4,4.7-15.3,4.1-22.9L198.5,52.3z"/>
	<path fill="#DB242F" d="M202.4,32.7l-15.3,5.6c2.8,5.1,4.2,10.9,3.7,16.8l16-5.8C206.5,43.5,204.9,37.9,202.4,32.7"/>
</g>
</svg>
