<?xml version="1.0" encoding="utf-8"?>
<!-- Generator: Adobe Illustrator 18.1.0, SVG Export Plug-In . SVG Version: 6.00 Build 0)  -->
<svg version="1.1" id="svg2346" xmlns:svg="http://www.w3.org/2000/svg"
	 xmlns="http://www.w3.org/2000/svg" xmlns:xlink="http://www.w3.org/1999/xlink" x="0px" y="0px" viewBox="924 0 100 100"
	 enable-background="new 924 0 100 100" xml:space="preserve">
<path id="path7533" fill="#E1E1E1" stroke="#A2A2A2" stroke-width="5" stroke-linejoin="round" d="M1011.5,50c0,21-17,38-38,38
	c-21,0-38-17-38-38s17-38,38-38C994.5,12,1011.5,29,1011.5,50z"/>
<path d="M943.8,28c0,0,18.5,22.8,18.5,22.8c0.1,0-33.8,26.5-33.9,26.5c0,0,26.5,0,26.5,0c0,0,17.6-13.9,17.6-13.9
	c0,0,9.4,13.9,9.4,13.9c0,0,23.5,0,23.5,0c0,0-18.7-24-18.7-24c0.1,0,32.9-25.3,32.9-25.3c0,0-26.7,0-26.7,0
	c0,0-16.3,12.9-16.3,12.9c0,0-9.7-12.9-9.7-12.9C966.9,28,943.8,28,943.8,28z"/>
</svg>
