<?xml version="1.0" encoding="utf-8"?>
<!-- Generator: Adobe Illustrator 18.1.0, SVG Export Plug-In . SVG Version: 6.00 Build 0)  -->
<svg version="1.1" id="Layer_1" xmlns="http://www.w3.org/2000/svg" xmlns:xlink="http://www.w3.org/1999/xlink" x="0px" y="0px"
	 viewBox="0 0 100 100" enable-background="new 0 0 100 100" xml:space="preserve">
<g>
	<g enable-background="new    ">
		<g enable-background="new    ">
			<defs>
				<path id="SVGID_1_" enable-background="new    " d="M74.6,76.1L64,65.6c1.5-0.1,2.7-1.4,2.7-2.9l10.6,10.5
					C77.3,74.7,76.1,75.9,74.6,76.1z"/>
			</defs>
			<clipPath id="SVGID_2_">
				<use xlink:href="#SVGID_1_"  overflow="visible"/>
			</clipPath>
			<g clip-path="url(#SVGID_2_)" enable-background="new    ">
				<path fill="#BB3727" d="M74.6,76.1L64,65.6c0,0,0.1,0,0.1,0l10.6,10.5C74.7,76.1,74.7,76.1,74.6,76.1"/>
				<path fill="#BD3827" d="M74.8,76.1L64.1,65.5c0.1,0,0.3,0,0.4-0.1L75.2,76C75,76,74.9,76,74.8,76.1"/>
				<path fill="#C23A28" d="M75.2,76L64.5,65.5c0.2-0.1,0.4-0.1,0.6-0.2l10.6,10.5C75.5,75.8,75.4,75.9,75.2,76"/>
				<path fill="#BD3827" d="M75.7,75.7L65.1,65.2c0.1-0.1,0.2-0.1,0.4-0.2l10.6,10.5C76,75.6,75.8,75.7,75.7,75.7"/>
				<path fill="#BB3727" d="M76.1,75.5L65.4,65c0.1-0.1,0.1-0.1,0.2-0.2l10.6,10.5C76.2,75.4,76.1,75.5,76.1,75.5"/>
				<path fill="#B63527" d="M76.3,75.4L65.6,64.8c0.1,0,0.1-0.1,0.2-0.1l10.6,10.5C76.4,75.3,76.3,75.3,76.3,75.4"/>
				<path fill="#B43327" d="M76.4,75.2L65.8,64.7c0,0,0.1-0.1,0.1-0.1l10.6,10.5C76.5,75.1,76.5,75.2,76.4,75.2"/>
				<path fill="#B13126" d="M76.6,75.1L65.9,64.5c0,0,0.1-0.1,0.1-0.1l10.6,10.5C76.6,75,76.6,75,76.6,75.1"/>
				<path fill="#AE3125" d="M76.7,74.9L66,64.4c0,0,0.1-0.1,0.1-0.1l10.6,10.5C76.7,74.8,76.7,74.9,76.7,74.9"/>
				<path fill="#AA3025" d="M76.8,74.8L66.1,64.3c0,0,0.1-0.1,0.1-0.1l10.6,10.5C76.8,74.7,76.8,74.7,76.8,74.8"/>
				<path fill="#A72D24" d="M76.9,74.7L66.2,64.1c0,0,0.1-0.1,0.1-0.1l10.6,10.5C76.9,74.6,76.9,74.6,76.9,74.7"/>
				<path fill="#A22C23" d="M76.9,74.5L66.3,64c0,0,0.1-0.1,0.1-0.1L77,74.4C77,74.4,77,74.5,76.9,74.5"/>
				<path fill="#9D2C22" d="M77,74.4L66.4,63.9c0,0,0-0.1,0.1-0.1l10.6,10.5C77.1,74.3,77,74.3,77,74.4"/>
				<path fill="#9A2C21" d="M77.1,74.3L66.4,63.7c0,0,0-0.1,0.1-0.1l10.6,10.5C77.1,74.2,77.1,74.2,77.1,74.3"/>
				<path fill="#972920" d="M77.1,74.1L66.5,63.6c0-0.1,0-0.1,0.1-0.1L77.2,74C77.2,74,77.1,74.1,77.1,74.1"/>
				<path fill="#942820" d="M77.2,74L66.5,63.4c0,0,0-0.1,0-0.2l10.6,10.5C77.2,73.9,77.2,73.9,77.2,74"/>
				<path fill="#90261E" d="M77.2,73.8L66.6,63.3c0-0.1,0-0.1,0-0.2l10.6,10.5C77.2,73.7,77.2,73.7,77.2,73.8"/>
				<path fill="#8D241D" d="M77.3,73.6L66.6,63.1c0-0.1,0-0.1,0-0.2l10.6,10.5C77.3,73.5,77.3,73.6,77.3,73.6"/>
				<path fill="#8A241C" d="M77.3,73.4L66.6,62.9c0-0.1,0-0.1,0-0.2l10.6,10.5C77.3,73.3,77.3,73.4,77.3,73.4"/>
				<path fill="#87241B" d="M77.3,73.2L66.7,62.7c0,0,0,0,0-0.1L77.3,73.2C77.3,73.2,77.3,73.2,77.3,73.2"/>
			</g>
		</g>
		<g>
			<g>
				<polygon fill="#8A241C" points="77.3,69.5 66.7,59 82.8,57.5 93.4,68.1 				"/>
			</g>
			<g>
				<polygon fill="#8A241C" points="77.3,69.5 66.7,59 82.8,57.5 93.4,68.1 				"/>
			</g>
		</g>
		<g>
			<polygon fill="#8A241C" points="77.3,73.2 66.7,62.7 66.7,59 77.3,69.5 			"/>
		</g>
		<g>
			<polygon fill="#C33A28" points="35,79.5 24.4,69 64,65.6 74.6,76.1 			"/>
		</g>
		<g enable-background="new    ">
			<defs>
				<path id="SVGID_3_" enable-background="new    " d="M33,78.9c-0.2-0.2-0.4-0.4-0.5-0.5c-3.4-3.3-6.7-6.7-10.1-10
					c0.5,0.5,1.2,0.7,2,0.7L35,79.5C34.2,79.6,33.5,79.3,33,78.9z"/>
			</defs>
			<clipPath id="SVGID_4_">
				<use xlink:href="#SVGID_3_"  overflow="visible"/>
			</clipPath>
			<g clip-path="url(#SVGID_4_)" enable-background="new    ">
				<path fill="#942820" d="M33,78.9L22.4,68.3c0,0,0.1,0.1,0.1,0.1L33.2,79C33.1,78.9,33.1,78.9,33,78.9"/>
				<path fill="#972920" d="M33.2,79L22.5,68.4c0.1,0.1,0.1,0.1,0.2,0.1l10.6,10.5C33.3,79.1,33.2,79,33.2,79"/>
				<path fill="#9A2C21" d="M33.3,79.1L22.7,68.6c0.1,0,0.1,0.1,0.2,0.1l10.6,10.5C33.4,79.2,33.4,79.1,33.3,79.1"/>
				<path fill="#9D2C22" d="M33.5,79.2L22.8,68.7c0.1,0,0.1,0.1,0.2,0.1l10.6,10.5C33.6,79.3,33.5,79.2,33.5,79.2"/>
				<path fill="#A22C23" d="M33.6,79.3L23,68.8c0.1,0,0.1,0.1,0.2,0.1l10.6,10.5C33.7,79.3,33.7,79.3,33.6,79.3"/>
				<path fill="#A72D24" d="M33.8,79.4L23.2,68.9c0.1,0,0.1,0,0.2,0.1L34,79.4C33.9,79.4,33.9,79.4,33.8,79.4"/>
				<path fill="#AA3025" d="M34,79.4L23.3,68.9c0.1,0,0.1,0,0.2,0.1l10.6,10.5C34.1,79.5,34,79.4,34,79.4"/>
				<path fill="#AE3125" d="M34.1,79.5L23.5,69c0.1,0,0.1,0,0.2,0l10.6,10.5C34.2,79.5,34.2,79.5,34.1,79.5"/>
				<path fill="#B13126" d="M34.3,79.5L23.7,69c0.1,0,0.1,0,0.2,0l10.6,10.5C34.4,79.5,34.3,79.5,34.3,79.5"/>
				<path fill="#B43327" d="M34.5,79.5L23.8,69c0.1,0,0.1,0,0.2,0l10.6,10.5C34.6,79.6,34.5,79.5,34.5,79.5"/>
				<path fill="#B63527" d="M34.7,79.6L24,69c0.1,0,0.1,0,0.2,0l10.6,10.5C34.8,79.6,34.7,79.6,34.7,79.6"/>
				<path fill="#BB3727" d="M34.9,79.6L24.2,69c0,0,0.1,0,0.1,0L35,79.5C35,79.6,34.9,79.6,34.9,79.6"/>
			</g>
		</g>
		<g enable-background="new    ">
			<defs>
				<path id="SVGID_5_" enable-background="new    " d="M17.6,95.5L6.9,85c-0.8-0.8-1.4-2-1.4-3.3l10.6,10.5
					C16.2,93.5,16.7,94.6,17.6,95.5z"/>
			</defs>
			<clipPath id="SVGID_6_">
				<use xlink:href="#SVGID_5_"  overflow="visible"/>
			</clipPath>
			<g clip-path="url(#SVGID_6_)" enable-background="new    ">
				<path fill="#82211A" d="M17.6,95.5L6.9,85c-0.8-0.7-1.3-1.8-1.3-2.9l10.6,10.5C16.3,93.7,16.8,94.7,17.6,95.5"/>
				<path fill="#87241B" d="M16.2,92.5L5.6,82c0-0.1,0-0.3,0-0.4l10.6,10.5C16.2,92.3,16.2,92.4,16.2,92.5"/>
			</g>
		</g>
		<g>
			<path fill="#D73D27" d="M93.4,68.1l0,17.3c0,2.8-2.3,5.3-5.1,5.5l-66.9,5.9c-2.8,0.2-5.1-1.8-5.1-4.7l0-17.3l16.1-1.4l0,3.7
				c0,1.5,1.2,2.6,2.7,2.4l39.6-3.5c1.5-0.1,2.7-1.4,2.7-2.9l0-3.7L93.4,68.1z"/>
		</g>
		<g>
			<g>
				<polygon fill="#8A241C" points="16.2,74.8 5.6,64.3 21.7,62.9 32.3,73.4 				"/>
			</g>
			<g>
				<polygon fill="#8A241C" points="16.2,74.8 5.6,64.3 21.7,62.9 32.3,73.4 				"/>
			</g>
		</g>
		<g>
			<polygon fill="#8A241C" points="16.2,92.1 5.6,81.6 5.6,64.3 16.2,74.8 			"/>
		</g>
	</g>
	<g enable-background="new    ">
		<g>
			<g>
				<polygon fill="#E5574F" points="93.3,38.8 93.4,64.3 77.3,65.7 77.2,40.2 				"/>
			</g>
			<g>
				<polygon fill="#E1493B" points="93.3,38.8 93.4,64.3 77.3,65.7 77.2,40.2 				"/>
			</g>
		</g>
		<g>
			<polygon fill="#8A241C" points="77.3,65.7 66.7,55.2 66.6,29.7 77.2,40.2 			"/>
		</g>
		<g>
			<g>
				<polygon fill="#8A241C" points="77.2,40.2 66.6,29.7 82.7,28.3 93.3,38.8 				"/>
			</g>
			<g>
				<polygon fill="#8A241C" points="77.2,40.2 66.6,29.7 82.7,28.3 93.3,38.8 				"/>
			</g>
		</g>
	</g>
	<g enable-background="new    ">
		<g>
			<g>
				<polygon fill="#E5574F" points="32.2,44.2 32.3,69.7 16.3,71.1 16.2,45.6 				"/>
			</g>
			<g>
				<polygon fill="#E1493B" points="32.2,44.2 32.3,69.7 16.3,71.1 16.2,45.6 				"/>
			</g>
		</g>
		<g>
			<polygon fill="#8A241C" points="16.3,71.1 5.6,60.6 5.5,35.1 16.2,45.6 			"/>
		</g>
		<g>
			<polygon fill="#8A241C" points="16.2,45.6 5.5,35.1 21.6,33.7 32.2,44.2 			"/>
		</g>
	</g>
</g>
<g>
	<g enable-background="new    ">
		<g>
			<polygon fill="#8A241C" points="77.3,36.4 66.7,25.9 66.7,22.7 77.3,33.2 			"/>
		</g>
		<g enable-background="new    ">
			<defs>
				<path id="SVGID_7_" enable-background="new    " d="M66,21c3.5,3.5,7.1,7,10.6,10.5c0.4,0.4,0.7,1.1,0.7,1.8L66.7,22.7
					C66.7,22,66.4,21.4,66,21z"/>
			</defs>
			<clipPath id="SVGID_8_">
				<use xlink:href="#SVGID_7_"  overflow="visible"/>
			</clipPath>
			<g clip-path="url(#SVGID_8_)" enable-background="new    ">
				<path fill="#87241B" d="M77.3,33.2L66.7,22.7c0-0.1,0-0.1,0-0.2L77.3,33C77.3,33.1,77.3,33.2,77.3,33.2"/>
				<path fill="#82211A" d="M77.3,33L66.6,22.5c0-0.6-0.3-1.2-0.7-1.5l10.6,10.5C77,31.9,77.2,32.4,77.3,33"/>
			</g>
		</g>
		<g enable-background="new    ">
			<defs>
				<path id="SVGID_9_" enable-background="new    " d="M81.4,4.4c0.7,0.7,1.4,1.4,2.1,2.1c2.8,2.8,5.7,5.6,8.5,8.4
					c-0.9-0.9-2.3-1.4-3.7-1.3L77.7,3.1C79.2,2.9,80.5,3.4,81.4,4.4z"/>
			</defs>
			<clipPath id="SVGID_10_">
				<use xlink:href="#SVGID_9_"  overflow="visible"/>
			</clipPath>
			<g clip-path="url(#SVGID_10_)" enable-background="new    ">
				<path fill="#BB3727" d="M88.3,13.6L77.7,3.1c0.1,0,0.1,0,0.2,0l10.6,10.5C88.5,13.6,88.4,13.6,88.3,13.6"/>
				<path fill="#B63527" d="M88.5,13.6L77.9,3.1c0.1,0,0.3,0,0.4,0L89,13.6C88.8,13.6,88.7,13.6,88.5,13.6"/>
				<path fill="#B43327" d="M89,13.6L78.3,3.1c0.1,0,0.2,0,0.4,0l10.6,10.5C89.2,13.6,89.1,13.6,89,13.6"/>
				<path fill="#B13126" d="M89.3,13.6L78.7,3.1c0.1,0,0.2,0,0.3,0l10.6,10.5C89.6,13.6,89.4,13.6,89.3,13.6"/>
				<path fill="#AE3125" d="M89.7,13.7L79,3.1c0.1,0,0.2,0,0.3,0.1L90,13.7C89.9,13.7,89.8,13.7,89.7,13.7"/>
				<path fill="#AA3025" d="M90,13.7L79.4,3.2c0.1,0,0.2,0.1,0.3,0.1l10.6,10.5C90.2,13.8,90.1,13.7,90,13.7"/>
				<path fill="#A72D24" d="M90.3,13.8L79.7,3.3c0.1,0,0.2,0.1,0.3,0.1l10.6,10.5C90.5,13.9,90.4,13.8,90.3,13.8"/>
				<path fill="#A22C23" d="M90.6,13.9L80,3.4c0.1,0,0.2,0.1,0.3,0.1l10.6,10.5C90.8,14,90.7,14,90.6,13.9"/>
				<path fill="#9D2C22" d="M90.9,14.1L80.3,3.5c0.1,0.1,0.2,0.1,0.3,0.2l10.6,10.5C91.1,14.2,91,14.1,90.9,14.1"/>
				<path fill="#9A2C21" d="M91.2,14.2L80.6,3.7c0.1,0.1,0.2,0.1,0.3,0.2l10.6,10.5C91.4,14.4,91.3,14.3,91.2,14.2"/>
				<path fill="#972920" d="M91.5,14.4L80.9,3.9C81,4,81.1,4.1,81.2,4.2l10.6,10.5C91.8,14.6,91.6,14.5,91.5,14.4"/>
				<path fill="#942820" d="M91.9,14.7L81.2,4.2c0.1,0.1,0.1,0.1,0.2,0.2l10.6,10.5C92,14.8,91.9,14.8,91.9,14.7"/>
			</g>
		</g>
		<g>
			<polygon fill="#8A241C" points="16.2,41.8 5.6,31.2 5.7,14.4 16.3,24.9 			"/>
		</g>
		<g>
			<polygon fill="#C33A28" points="21.4,19.4 10.8,8.9 77.7,3.1 88.3,13.6 			"/>
		</g>
		<g>
			<g>
				<path fill="#E5574F" d="M21.4,19.4l66.9-5.8c2.8-0.2,5.1,1.8,5.1,4.7L93.4,35l-16.1,1.4l0-3.2c0-1.5-1.2-2.6-2.7-2.4L35,34.3
					c-1.5,0.1-2.7,1.4-2.7,2.9l0,3.2l-16.1,1.4l0-16.8C16.3,22.1,18.6,19.7,21.4,19.4z"/>
			</g>
			<g>
				<path fill="#E5574F" d="M21.4,19.4l66.9-5.8c2.8-0.2,5.1,1.8,5.1,4.7L93.4,35l-16.1,1.4l0-3.2c0-1.5-1.2-2.6-2.7-2.4L35,34.3
					c-1.5,0.1-2.7,1.4-2.7,2.9l0,3.2l-16.1,1.4l0-16.8C16.3,22.1,18.6,19.7,21.4,19.4z"/>
			</g>
		</g>
		<g enable-background="new    ">
			<defs>
				<path id="SVGID_11_" enable-background="new    " d="M16.3,24.9L5.7,14.4c0-2.8,2.3-5.3,5.1-5.5l10.6,10.5
					C18.6,19.7,16.3,22.1,16.3,24.9z"/>
			</defs>
			<clipPath id="SVGID_12_">
				<use xlink:href="#SVGID_11_"  overflow="visible"/>
			</clipPath>
			<g clip-path="url(#SVGID_12_)" enable-background="new    ">
				<path fill="#87241B" d="M16.3,24.9L5.7,14.4c0,0,0-0.1,0-0.1l10.6,10.5C16.3,24.9,16.3,24.9,16.3,24.9"/>
				<path fill="#8A241C" d="M16.3,24.8L5.7,14.3c0-0.1,0-0.3,0-0.4l10.6,10.5C16.3,24.6,16.3,24.7,16.3,24.8"/>
				<path fill="#8D241D" d="M16.3,24.4L5.7,13.9c0-0.1,0-0.2,0-0.4l10.6,10.5C16.3,24.2,16.3,24.3,16.3,24.4"/>
				<path fill="#90261E" d="M16.4,24.1L5.7,13.5c0-0.1,0-0.2,0.1-0.3l10.6,10.5C16.4,23.8,16.4,24,16.4,24.1"/>
				<path fill="#942820" d="M16.4,23.7L5.8,13.2c0-0.1,0-0.2,0.1-0.3l10.6,10.5C16.5,23.5,16.5,23.6,16.4,23.7"/>
				<path fill="#972920" d="M16.5,23.4L5.9,12.9c0-0.1,0.1-0.2,0.1-0.3l10.6,10.5C16.6,23.3,16.5,23.3,16.5,23.4"/>
				<path fill="#9A2C21" d="M16.6,23.2L6,12.6c0-0.1,0.1-0.2,0.1-0.3l10.6,10.5C16.7,23,16.6,23.1,16.6,23.2"/>
				<path fill="#9D2C22" d="M16.7,22.9L6.1,12.4c0-0.1,0.1-0.2,0.1-0.3l10.6,10.5C16.8,22.7,16.7,22.8,16.7,22.9"/>
				<path fill="#A22C23" d="M16.8,22.6L6.2,12.1c0-0.1,0.1-0.2,0.1-0.3L17,22.4C16.9,22.4,16.9,22.5,16.8,22.6"/>
				<path fill="#A72D24" d="M17,22.4L6.3,11.8c0-0.1,0.1-0.2,0.1-0.3l10.6,10.5C17.1,22.2,17,22.3,17,22.4"/>
				<path fill="#AA3025" d="M17.1,22.1L6.5,11.6c0.1-0.1,0.1-0.2,0.2-0.3l10.6,10.5C17.2,21.9,17.2,22,17.1,22.1"/>
				<path fill="#AE3125" d="M17.3,21.9L6.6,11.3c0.1-0.1,0.1-0.2,0.2-0.3l10.6,10.5C17.4,21.7,17.3,21.8,17.3,21.9"/>
				<path fill="#B13126" d="M17.5,21.6L6.8,11.1C6.9,11,7,10.9,7,10.8l10.6,10.5C17.6,21.4,17.5,21.5,17.5,21.6"/>
				<path fill="#B43327" d="M17.7,21.3L7,10.8c0.1-0.1,0.2-0.2,0.2-0.3l10.6,10.5C17.8,21.2,17.8,21.2,17.7,21.3"/>
				<path fill="#B63527" d="M17.9,21.1L7.3,10.6c0.1-0.1,0.2-0.2,0.3-0.3l10.6,10.5C18.1,20.9,18,21,17.9,21.1"/>
				<path fill="#BB3727" d="M18.2,20.8L7.6,10.3C7.7,10.2,7.8,10.1,8,10l10.6,10.5C18.5,20.6,18.4,20.7,18.2,20.8"/>
				<path fill="#BD3827" d="M18.6,20.5L8,10c0.2-0.2,0.4-0.3,0.7-0.4l10.6,10.5C19.1,20.2,18.8,20.3,18.6,20.5"/>
				<path fill="#C23A28" d="M19.3,20.1L8.6,9.5C9,9.3,9.4,9.2,9.7,9.1l10.6,10.5C20,19.7,19.6,19.9,19.3,20.1"/>
				<path fill="#BD3827" d="M20.4,19.6L9.7,9.1C10,9,10.2,9,10.5,8.9l10.6,10.5C20.9,19.5,20.6,19.5,20.4,19.6"/>
				<path fill="#BB3727" d="M21.1,19.4L10.5,8.9c0.1,0,0.2,0,0.3,0l10.6,10.5C21.3,19.4,21.2,19.4,21.1,19.4"/>
			</g>
		</g>
	</g>
</g>
</svg>
